<svg xmlns="http://www.w3.org/2000/svg" xmlns:xlink="http://www.w3.org/1999/xlink" width="1131" height="180" viewBox="0 0 1131 180">
  <defs>
    <style>
      .cls-1, .cls-3 {
        fill: #fff;
      }

      .cls-1 {
        stroke: #707070;
      }

      .cls-2 {
        clip-path: url(#clip-path);
      }

      .cls-4 {
        fill: #6c63ff;
      }

      .cls-5 {
        opacity: 0.33;
        clip-path: url(#clip-path-2);
      }

      .cls-6 {
        filter: url(#Rectangle_1096);
      }
    </style>
    <clipPath id="clip-path">
      <rect id="Rectangle_1577" data-name="Rectangle 1577" width="1131" height="180"/>
    </clipPath>
    <filter id="Rectangle_1096" x="-38.5" y="-19.29" width="1207" height="258" filterUnits="userSpaceOnUse">
      <feOffset dy="20" input="SourceAlpha"/>
      <feGaussianBlur stdDeviation="12.5" result="blur"/>
      <feFlood flood-opacity="0.161"/>
      <feComposite operator="in" in2="blur"/>
      <feComposite in="SourceGraphic"/>
    </filter>
    <clipPath id="clip-path-2">
      <rect id="Rectangle_1459" data-name="Rectangle 1459" class="cls-1" width="126.65" height="52.063" transform="translate(0 1305)"/>
    </clipPath>
  </defs>
  <g id="Artboard_1" data-name="Artboard – 1" class="cls-2">
    <rect id="Rectangle_1576" data-name="Rectangle 1576" class="cls-3" width="1131" height="180"/>
    <g id="Group_105" data-name="Group 105" transform="translate(-395 -1123.79)">
      <g class="cls-6" transform="matrix(1, 0, 0, 1, 395, 1123.79)">
        <rect id="Rectangle_1096-2" data-name="Rectangle 1096" class="cls-4" width="1132" height="183" transform="translate(-1 -1.79)"/>
      </g>
      <g id="Mask_Group_1" data-name="Mask Group 1" class="cls-5" transform="matrix(0.857, -0.515, 0.515, 0.857, -310.487, 57.73)">
        <g id="ic_pets_48px" transform="translate(39.825 1305)">
          <ellipse id="Ellipse_45" data-name="Ellipse 45" class="cls-3" cx="5.875" cy="6.849" rx="5.875" ry="6.849" transform="translate(0 10.959)"/>
          <ellipse id="Ellipse_46" data-name="Ellipse 46" class="cls-3" cx="5.875" cy="6.849" rx="5.875" ry="6.849" transform="translate(10.575 0)"/>
          <ellipse id="Ellipse_47" data-name="Ellipse 47" class="cls-3" cx="5.875" cy="6.849" rx="5.875" ry="6.849" transform="translate(24.675 0)"/>
          <ellipse id="Ellipse_48" data-name="Ellipse 48" class="cls-3" cx="5.875" cy="6.849" rx="5.875" ry="6.849" transform="translate(35.25 10.959)"/>
          <path id="Path_142" data-name="Path 142" class="cls-3" d="M173.873,386.012c-2.056-2.781-3.772-5.178-5.828-7.959a10.3,10.3,0,0,0-4.1-3.616,4.749,4.749,0,0,0-.775-.233,12.492,12.492,0,0,0-3.689,0,5.568,5.568,0,0,0-.775.233,10.3,10.3,0,0,0-4.1,3.616c-2.056,2.781-3.772,5.178-5.828,7.959-3.078,3.575-6.85,7.562-6.169,13.137.681,2.781,2.4,5.575,5.487,6.37,1.715.4,7.191-1.192,13.019-1.192.07,0,.141.014.212.014s.141-.014.212-.014c5.828,0,11.3,1.589,13.019,1.192,3.078-.794,4.794-3.575,5.487-6.37C180.723,393.574,176.963,389.588,173.873,386.012Z" transform="translate(-137.824 -353.52)"/>
        </g>
      </g>
      <g id="Mask_Group_5" data-name="Mask Group 5" class="cls-5" transform="matrix(-0.454, 0.891, -0.891, -0.454, 2207.032, 1669.884)">
        <g id="ic_pets_48px-2" data-name="ic_pets_48px" transform="translate(39.825 1305)">
          <ellipse id="Ellipse_61" data-name="Ellipse 61" class="cls-3" cx="5.875" cy="6.849" rx="5.875" ry="6.849" transform="translate(0 10.959)"/>
          <ellipse id="Ellipse_62" data-name="Ellipse 62" class="cls-3" cx="5.875" cy="6.849" rx="5.875" ry="6.849" transform="translate(10.575 0)"/>
          <ellipse id="Ellipse_63" data-name="Ellipse 63" class="cls-3" cx="5.875" cy="6.849" rx="5.875" ry="6.849" transform="translate(24.675 0)"/>
          <ellipse id="Ellipse_64" data-name="Ellipse 64" class="cls-3" cx="5.875" cy="6.849" rx="5.875" ry="6.849" transform="translate(35.25 10.959)"/>
          <path id="Path_146" data-name="Path 146" class="cls-3" d="M173.873,386.012c-2.056-2.781-3.772-5.178-5.828-7.959a10.3,10.3,0,0,0-4.1-3.616,4.749,4.749,0,0,0-.775-.233,12.492,12.492,0,0,0-3.689,0,5.568,5.568,0,0,0-.775.233,10.3,10.3,0,0,0-4.1,3.616c-2.056,2.781-3.772,5.178-5.828,7.959-3.078,3.575-6.85,7.562-6.169,13.137.681,2.781,2.4,5.575,5.487,6.37,1.715.4,7.191-1.192,13.019-1.192.07,0,.141.014.212.014s.141-.014.212-.014c5.828,0,11.3,1.589,13.019,1.192,3.078-.794,4.794-3.575,5.487-6.37C180.723,393.574,176.963,389.588,173.873,386.012Z" transform="translate(-137.824 -353.52)"/>
        </g>
      </g>
      <g id="Mask_Group_4" data-name="Mask Group 4" class="cls-5" transform="matrix(0.515, 0.857, -0.857, 0.515, 1499.627, 522.219)">
        <g id="ic_pets_48px-3" data-name="ic_pets_48px" transform="translate(39.825 1305)">
          <ellipse id="Ellipse_57" data-name="Ellipse 57" class="cls-3" cx="5.875" cy="6.849" rx="5.875" ry="6.849" transform="translate(0 10.959)"/>
          <ellipse id="Ellipse_58" data-name="Ellipse 58" class="cls-3" cx="5.875" cy="6.849" rx="5.875" ry="6.849" transform="translate(10.575 0)"/>
          <ellipse id="Ellipse_59" data-name="Ellipse 59" class="cls-3" cx="5.875" cy="6.849" rx="5.875" ry="6.849" transform="translate(24.675 0)"/>
          <ellipse id="Ellipse_60" data-name="Ellipse 60" class="cls-3" cx="5.875" cy="6.849" rx="5.875" ry="6.849" transform="translate(35.25 10.959)"/>
          <path id="Path_145" data-name="Path 145" class="cls-3" d="M173.873,386.012c-2.056-2.781-3.772-5.178-5.828-7.959a10.3,10.3,0,0,0-4.1-3.616,4.749,4.749,0,0,0-.775-.233,12.492,12.492,0,0,0-3.689,0,5.568,5.568,0,0,0-.775.233,10.3,10.3,0,0,0-4.1,3.616c-2.056,2.781-3.772,5.178-5.828,7.959-3.078,3.575-6.85,7.562-6.169,13.137.681,2.781,2.4,5.575,5.487,6.37,1.715.4,7.191-1.192,13.019-1.192.07,0,.141.014.212.014s.141-.014.212-.014c5.828,0,11.3,1.589,13.019,1.192,3.078-.794,4.794-3.575,5.487-6.37C180.723,393.574,176.963,389.588,173.873,386.012Z" transform="translate(-137.824 -353.52)"/>
        </g>
      </g>
      <g id="Mask_Group_3" data-name="Mask Group 3" class="cls-5" transform="matrix(0.857, -0.515, 0.515, 0.857, 387.513, 185.73)">
        <g id="ic_pets_48px-4" data-name="ic_pets_48px" transform="translate(39.825 1305)">
          <ellipse id="Ellipse_53" data-name="Ellipse 53" class="cls-3" cx="5.875" cy="6.849" rx="5.875" ry="6.849" transform="translate(0 10.959)"/>
          <ellipse id="Ellipse_54" data-name="Ellipse 54" class="cls-3" cx="5.875" cy="6.849" rx="5.875" ry="6.849" transform="translate(10.575 0)"/>
          <ellipse id="Ellipse_55" data-name="Ellipse 55" class="cls-3" cx="5.875" cy="6.849" rx="5.875" ry="6.849" transform="translate(24.675 0)"/>
          <ellipse id="Ellipse_56" data-name="Ellipse 56" class="cls-3" cx="5.875" cy="6.849" rx="5.875" ry="6.849" transform="translate(35.25 10.959)"/>
          <path id="Path_144" data-name="Path 144" class="cls-3" d="M173.873,386.012c-2.056-2.781-3.772-5.178-5.828-7.959a10.3,10.3,0,0,0-4.1-3.616,4.749,4.749,0,0,0-.775-.233,12.492,12.492,0,0,0-3.689,0,5.568,5.568,0,0,0-.775.233,10.3,10.3,0,0,0-4.1,3.616c-2.056,2.781-2.853,4.48-4.91,7.261-.5.583.077.017,1.369.823,1.835,1.161-2.015-1.155,5.885,3.688,2.745,1.633,3.53,1.918,4.005,2.407-.006.055-.3.339,1.211.728,1.715.4-3.119-1.892,2.729,1.64.07,0,3.183,1.955,3.253,1.955s6.8,4.127,6.868,4.127c3.3,1.87-.137-.673,1.952,1.173,3.078-.794,2.382.09,3.075-2.7C180.723,393.574,176.963,389.588,173.873,386.012Z" transform="translate(-137.824 -353.52)"/>
        </g>
      </g>
      <g id="Mask_Group_2" data-name="Mask Group 2" class="cls-5" transform="matrix(0.857, -0.515, 0.515, 0.857, 776.513, 105.73)">
        <g id="ic_pets_48px-5" data-name="ic_pets_48px" transform="translate(39.825 1305)">
          <ellipse id="Ellipse_49" data-name="Ellipse 49" class="cls-3" cx="5.875" cy="6.849" rx="5.875" ry="6.849" transform="translate(0 10.959)"/>
          <ellipse id="Ellipse_50" data-name="Ellipse 50" class="cls-3" cx="5.875" cy="6.849" rx="5.875" ry="6.849" transform="translate(10.575 0)"/>
          <ellipse id="Ellipse_51" data-name="Ellipse 51" class="cls-3" cx="5.875" cy="6.849" rx="5.875" ry="6.849" transform="translate(24.675 0)"/>
          <ellipse id="Ellipse_52" data-name="Ellipse 52" class="cls-3" cx="5.875" cy="6.849" rx="5.875" ry="6.849" transform="translate(35.25 10.959)"/>
          <path id="Path_143" data-name="Path 143" class="cls-3" d="M173.873,386.012c-2.056-2.781-3.772-5.178-5.828-7.959a10.3,10.3,0,0,0-4.1-3.616,4.749,4.749,0,0,0-.775-.233,12.492,12.492,0,0,0-3.689,0,5.568,5.568,0,0,0-.775.233,10.3,10.3,0,0,0-4.1,3.616c-2.056,2.781-3.772,5.178-5.828,7.959-3.078,3.575-6.85,7.562-6.169,13.137.681,2.781,2.4,5.575,5.487,6.37,1.715.4,7.191-1.192,13.019-1.192.07,0,.141.014.212.014s.141-.014.212-.014c5.828,0,11.3,1.589,13.019,1.192,3.078-.794,4.794-3.575,5.487-6.37C180.723,393.574,176.963,389.588,173.873,386.012Z" transform="translate(-137.824 -353.52)"/>
        </g>
      </g>
    </g>
  </g>
</svg>
