<svg xmlns="http://www.w3.org/2000/svg" xmlns:xlink="http://www.w3.org/1999/xlink" width="386.823" height="273.78" viewBox="0 0 386.823 273.78"><defs><linearGradient id="a" x1="0.5" y1="1" x2="0.5" gradientUnits="objectBoundingBox"><stop offset="0" stop-color="gray" stop-opacity="0.251"/><stop offset="0.54" stop-color="gray" stop-opacity="0.122"/><stop offset="1" stop-color="gray" stop-opacity="0.102"/></linearGradient><linearGradient id="b" x1="0.5" y1="1" x2="0.5" y2="0" xlink:href="#a"/></defs><g transform="translate(0.005 0.006)"><ellipse cx="34.081" cy="5.474" rx="34.081" ry="5.474" transform="translate(94.729 262.672)" fill="#6c63ff" opacity="0.1"/><ellipse cx="42.528" cy="5.474" rx="42.528" ry="5.474" transform="translate(271.544 262.826)" fill="#6c63ff" opacity="0.1"/><path d="M59.728,396.83h35.5v48.384h-32.9c-.087.5-.171,1-.262,1.5H95.226v39.02c-.059-.017-.112-.038-.168-.059-.937-.371-1.868-.763-2.8-1.182l-.595-.269q-1.4-.661-2.8-1.4c-.325-.171-.651-.35-.972-.532a58.209,58.209,0,0,1-13.949-10.9c-.119-.115-.231-.238-.35-.35-.567-.616-1.123-1.238-1.661-1.875l-.595-.7c-.637-.78-1.252-1.581-1.85-2.392-.087-.119-.171-.238-.262-.35a52.073,52.073,0,0,1-6.016-10.878c-.049-.115-.091-.241-.136-.35q-.721-1.854-1.277-3.743c-.161-.528-.315-1.049-.448-1.6-.049-.161-.091-.318-.129-.476C59.234,440.925,59,432.87,59,424.871v-2.8c0-3.235.038-6.492.094-9.745,0-.843.035-1.682.052-2.529q.073-3.221.21-6.443c.021-.6.049-1.193.08-1.787a10.125,10.125,0,0,1,.052-1.028C59.574,399.3,59.644,398.061,59.728,396.83Z" transform="translate(-54.575 -278.542)" fill="#6c63ff" opacity="0.1"/><path d="M126.372,197.06H106.9A147.61,147.61,0,0,1,117.257,182.8c2.893-3.554,5.946-7.016,9.115-10.353Z" transform="translate(-85.721 -132.643)" fill="#6c63ff" opacity="0.1"/><path d="M96.786,247.09v50.877H61.4c0-.147.024-.3.035-.444.031-.4.063-.8.1-1.2.038-.469.08-.941.126-1.4s.094-1.018.147-1.525.1-1.021.161-1.529.112-1.014.175-1.518.119-1.014.185-1.518c.052-.42.108-.836.164-1.256.08-.591.164-1.186.255-1.773a1.635,1.635,0,0,1,.038-.262,120.988,120.988,0,0,1,2.606-12.774,94.467,94.467,0,0,1,4.39-12.941,97.147,97.147,0,0,1,6.6-12.718Z" transform="translate(-56.135 -181.177)" fill="#6c63ff" opacity="0.1"/><path d="M186.8,176.914V225.3h75.819V176.914Zm0,49.881v41.553c.434.091.864.178,1.291.252.581.112,1.158.213,1.749.3.112.017.227.035.35.045.231.038.469.07.7.1.584.08,1.165.147,1.749.2.276.028.556.052.836.073l.675.052h0c.367.028.731.049,1.091.059.224,0,.448.021.679.028h2.494c.3,0,.6,0,.9-.028h.021a4.719,4.719,0,0,0,.626-.028,1.479,1.479,0,0,0,.175,0,3.613,3.613,0,0,0,.518-.025h.122l1.172-.091c.385-.035.773-.08,1.165-.122l.8-.094a69.759,69.759,0,0,0,9.6-2.043c7.072-1.973,13.991-4.732,21.06-6.754,9.139-2.606,19.237-3.886,28.069-.7v-32.78Zm75.819-103.748V58.629a97.471,97.471,0,0,0-24.634,2.889C218.786,66.342,201.56,76.8,186.8,90.165v32.878h3.805v1.493H186.8v50.884h75.819V124.54H206.23v-1.494Zm97.386-21.759a31.4,31.4,0,0,1-13.742-3.994c-8.167-4.442-14.69-11.3-21.979-17.09a100.914,100.914,0,0,0-53.2-21.137v63.98H379.323l.269-.283Zm9.86-1.749,10.455,11.472V96.53a41.479,41.479,0,0,0-10.441,2.994ZM380.32,278.666V226.795H358.043c-.059-.22-.119-.444-.189-.668.066.224.122.448.185.668H271.1v37.513c.825.612,1.64,1.256,2.448,1.91h0c.871.7,1.731,1.438,2.6,2.162l.871.72c.416.35.836.7,1.259,1.028q1.259,1.021,2.543,2.015c.423.35.857.665,1.287.993a175.312,175.312,0,0,0,21.556,14.1q2.529,1.4,5.1,2.732c1.144.584,2.294,1.165,3.449,1.728q2.6,1.27,5.247,2.448h0a192.666,192.666,0,0,0,51.066,14.876q5.873.867,11.791,1.364V278.662h.35ZM271.1,124.54v50.881H380.334V124.54Zm0,52.374V225.3H380.334V176.914ZM388.813,96.467V112.62l13.344-14.641q-6.632-1.07-13.344-1.528Zm0,80.464V225.3H495.055V176.914ZM494.667,282.506l.374-55.711H388.813v84.144a190.524,190.524,0,0,0,20.531-.245h.119q4.9-.308,9.748-.9h.073a179.516,179.516,0,0,0,50.087-13.365m46.169-111.552c-.4-.941-.815-1.875-1.238-2.8-.79-1.749-1.626-3.449-2.487-5.149h-8.29V225.3h20.958c-.011-13.7-3.477-27.688-8.933-40.437Zm-12.015,41.93v47.918A68.645,68.645,0,0,0,518.01,255.2a67.155,67.155,0,0,0,6.457-28.391Zm0-63.98v12.592h7.513a136.42,136.42,0,0,0-7.5-12.609ZM431.474,105.96c-.553-.21-1.105-.423-1.661-.63a151.664,151.664,0,0,0-17.947-5.393l-20.42,22.41h0l-.392.416.262.287h72.675a155.441,155.441,0,0,0-32.508-17.107Zm34.648,18.6H390.3l-1.49,1.364v49.5H495.069V151.444a151.379,151.379,0,0,0-28.936-26.9Z" transform="translate(-137.674 -58.63)" fill="#6c63ff" opacity="0.1"/><path d="M96.786,320.46v25.215H61.4c0-.147.024-.3.035-.444.031-.4.063-.8.1-1.2.038-.469.08-.941.126-1.4s.094-1.018.147-1.525.1-1.021.161-1.529.112-1.014.175-1.518.119-1.014.185-1.518c.052-.42.108-.836.164-1.256.08-.591.164-1.186.255-1.773a1.635,1.635,0,0,1,.038-.262,120.986,120.986,0,0,1,2.606-12.774Z" transform="translate(-56.135 -228.884)" fill="#6c63ff" opacity="0.1"/><path d="M59.728,396.83h35.5v48.384h-32.9c-.087.5-.171,1-.262,1.5H95.226v39.02c-.059-.017-.112-.038-.168-.059-.937-.371-1.868-.763-2.8-1.182l-.595-.269q-1.4-.661-2.8-1.4c-.325-.171-.651-.35-.972-.532a58.209,58.209,0,0,1-13.949-10.9c-.119-.115-.231-.238-.35-.35-.567-.616-1.123-1.238-1.661-1.875l-.595-.7c-.637-.78-1.252-1.581-1.85-2.392-.087-.119-.171-.238-.262-.35a52.073,52.073,0,0,1-6.016-10.878c-.049-.115-.091-.241-.136-.35q-.721-1.854-1.277-3.743c-.161-.528-.315-1.049-.448-1.6-.049-.161-.091-.318-.129-.476C59.234,440.925,59,432.87,59,424.871v-2.8c0-3.235.038-6.492.094-9.745,0-.843.035-1.682.052-2.529q.073-3.221.21-6.443c.021-.6.049-1.193.08-1.787a10.125,10.125,0,0,1,.052-1.028C59.574,399.3,59.644,398.061,59.728,396.83Z" transform="translate(-54.575 -278.542)" fill="#6c63ff" opacity="0.1"/><path d="M166.251,181.84v43.6H139.56v-43.6h3.805V167.08h15.621v14.76Z" transform="translate(-90.434 -108.645)" fill="#6c63ff" opacity="0.1"/><rect width="26.687" height="48.384" transform="translate(49.129 118.284)" fill="#6c63ff" opacity="0.1"/><path d="M186.8,539.44h26.691v40.223a69.655,69.655,0,0,1-9.6,2.039l-.8.1c-.392.045-.78.084-1.165.122s-.783.066-1.172.091h-.122c-.168,0-.35.021-.514.024h-.178c-.21,0-.42.021-.63.028h0c-.3.018-.595.021-.9.024h-2.476l-.675-.024c-.35,0-.728-.038-1.091-.063h0l-.672-.049-.836-.077c-.588-.052-1.172-.119-1.749-.2l-.7-.1-.35-.049c-.584-.091-1.161-.189-1.749-.3-.43-.073-.857-.164-1.291-.252Z" transform="translate(-137.674 -371.272)" fill="#6c63ff" opacity="0.1"/><rect width="22.007" height="48.74" transform="translate(220.653 68.047)" fill="#6c63ff" opacity="0.1"/><path d="M489.816,338.19v48.387H380.58V365.706h58.184v12.312h29.041V338.19Z" transform="translate(-247.153 -219.906)" fill="#6c63ff" opacity="0.1"/><path d="M537.4,590.076h-.35v31.742q-5.911-.5-11.787-1.361a192.673,192.673,0,0,1-51.087-14.907q-7.041-3.169-13.795-6.918a176.019,176.019,0,0,1-21.56-14.1q-2.574-1.973-5.082-4.036c-1.158-.955-2.308-1.934-3.473-2.886-.808-.654-1.623-1.3-2.448-1.913V538.2h86.935c-.059-.224-.119-.448-.182-.668.067.22.129.444.189.668h22.291v51.857C537.172,590.058,537.287,590.069,537.4,590.076Z" transform="translate(-294.393 -370.03)" fill="#6c63ff" opacity="0.1"/><path d="M877.56,209.85H863.22v-4.456h6.429V192.12q.836.3,1.665.626v12.648h6.247Z" transform="translate(-577.503 -145.433)" fill="#6c63ff" opacity="0.1"/><path d="M847.829,297.967h-70.4l.025.017-.031-.017H764.36v-48.74h3.7v36.026h16.911V263.917h13.97V247.09h14.341v16.841h13.97v21.336h20.577Z" transform="translate(-513.222 -181.177)" fill="#6c63ff" opacity="0.1"/><path d="M764.36,396.82v48.387h83.469V396.82ZM870.487,502.163l.115-38.3H847.829V446.725H764.36v84.119a190.54,190.54,0,0,0,20.531-.245h.119q4.9-.308,9.748-.9h.073a179.519,179.519,0,0,0,50.087-13.365" transform="translate(-513.222 -278.536)" fill="#6c63ff" opacity="0.1"/><path d="M1093.839,539.44h19.472a67.367,67.367,0,0,1-6.46,28.387,68.667,68.667,0,0,1-14.48,19.535v-30.78h1.469Z" transform="translate(-726.504 -371.272)" fill="#6c63ff" opacity="0.1"/><path d="M1116.052,459.987H1096.57V419.55h10.542C1112.568,432.3,1116.035,446.29,1116.052,459.987Z" transform="translate(-729.235 -293.316)" fill="#6c63ff" opacity="0.1"/><rect width="11.791" height="15.281" transform="translate(230.873 81.597)" fill="#6c63ff" opacity="0.1"/><rect width="11.791" height="3.519" transform="translate(230.873 113.272)" fill="#6c63ff" opacity="0.1"/><rect width="11.791" height="10.266" transform="translate(230.873 118.284)" fill="#6c63ff" opacity="0.1"/><rect width="11.791" height="15.281" transform="translate(230.873 144.947)" fill="#6c63ff" opacity="0.1"/><rect width="11.791" height="15.281" transform="translate(230.873 176.622)" fill="#6c63ff" opacity="0.1"/><path d="M718.207,665.9a1.932,1.932,0,0,1,.35.021h-.35v3.55H706.42v-15.3h11.787Z" transform="translate(-475.547 -445.873)" fill="#6c63ff" opacity="0.1"/><path d="M718.207,744.71v11.8q-5.911-.5-11.787-1.361V744.71Z" transform="translate(-475.547 -504.745)" fill="#6c63ff" opacity="0.1"/><rect width="50.531" height="1.123" transform="translate(133.427 165.549)" fill="#6c63ff" opacity="0.1"/><rect width="50.531" height="4.302" transform="translate(133.427 168.165)" fill="#6c63ff" opacity="0.1"/><rect width="50.531" height="6.918" transform="translate(133.427 186.57)" fill="#6c63ff" opacity="0.1"/><path d="M482.893,652.15v6.918H443.369q-2.574-1.966-5.086-4.036c-1.158-.955-2.3-1.934-3.473-2.882Z" transform="translate(-298.938 -444.559)" fill="#6c63ff" opacity="0.1"/><path d="M538.884,712.22v6.911h-4.173q-7.034-3.172-13.791-6.922Z" transform="translate(-354.929 -483.612)" fill="#6c63ff" opacity="0.1"/><rect width="9.947" height="9.947" transform="translate(271.673 122.975)" fill="#6c63ff" opacity="0.1"/><rect width="9.947" height="9.947" transform="translate(56.293 76.627)" fill="#6c63ff" opacity="0.1"/><rect width="9.947" height="9.947" transform="translate(56.293 99.732)" fill="#6c63ff" opacity="0.1"/><rect width="9.947" height="9.947" transform="translate(56.293 122.838)" fill="#6c63ff" opacity="0.1"/><rect width="9.947" height="9.947" transform="translate(56.293 145.94)" fill="#6c63ff" opacity="0.1"/><rect width="9.947" height="9.947" transform="translate(56.293 169.046)" fill="#6c63ff" opacity="0.1"/><rect width="9.947" height="9.947" transform="translate(56.293 192.152)" fill="#6c63ff" opacity="0.1"/><rect width="9.947" height="9.947" transform="translate(309.648 122.975)" fill="#6c63ff" opacity="0.1"/><rect width="9.947" height="9.947" transform="translate(271.673 147.511)" fill="#6c63ff" opacity="0.1"/><rect width="9.947" height="9.947" transform="translate(309.648 147.511)" fill="#6c63ff" opacity="0.1"/><rect width="9.947" height="9.947" transform="translate(271.673 172.044)" fill="#6c63ff" opacity="0.1"/><rect width="9.947" height="9.947" transform="translate(309.648 172.044)" fill="#6c63ff" opacity="0.1"/><rect width="9.947" height="9.947" transform="translate(271.673 196.58)" fill="#6c63ff" opacity="0.1"/><rect width="9.947" height="9.947" transform="translate(309.648 196.58)" fill="#6c63ff" opacity="0.1"/><rect width="9.947" height="9.947" transform="translate(271.673 221.116)" fill="#6c63ff" opacity="0.1"/><rect width="9.947" height="9.947" transform="translate(309.648 221.116)" fill="#6c63ff" opacity="0.1"/><path d="M775.83,708.745V702.33h9.944v5.5Z" transform="translate(-504.157 -456.681)" fill="#6c63ff" opacity="0.1"/><path d="M65.24,357v5.691H99.283V357Zm3.393,5.334H65.856V357.35h2.8Zm3.389,0h-2.8V357.35h2.8Zm3.382,0h-2.8V357.35h2.8Zm3.389,0H76V357.35h2.8Zm3.386,0h-2.8V357.35h2.8Zm3.389,0h-2.8V357.35h2.8Zm3.389,0h-2.8V357.35h2.8Zm3.386,0h-2.8V357.35h2.8Zm3.386,0h-2.8V357.35h2.8Zm3.386,0h-2.8V357.35h2.8Z" transform="translate(-58.632 -252.644)" fill="#6c63ff" opacity="0.1"/><path d="M65.24,404.34v5.691H99.283V404.34Zm3.393,5.331H65.856V404.7h2.8Zm3.389,0h-2.8V404.7h2.8Zm3.382,0h-2.8V404.7h2.8Zm3.389,0H76V404.7h2.8Zm3.386,0h-2.8V404.7h2.8Zm3.389,0h-2.8V404.7h2.8Zm3.389,0h-2.8V404.7h2.8Zm3.386,0h-2.8V404.7h2.8Zm3.386,0h-2.8V404.7h2.8Zm3.386,0h-2.8V404.7h2.8Z" transform="translate(-58.632 -283.425)" fill="#6c63ff" opacity="0.1"/><path d="M65.24,451.7v5.7H99.283v-5.7Zm3.393,5.33H65.856v-4.974h2.8Zm3.389,0h-2.8v-4.974h2.8Zm3.382,0h-2.8v-4.974h2.8Zm3.389,0H76v-4.974h2.8Zm3.386,0h-2.8v-4.974h2.8Zm3.389,0h-2.8v-4.974h2.8Zm3.389,0h-2.8v-4.974h2.8Zm3.386,0h-2.8v-4.974h2.8Zm3.386,0h-2.8v-4.974h2.8Zm3.386,0h-2.8v-4.974h2.8Z" transform="translate(-58.632 -314.22)" fill="#6c63ff" opacity="0.1"/><path d="M65.24,499.06v5.684H99.283V499.06Zm3.393,5.33H65.856v-4.977h2.8Zm3.389,0h-2.8v-4.977h2.8Zm3.382,0h-2.8v-4.977h2.8Zm3.389,0H76v-4.977h2.8Zm3.386,0h-2.8v-4.977h2.8Zm3.389,0h-2.8v-4.977h2.8Zm3.389,0h-2.8v-4.977h2.8Zm3.386,0h-2.8v-4.977h2.8Zm3.386,0h-2.8v-4.977h2.8Zm3.386,0h-2.8v-4.977h2.8Z" transform="translate(-58.632 -345.015)" fill="#6c63ff" opacity="0.1"/><path d="M65.66,546.41c.136.535.29,1.07.451,1.6v-1.242h2.8v4.974h-1.5c.045.115.091.241.136.35H99.556v-5.68Zm6.646,5.33h-2.8v-4.974h2.8Zm3.382,0h-2.8v-4.974h2.8Zm3.389,0H76.272v-4.974h2.8Zm3.386,0h-2.8v-4.974h2.8Zm3.389,0h-2.8v-4.974h2.8Zm3.389,0h-2.8v-4.974h2.8Zm3.386,0h-2.8v-4.974h2.8Zm3.386,0h-2.8v-4.974h2.8Zm3.386,0H96.6v-4.974h2.8Z" transform="translate(-58.905 -375.804)" fill="#6c63ff" opacity="0.1"/><path d="M88.26,593.77c.087.112.171.238.262.35h1.85v2.389c.2.238.4.476.6.7v-3.1h2.8V599.1H92.636c.112.115.22.238.35.35h21.276V593.77Zm8.888,5.327h-2.8v-4.97h2.8Zm3.389,0h-2.8v-4.97h2.8Zm3.389,0h-2.8v-4.97h2.8Zm3.386,0h-2.8v-4.97h2.8Zm3.386,0h-2.8v-4.97h2.8Zm3.386,0h-2.8v-4.97h2.8Z" transform="translate(-73.6 -406.599)" fill="#6c63ff" opacity="0.1"/><path d="M141.65,641.12c.318.182.644.35.972.532v-.175h2.8v1.574l.595.276v-1.85h2.8V644.5a.873.873,0,0,0,.168.063V641.12Z" transform="translate(-108.316 -437.387)" fill="#6c63ff" opacity="0.1"/><path d="M408.98,295.165ZM387.435,398.4Zm-22.48-52.525c.066.224.122.448.185.668h0C365.084,346.319,365.025,346.095,364.955,345.871Zm44.025-50.716ZM197.72,242.78v1.493h15.624V242.78ZM387.435,398.4Zm-22.48-52.525c.066.224.122.448.185.668h0C365.084,346.319,365.025,346.095,364.955,345.871Zm44.025-50.716ZM387.435,398.385Zm-22.48-52.514c.066.224.122.448.185.668h0C365.084,346.319,365.025,346.095,364.955,345.871Z" transform="translate(-144.775 -178.374)" fill="#6c63ff" opacity="0.1"/><path d="M370.2,295.157s-1.378-.192-1.378-2.2a31.452,31.452,0,0,0-.986-5.757h0c0-.017-.853-6.53-2.032-7.565s-2.693-7.114-2.693-7.114-.259-3.3-.787-4.008a34.06,34.06,0,0,1-2.294-4.928c-1.053-2.48-5.442-4.2-5.442-4.2s-7.936-4.6-10.185-6.1h0a3.45,3.45,0,0,1-.57-.43c-.392-.514-2.1-.525-2.1-.525a34.384,34.384,0,0,1-.406-3.592,2.736,2.736,0,0,0-.017-.378,12.1,12.1,0,0,0,5.32-6.583c.042-.133.077-.273.115-.406a1.137,1.137,0,0,0,.682-.616,12.838,12.838,0,0,1,.458-1.4,5.269,5.269,0,0,1,1.294-1.137,4.9,4.9,0,0,0,1.347-3.984c-.035-1.172-.224-2.354-.15-3.519l.021-.294c.021-.175.046-.35.077-.518.171-.867.546-1.686.756-2.546a3.276,3.276,0,0,0-.259-2.571c-.717-1.088-2.211-1.3-3.522-1.417-1.487-.126-2.816.038-3.767-1.2a13.43,13.43,0,0,0-1.5-1.808c-.2-.182-2.1-1.343-2.1-1.42a8.5,8.5,0,0,0-5.929-.455c-.986.287-1.917.755-2.917.99-2.158.511-4.641-.042-6.474,1.193a7.609,7.609,0,0,0-2.207,2.9q-.7,1.34-1.42,2.676a17.334,17.334,0,0,0-1.885,4.578,7.271,7.271,0,0,0-.126,1.07h0v.57a1.883,1.883,0,0,0,.021.35c.021.108.017.143.028.217s.028.238.049.35.063.308.1.462c.017.066.042.129.063.192.035.119.077.234.122.35.025.059.049.122.077.182a3.28,3.28,0,0,0,.178.35c.028.049.049.094.077.14a4.646,4.646,0,0,0,.322.469c.749.934,1.85,1.528,2.665,2.4v.392a11.973,11.973,0,0,0,5.449,9.776c0,.133.017.269.025.4a20.017,20.017,0,0,1-.039,3.116,1.469,1.469,0,0,0-1.161-.518,1.675,1.675,0,0,0-.448.038l-.031-.024h0v.031c-.77.189-1.717.99-2.623,3.267,0,0-2.756,3.106-4.855,2.977s-7.412,3.232-7.412,3.232-5.184,3.365-6.3,6.793a47.857,47.857,0,0,1-2.232,5.694l-6.408,13.2h0l-1.182,10.476a48.613,48.613,0,0,1,.525,5.369c-.129.71,2.69,7.114,2.69,7.114s9.314,16.366,13.12,17.205l.273-.192a2.231,2.231,0,0,0,.514.192l.783-.553a8.537,8.537,0,0,1-.059,1.847c-.525,1.616.2,12.161,1.112,14.229s.591,29.171.591,29.171l-.129,2.392a1.014,1.014,0,0,0,.031.21l-.031.567.094.049a6.736,6.736,0,0,1-.094,2.277,25.318,25.318,0,0,0-.462,4.015s-2.62,16.747-1.378,20.112,2.3,7.051,2.3,7.051,1.312,4.2.063,4.914-4.8,1.92-4.068,3.669c.665,1.616,3.186,5.946,3.561,6.579l-.031.332-.514,5.572a7,7,0,0,0,.591,2.127,3.664,3.664,0,0,0,3.739,2.336c.35-.025.755-.066,1.147-.119a49.577,49.577,0,0,0,8.5-2.211,3.464,3.464,0,0,1-.665-.549h0a1.92,1.92,0,0,1-.584-1.4c.056-1.014-1.843-5.848-2.315-7.037-.073-.171-.112-.269-.112-.269s4.33-4.526,3.61-8.538c0,0-4.792-2.8-3.214-4.334a48.864,48.864,0,0,0,4.4-5.946s.129-16.492,0-18.954a20.39,20.39,0,0,1,.241-5.117c.052-.255.115-.5.182-.749a45.657,45.657,0,0,0,6.59.5c.8,0,1.623,0,2.448-.049q0,.35.031.755c.182,4.085.521,11.249.8,13.91.392,3.816,2.557,14.1,2.557,14.1s-4.131,2.651.721,9.185c0,0,0,2.368-.322,2.711h0a29.649,29.649,0,0,0-.829,3.414,6.019,6.019,0,0,0,.042,3.123c.787,1.546,5.509,1.42,5.509,1.42h0l.115-.021a6.768,6.768,0,0,1,5,1.507c1.794,1.441,8.6.808,12.291.35,1.445-.182,2.41-.35,2.41-.35a1.4,1.4,0,0,0,.049-.5h0c-.038-.906-.749-2.893-5.561-4.666,0,0-4.526-3.043-4.463-5.694h-.619a4.938,4.938,0,0,1,.626,0s-1.773-6.471-1.049-7-1.445-7.695-1.445-7.695-1.242-12.032-1.308-12.875a7.345,7.345,0,0,1,.325-2.134l-.325-6.6s-.063-2.193,0-2.907a14.517,14.517,0,0,0-.15-1.85c-.031-.245-.063-.5-.1-.752,1.7-.43,2.8-.829,2.8-.829l-.2-22.962c1.441-2.8,1.707-8.937,1.7-13.291,0-2.8-.126-4.869-.126-4.869l1.969-3.214s.455-3.847-.266-4.69a.808.808,0,0,1,.087-1.1,3.661,3.661,0,0,1,.43-.294s-.021-.031-.045-.077a3.472,3.472,0,0,1,.437-.311s-.7-1.084-.073-1.542c.588.4,1.112.7,1.511.944-.028.255-.056.4-.056.4l.168-.35.619.35s3.085-6.145,3.018-7.051,2.1-4.722,2.1-4.722a4.725,4.725,0,0,1,1.445-2.844c1.182-.839.916-6.922.916-6.922a14.913,14.913,0,0,1,1.116-4.463C371.7,296.9,370.2,295.157,370.2,295.157Zm-59.027-2.7.059,1.466-.6-.969Z" transform="translate(-208.432 -162.365)" fill="url(#a)"/><path d="M471.663,496.619l-.756,3.218s-6.051-3.088-7.142-7.013,1.826-5.414,1.826-5.414l5.638,2.389Z" transform="translate(-317.607 -337.44)" fill="#fff"/><path d="M471.663,496.619l-.756,3.218s-6.051-3.088-7.142-7.013,1.826-5.414,1.826-5.414l5.638,2.389Z" transform="translate(-317.607 -337.44)" opacity="0.1"/><path d="M364.26,803.162a43.484,43.484,0,0,1-9.444,2.315,3.593,3.593,0,0,1-3.669-2.323,7.029,7.029,0,0,1-.577-2.116l.5-5.544.266-2.952,8.174-2.123,1.158,3.54.108.269c.465,1.182,2.329,5.992,2.274,7a1.91,1.91,0,0,0,.574,1.382A3.326,3.326,0,0,0,364.26,803.162Z" transform="translate(-244.162 -534.467)" fill="#fff"/><path d="M452.3,799.66a1.4,1.4,0,0,1-.049.5s-11.969,2-14.418,0a6.485,6.485,0,0,0-5.037-1.476s-4.631.126-5.4-1.4a6.072,6.072,0,0,1-.038-3.106,29.606,29.606,0,0,1,.811-3.4l.185-.147,1.1-.885,12.9-.381h.1c-.063,2.637,4.379,5.663,4.379,5.663C451.545,796.781,452.241,798.758,452.3,799.66Z" transform="translate(-293.974 -533.784)" fill="#fff"/><path d="M452.3,808.6a1.425,1.425,0,0,1-.052.5s-11.966,2-14.414,0a6.485,6.485,0,0,0-5.033-1.476s-4.634.126-5.4-1.4a6.066,6.066,0,0,1-.042-3.106c1.784.178,4.6.623,5.7,1.682,1.672,1.612,4.5,3.221,6.243,3.347C440.664,808.237,448.8,808.5,452.3,808.6Z" transform="translate(-293.977 -542.725)" opacity="0.1"/><path d="M365.339,825.849a43.481,43.481,0,0,1-9.444,2.315,3.584,3.584,0,0,1-3.666-2.326c1.424.479,3.4.983,4.439.521,1.231-.546,5.6-.9,8.045-1.049A3.449,3.449,0,0,0,365.339,825.849Z" transform="translate(-245.242 -557.153)" opacity="0.1"/><path d="M396.152,313.986c-4.617-1.794-10.556-7.723-9.073-10.493a6.2,6.2,0,0,0,.577-2.225,20.309,20.309,0,0,0,.042-3.148,43.121,43.121,0,0,0-.619-5.121s14.414.325,13.575,2.448a7.938,7.938,0,0,0-.217,2.914c.066,1.21.241,2.578.423,3.736.252,1.588.5,2.8.5,2.8s-.881,1.235-1.4,1.3S402.777,316.543,396.152,313.986Z" transform="translate(-267.751 -211.029)" fill="#cf6f80"/><path d="M361.676,794.229l-.108.119c-4.309-5.212-9.521,1.284-9.521,1.284l-.077-.136.266-2.952,8.174-2.123,1.158,3.54Z" transform="translate(-245.073 -534.467)" opacity="0.1"/><path d="M444.3,789.711s-3.148-.066-4.827,1.417-9.794.322-9.444,0a1.151,1.151,0,0,0,.182-.532l1.1-.885,12.9-.381C444.262,789.564,444.3,789.711,444.3,789.711Z" transform="translate(-295.822 -533.758)" opacity="0.1"/><path d="M360.42,660.568a9.728,9.728,0,0,0-.532,1.794,20.536,20.536,0,0,0-.241,5.093c.129,2.448,0,18.856,0,18.856a50.2,50.2,0,0,1-4.309,5.918c-1.542,1.542,3.148,4.313,3.148,4.313.7,3.987-3.54,8.492-3.54,8.492-4.309-5.212-9.521,1.287-9.521,1.287s-2.833-4.9-3.54-6.646,2.767-2.959,3.987-3.669-.059-4.9-.059-4.9-1.032-3.669-2.256-7.016,1.35-20.01,1.35-20.01a25.823,25.823,0,0,1,.451-3.991,6.674,6.674,0,0,0,.094-2.266c-.021-.255-.045-.469-.063-.612s-.031-.21-.031-.21l.049-.084,1.749-3.26S361.259,658.515,360.42,660.568Z" transform="translate(-238.454 -445.541)" fill="#6c63ff"/><path d="M437.272,707.469s-3.148-.066-4.827,1.4-9.794.322-9.444,0,.322-2.7.322-2.7c-4.76-6.5-.7-9.136-.7-9.136S420.5,686.8,420.112,683c-.269-2.651-.6-9.776-.78-13.844-.077-1.749-.122-2.952-.122-2.952l3.889-.783.5-.1,9.381-1.882s.259,1.749.434,3.179a14.858,14.858,0,0,1,.147,1.843c-.063.7,0,2.889,0,2.889l.318,6.565a7.459,7.459,0,0,0-.318,2.123c.063.836,1.284,12.805,1.284,12.805s2.123,7.142,1.4,7.656S437.272,707.469,437.272,707.469Z" transform="translate(-288.794 -451.9)" fill="#6c63ff"/><path d="M401.085,295.448a7.938,7.938,0,0,0-.217,2.914,11.98,11.98,0,0,1-12.739-.238A43.115,43.115,0,0,0,387.51,293S401.924,293.318,401.085,295.448Z" transform="translate(-268.182 -211.029)" opacity="0.1"/><path d="M397.761,255.649a11.847,11.847,0,0,1-.588,3.711,11.969,11.969,0,0,1-23.344-3.424v-.287a11.968,11.968,0,1,1,23.936,0Z" transform="translate(-259.287 -178.959)" fill="#cf6f80"/><path d="M396.152,329.358c-4.617-1.794-10.556-7.723-9.073-10.493a6.2,6.2,0,0,0,.577-2.225l6.32,5.194,3.91,3.207,2.973-7.569c.252,1.588.5,2.8.5,2.8s-.881,1.235-1.4,1.3S402.777,331.914,396.152,329.358Z" transform="translate(-267.751 -226.4)" opacity="0.1"/><path d="M357.2,292.649l-5.278,88.666-6.883.451L327.21,330.354l2.924-61.038.616-12.9,7.926,6.509,3.914,3.207,3.06-7.789,5.691,4.96Z" transform="translate(-212.45 -166.736)" fill="#6c63ff"/><path d="M367.058,660.62a9.734,9.734,0,0,0-.532,1.794,50.719,50.719,0,0,1-14.431-4.509l-.094-.049.031-.563.017-.294,1.749-3.26S367.9,658.567,367.058,660.62Z" transform="translate(-245.092 -445.593)" opacity="0.1"/><path d="M423.141,672.455a35.423,35.423,0,0,1-3.868.441c-.077-1.749-.122-2.952-.122-2.952l3.889-.783Z" transform="translate(-288.755 -455.62)" opacity="0.1"/><path d="M441.515,666.669a27.149,27.149,0,0,1-9.766.92l-.049-2.218,9.381-1.882S441.34,665.221,441.515,666.669Z" transform="translate(-296.916 -451.933)" opacity="0.1"/><path d="M347.351,441.4c-14.341,2.448-27.474-4.571-27.474-4.571l.126-2.378s.325-26.964-.577-29.031-1.605-12.55-1.095-14.159-1.864-25.736-1.864-25.736l-.385-9.794L302,350.025l6.3-13.123a47.354,47.354,0,0,0,2.19-5.666c1.095-3.407,6.177-6.754,6.177-6.754s5.212-3.344,7.272-3.218,4.76-2.959,4.76-2.959c1.994-5.082,3.8-2.781,3.8-2.781a4.538,4.538,0,0,1-.1.752c-.7,5.579,11.312,23.207,11.483,23.518h0l1.144,27.863,1.158,35.26Z" transform="translate(-212.581 -225.336)" opacity="0.1"/><path d="M346.232,441.359c-14.341,2.448-27.478-4.572-27.478-4.572l.129-2.378s.325-26.964-.581-29.031-1.605-12.55-1.091-14.159-1.864-25.736-1.864-25.736l-.388-9.794-14.089-5.726,6.3-13.123a48.1,48.1,0,0,0,2.19-5.666c1.091-3.407,6.177-6.754,6.177-6.754s5.212-3.344,7.268-3.218,4.76-2.959,4.76-2.959c2-5.082,4.2-2.781,4.2-2.781,0,.241-.21.35-.1.752,1.539,5.411,10.927,23.207,11.1,23.518h0l1.158,27.863,1.158,35.26Z" transform="translate(-211.846 -225.297)" fill="#fff"/><path d="M394.951,342.034c-1.542-.644-9.713-9.972-9.713-9.972v-2.123c-.3-.7-2.064-.273-3.5.217l.616-12.9.7.581C384.587,323.248,394.772,341.723,394.951,342.034Z" transform="translate(-264.43 -226.803)" opacity="0.1"/><path d="M396.054,339.824c-1.546-.644-9.717-9.972-9.717-9.972v-2.123c-.3-.7-2.064-.273-3.5.217l.619-12.9.7.581C385.694,321.038,395.883,339.516,396.054,339.824Z" transform="translate(-265.145 -225.366)" fill="#fff"/><path d="M351.647,516.978c.192,0,9.972-1.028,9.972-1.028s5.922,11.644,5.533,14.477-1.091,5.341-3.473,4.9-12.819.35-12.819.35Z" transform="translate(-244.351 -355.998)" opacity="0.1"/><path d="M350.537,514.768c.192,0,9.972-1.028,9.972-1.028s5.918,11.647,5.533,14.477-1.095,5.341-3.473,4.9-12.819.35-12.819.35Z" transform="translate(-243.629 -354.561)" fill="#fff"/><path d="M363.128,501.05s8.975,4.823,9.167,6.3-4.568-.644-5.6-.9a12.806,12.806,0,0,0-2.06-.322l-6.859.185Z" transform="translate(-248.851 -346.309)" fill="#cf6f80"/><circle cx="0.944" cy="0.944" r="0.944" transform="translate(127.072 113.944)" opacity="0.1"/><circle cx="0.944" cy="0.944" r="0.944" transform="translate(127.072 113.559)" fill="#3f3d56"/><circle cx="0.944" cy="0.944" r="0.944" transform="translate(128.81 154.825)" opacity="0.1"/><circle cx="0.944" cy="0.944" r="0.944" transform="translate(128.81 154.436)" fill="#3f3d56"/><circle cx="0.944" cy="0.944" r="0.944" transform="translate(128.013 134.384)" opacity="0.1"/><circle cx="0.944" cy="0.944" r="0.944" transform="translate(128.013 133.999)" fill="#3f3d56"/><path d="M444.521,387.463s.644.965,0,1.417.063,1.542.063,1.542-1.605.941-.9,1.787.259,4.669.259,4.669l-1.931,3.2s.115,2.06.122,4.844c0,4.344-.255,10.451-1.668,13.235l.2,22.843s-6.761,2.469-12.42,1.717L427.4,406.06s1.224-20.787,1.675-24.774a41.514,41.514,0,0,0,.322-6.243,69.754,69.754,0,0,0-.839-9.136s-.7-12.546-.77-16.019c-.031-1.661.056-6.509.154-11.119.108-5.04.231-9.794.231-9.794l-1.277-10.1s1.277-.129,1.661.385a3.681,3.681,0,0,0,.56.43h0c2.2,1.49,9.989,6.072,9.989,6.072s4.309,1.714,5.341,4.169a36.332,36.332,0,0,0,2.249,4.9c.5.7.773,3.987.773,3.987s1.483,6.051,2.641,7.076,2,7.545,2,7.545l-10.231,8.045s-.9,13.382-1.091,13.9S444.521,387.463,444.521,387.463Z" transform="translate(-293.795 -227.843)" fill="#fff"/><path d="M444.864,387.256s.64.965,0,1.417.059,1.542.059,1.542-1.595.951-.9,1.8.259,4.669.259,4.669l-1.931,3.2s.115,2.06.126,4.844c0,4.344-.255,10.451-1.668,13.235l.192,22.843s-6.772,2.469-12.424,1.717l-.836-36.656s1.224-20.787,1.675-24.774a41.13,41.13,0,0,0,.318-6.243,70.188,70.188,0,0,0-.836-9.136s-.7-12.546-.773-16.019c-.031-1.661.059-6.509.154-11.119.108-5.04.231-9.794.231-9.794L426.83,318.54s1.686,0,2.074.521a3.319,3.319,0,0,0,.56.43h0c2.2,1.49,9.993,6.072,9.993,6.072s4.306,1.714,5.337,4.169a35.751,35.751,0,0,0,2.253,4.9c.5.7.77,3.987.77,3.987s1.483,6.051,2.641,7.076,1.994,7.531,1.994,7.531l-10.231,8.045s-.9,13.382-1.095,13.9S444.864,387.256,444.864,387.256Z" transform="translate(-293.749 -227.636)" fill="#fff"/><path d="M433.333,333.171l.923,2.693-4.862,4.9c.108-5.037.231-9.794.231-9.794L427.94,320.73s1.686,0,2.074.521a3.193,3.193,0,0,0,.56.427h0l4.134,11.927Z" transform="translate(-294.471 -229.06)" opacity="0.1"/><path d="M432.223,330.961l.927,2.693-4.862,4.9c.108-5.04.231-9.794.231-9.794L426.83,318.52s1.689,0,2.074.521a3.5,3.5,0,0,0,.56.43h0L433.6,331.4Z" transform="translate(-293.749 -227.623)" fill="#fff"/><path d="M397.761,255.649a11.847,11.847,0,0,1-.588,3.711.5.5,0,0,1-.378-.094c-.091-3.148-1.64-6.1-3.547-8.618a9.055,9.055,0,0,0-1.924-1.994,3.764,3.764,0,0,0-2.609-.738c-1.049.143-1.976.857-3.036.948-1.4.115-2.651-.853-4.04-.9a3.97,3.97,0,0,0-2.97,1.378,8.147,8.147,0,0,0-1.591,2.952,17.273,17.273,0,0,0-.888,5.093c-.017.979-.112,2.207-1.021,2.564a5.225,5.225,0,0,0-1.319-3.991l-.021-.021v-.287a11.968,11.968,0,1,1,23.936,0Z" transform="translate(-259.287 -178.959)" opacity="0.1"/><path d="M383.956,222.113a8.24,8.24,0,0,0-5.813-.455c-.969.287-1.882.752-2.865.986-2.1.507-4.547-.042-6.348,1.186a7.592,7.592,0,0,0-2.162,2.879l-1.4,2.665a17.3,17.3,0,0,0-1.85,4.547,5.806,5.806,0,0,0,.892,4.694c.742.941,1.836,1.532,2.641,2.417a5.247,5.247,0,0,1,1.315,3.987c.913-.35,1-1.581,1.021-2.56a17.274,17.274,0,0,1,.888-5.093,8.119,8.119,0,0,1,1.591-2.952,3.977,3.977,0,0,1,2.97-1.378c1.4.049,2.655,1.014,4.04.9,1.049-.087,1.98-.8,3.036-.944a3.75,3.75,0,0,1,2.609.738,8.961,8.961,0,0,1,1.92,1.994,15.4,15.4,0,0,1,3.55,8.618c.4.29.965-.087,1.161-.535a12.77,12.77,0,0,1,.451-1.4,5.16,5.16,0,0,1,1.266-1.126,4.951,4.951,0,0,0,1.322-3.963,19.74,19.74,0,0,1-.049-4.309c.164-.867.535-1.679.738-2.536a3.316,3.316,0,0,0-.252-2.557c-.7-1.084-2.172-1.3-3.456-1.4-1.459-.126-2.763.035-3.694-1.193a13.4,13.4,0,0,0-1.469-1.8C385.827,223.344,383.956,222.19,383.956,222.113Z" transform="translate(-252.491 -164.426)" fill="#512e4e"/><path d="M304.573,421.888l-3.655-6.758-1.158,10.427a48.334,48.334,0,0,1,.514,5.341c-.129.71,2.637,7.076,2.637,7.076s9.139,16.278,12.872,17.118l12.609-9.01-3.344-4.246s-1.158-.451-1.448,0c0,0-6.208-10.682-6.852-11.455a3.858,3.858,0,0,1-.518-2.315s-.965-1.028-.644-1.994-1.864-4.313-1.864-4.313l1.994-1.864Z" transform="translate(-211.124 -290.441)" opacity="0.1"/><path d="M299.673,412.93l-.965.77-1.158,10.427a48.319,48.319,0,0,1,.514,5.341c-.129.71,2.641,7.076,2.641,7.076s9.136,16.278,12.868,17.118l12.613-9.01-3.347-4.246s-1.158-.451-1.448,0c0,0-6.208-10.682-6.852-11.455a3.846,3.846,0,0,1-.514-2.315s-.965-1.028-.644-1.994-1.868-4.313-1.868-4.313l1.994-1.864Z" transform="translate(-209.687 -289.011)" fill="#fff"/><path d="M461.324,518.129c.7.85.259,4.666.259,4.666l-1.931,3.2s.115,2.064.122,4.844l-3.246,1.014a1.927,1.927,0,0,1-2.5-1.9l.56-18.052,7.573,2.9c-.644.448.063,1.546.063,1.546S460.618,517.28,461.324,518.129Z" transform="translate(-311.434 -353.364)" opacity="0.1"/><path d="M462.428,517.026c.7.85.259,4.669.259,4.669l-1.931,3.2s.115,2.06.126,4.844l-3.305,1.032a1.889,1.889,0,0,1-2.448-1.861l.563-18.108,7.576,2.9c-.647.448.059,1.542.059,1.542S461.728,516.179,462.428,517.026Z" transform="translate(-312.149 -352.649)" fill="#fff"/><path d="M471.908,498.764s-.514,3.284-1.8,3.477-1.864,5.313-3.148,5.131-.434-4.76-.388-5.649-1.4-4.568-.318-5.4,4.5,0,4.5,0Z" transform="translate(-319.121 -342.992)" fill="#cf6f80"/><path d="M472.192,422.587l2.427-4.9a31.79,31.79,0,0,1,.965,5.726c0,1.994,1.35,2.19,1.35,2.19s1.48,1.749.7,3.022a14.669,14.669,0,0,0-1.095,4.442s.255,6.048-.9,6.883a4.685,4.685,0,0,0-1.4,2.833s-2.127,3.795-2.06,4.7-2.959,7.013-2.959,7.013,1.48-7.593-7.142-10.874c0,0-.066-2.578.577-3.284s1.647-1.028,1.018-4.6a41.713,41.713,0,0,1-.182-8.7,54.756,54.756,0,0,1,1.931-6.2Z" transform="translate(-316.666 -292.106)" opacity="0.1"/><path d="M474.6,415.69l2.12.7a31.686,31.686,0,0,1,.969,5.726c0,1.994,1.35,2.19,1.35,2.19s1.48,1.749.7,3.022a14.631,14.631,0,0,0-1.091,4.442s.255,6.048-.9,6.883a4.749,4.749,0,0,0-1.417,2.833s-2.123,3.795-2.057,4.7-2.963,7.013-2.963,7.013,1.483-7.593-7.142-10.874c0,0-.063-2.578.581-3.284s1.647-1.028,1.018-4.6a41.714,41.714,0,0,1-.182-8.7,54.758,54.758,0,0,1,1.931-6.2Z" transform="translate(-318.026 -290.806)" fill="#fff"/><path d="M360.15,776.436s3.379-2.123,5.6-.581S360.15,776.436,360.15,776.436Z" transform="translate(-250.392 -524.631)" opacity="0.1"/><path d="M435.21,759.755a6.84,6.84,0,0,1,5.5,2.319C443.223,764.778,435.21,759.755,435.21,759.755Z" transform="translate(-299.198 -514.515)" opacity="0.1"/><g transform="translate(110.89 64.588)" opacity="0.1"><path d="M402.178,260.745a5.188,5.188,0,0,0-1.27,1.13,12.8,12.8,0,0,0-.448,1.4c-.2.455-.766.825-1.161.539-.091-3.148-1.644-6.1-3.55-8.622a8.96,8.96,0,0,0-1.92-1.994,3.76,3.76,0,0,0-2.613-.738c-1.049.143-1.973.857-3.032.944-1.4.119-2.655-.85-4.043-.9a3.959,3.959,0,0,0-2.966,1.382,8.1,8.1,0,0,0-1.591,2.949,17.291,17.291,0,0,0-.888,5.093c-.021.976-.112,2.193-1.014,2.557a4.787,4.787,0,0,1,0,.776c.909-.35,1-1.581,1.021-2.56a17.272,17.272,0,0,1,.888-5.093,8.118,8.118,0,0,1,1.591-2.952,3.97,3.97,0,0,1,2.966-1.378c1.4.049,2.658,1.014,4.043.9,1.049-.087,1.98-.8,3.033-.944a3.76,3.76,0,0,1,2.613.738,8.961,8.961,0,0,1,1.92,1.994c1.906,2.515,3.459,5.463,3.55,8.618.4.29.965-.087,1.161-.535a13.569,13.569,0,0,1,.448-1.4,5.176,5.176,0,0,1,1.27-1.126,4.951,4.951,0,0,0,1.322-3.963v-.133A4.592,4.592,0,0,1,402.178,260.745Z" transform="translate(-372.68 -249.245)"/><path d="M367.063,265.658c-.8-.885-1.9-1.476-2.641-2.413a5.121,5.121,0,0,1-1.018-2.865,5.386,5.386,0,0,0,1.018,3.634c.738.941,1.836,1.532,2.641,2.417a5.247,5.247,0,0,1,1.319,3.12A5.247,5.247,0,0,0,367.063,265.658Z" transform="translate(-363.385 -254.406)"/><path d="M451.874,243.993c-.206.857-.574,1.672-.742,2.536a8.079,8.079,0,0,0-.108,1.749,6.794,6.794,0,0,1,.108-.993c.168-.867.535-1.679.742-2.536a4.3,4.3,0,0,0,.115-1.448A4.861,4.861,0,0,1,451.874,243.993Z" transform="translate(-420.364 -243.3)"/></g><ellipse cx="34.081" cy="5.474" rx="34.081" ry="5.474" transform="translate(12.655 255.079)" fill="#6c63ff" opacity="0.1"/><rect width="2.193" height="49.377" transform="translate(45.642 155.692)" fill="#535461"/><path d="M167.2,638.281l-.136,2.225-.2,3.148-.08,1.308-.192,3.148-.084,1.308-.2,3.148-2.211,35.7a6.051,6.051,0,0,1-6.037,5.673H146.573a6.047,6.047,0,0,1-6.034-5.673l-2.2-35.725-.2-3.148-.08-1.308-.2-3.148-.08-1.308-.2-3.148-.14-2.225a3.148,3.148,0,0,1,3.148-3.326h23.508a3.127,3.127,0,0,1,3.092,3.351Z" transform="translate(-105.582 -433.362)" fill="#3f3d56"/><path d="M120.066,592.24l-.2,3.137H90.776l-.2-3.137Z" transform="translate(-58.586 -385.097)" fill="#9d9cb5"/><path d="M120.3,604.95l-.192,3.141H91.566l-.2-3.141Z" transform="translate(-59.099 -393.361)" fill="#9d9cb5"/><path d="M120.54,617.68l-.192,3.137H92.356l-.2-3.137Z" transform="translate(-59.613 -401.639)" fill="#9d9cb5"/><path d="M75.906,538.526c12.77,9.241,18.1,23.693,18.1,23.693s-15.39-.528-28.163-9.769S47.75,528.76,47.75,528.76,63.133,529.285,75.906,538.526Z" transform="translate(-47.26 -364.327)" fill="#6c63ff"/><path d="M47.72,528.76s15.977,8.867,21.1,16.208,25.166,17.251,25.166,17.251" transform="translate(-47.24 -364.327)" fill="none" stroke="#535461" stroke-miterlimit="10" stroke-width="2"/><path d="M123.327,493.576a31.054,31.054,0,0,1,9.856,12.892,30.993,30.993,0,0,1-15.33-5.313A30.992,30.992,0,0,1,108,488.26,30.969,30.969,0,0,1,123.327,493.576Z" transform="translate(-86.436 -337.993)" fill="#6c63ff"/><path d="M108,488.26s8.7,4.827,11.483,8.821,13.7,9.388,13.7,9.388" transform="translate(-86.436 -337.993)" fill="none" stroke="#535461" stroke-miterlimit="10" stroke-width="2"/><path d="M190.865,517.722c-7.985,8.776-9.675,20.245-9.675,20.245s11.259-2.763,19.237-11.542S210.1,506.18,210.1,506.18,198.85,508.947,190.865,517.722Z" transform="translate(-134.026 -349.645)" fill="#6c63ff"/><path d="M210.109,506.19s-10.4,9-13.046,15.194-15.872,16.59-15.872,16.59" transform="translate(-134.026 -349.652)" fill="none" stroke="#535461" stroke-miterlimit="10" stroke-width="2"/><path d="M900.972,356.961s-5.775-28.73-3.564-32.3c0,0,.08-3.323-.053-7.559v-.486a10.759,10.759,0,0,0,1.214.7,9.821,9.821,0,0,0,6.611.853l-1.749-1.948a3.228,3.228,0,0,1-.948-1.584,3.318,3.318,0,0,1,.378-1.714c1.661-4.2,1.749-9.475-1.452-12.679-2.7-2.693-3.361-6.17-6.3-8.629-2.144-1.8-3.323-4.442-4.435-7a39.345,39.345,0,0,1-2.427-6.621c-.42-1.787-.588-3.638-1.165-5.383a6.852,6.852,0,0,0-3.347-4.222,12.637,12.637,0,0,1-1.819-.8,7.854,7.854,0,0,1-1.675-1.969c-2.648-3.5-11.514-1.438-15.712-.017a8.838,8.838,0,0,0-3.106,1.721l.038-.063c.031-.052.07-.1.1-.157a5.52,5.52,0,0,0-1.175,1.312,31.458,31.458,0,0,0-1.378,3.148c-.616,1.242-4.04,4.708-2.567,6.1a1.242,1.242,0,0,0,.35.224,3.026,3.026,0,0,0,1.749.175l-.063.15a10.223,10.223,0,0,0-.759,3.879A10.5,10.5,0,0,0,868.318,292.5a10.693,10.693,0,0,0,3.242-.5c.024.133.045.266.07.4a1.232,1.232,0,0,0,.024.157h0l-.185.259a.349.349,0,0,0-.031-.045l-5.491,7.674c-.839.591-5.673,4.089-5.946,6.712-.287,2.872-.574,6.233-.574,6.233l-.038.72a2.162,2.162,0,0,1-1.749.472c-1.714-.28-1.714,6.3-1.714,6.3s-1.14,1.049-1.924.14-2.854,2.172-2.854,2.172l-12.976.56h0l-.3.018-.7-2.165a.913.913,0,0,0-1.144-.584,1.051,1.051,0,0,0-.157.066l-.049.028-.091.063-.045.042a.692.692,0,0,0-.07.073l-.042.049-.021.021h0a.882.882,0,0,0-.126.783l.6,1.857c-2.5.5-5.065,1.924-2.977,5.834l-10.584-1.955,3.424,2.875,17.677,3.648c-.234.42-.08,1.028.651,1.885,3.148,3.7,8.884,4.7,11.193,4.96a19.868,19.868,0,0,0,2.27,3.848l-.2,3.683s-5.845,28.072-6.915,29.5a16.652,16.652,0,0,0,1.479-1.948c-1.7,5.768-4.068,13.662-4.69,14.844-1,1.889-1.927,9.531-.787,10.021a9.6,9.6,0,0,0,2.777-.031v.633l-.063,23.991s.287,14.715-.5,16.117a13.716,13.716,0,0,0-1,4.344s-3.148,5.8-5.642,8.136a.374.374,0,0,1-.056.049l-.077-.546s-3,3.784-9.629,3.571c0,0-3.991,2.6,1.927,2.735s13.477-.21,13.477-.21,5.278-8.045,9.7-7v6.1h1.354v-6.194a5.551,5.551,0,0,0,2.41-3.648,4.435,4.435,0,0,0-1.581-4.1,2.623,2.623,0,0,1-.864-1.917l-.049.042a3.7,3.7,0,0,0-.045-.378c-.388-3.148-.874-9.643.843-14.449,2.354-6.59,3.068-15.768,1.354-21.231a48.815,48.815,0,0,1-1.361-5.32c-.042-.227-.08-.444-.115-.647a27.58,27.58,0,0,1,3.473.7c3.97,1.095,12.655,1.3,20.07,1.238.018.2.038.416.063.63a22.909,22.909,0,0,0,.825,4.379c.93,2.8,1.357,15.135,1.357,15.135s1.2,10.143.546,14.271c-.35,2.294-.7,4.6-.9,6.915v.046s-1.966,5.6-3.4,8.636c-.035.077-.073.154-.108.227a4.546,4.546,0,0,0-1.123.248s-1.927,3.847-3.847,4.484-1.284,2.732,3.064,1.962,10.913-1.4,10.913-1.4l.283-3.924,1.336-1.672-.35,3.914,1.424-.28-.189-4.76,2.186-2.735s2.641-2.35-1.284-6.974v.1c-.042-.067-.08-.136-.126-.2v-.021c-.651-1.007-1.168-2.886-.22-6.219,1.714-6.023,2.711-11.49,2.711-11.49s3.826-14.645-.773-21.574h.2a11.655,11.655,0,0,1-.99-3.078q-.035-.189-.063-.388a25.239,25.239,0,0,0,9.468-2.141C903.97,397.247,902.329,362.494,900.972,356.961Zm-43.207-24.239v.07l-.7.035Zm-2.4.332a.773.773,0,0,0-.315.15,3.107,3.107,0,0,0-.549,1.438l-1.091-.245s-.766-.164-1.868-.35l-.521-.525C852.456,333.4,853.946,333.229,855.366,333.054Z" transform="translate(-551.006 -191.972)" fill="url(#b)"/><path d="M971.736,742.23l-.416,4.956,1.4-.28-.21-5.376Z" transform="translate(-631.27 -482.17)" fill="#1d2366"/><path d="M893.343,679.721c-1.682,4.792-1.207,11.259-.829,14.4.14,1.161.269,1.868.269,1.868s-2.515,5.729-2.725,5.946-7.4,4.606-7.4,4.606l-5.026,2.935s-5.1-2.235-2.655-3a3.712,3.712,0,0,0,1.319-.9c2.448-2.326,5.523-8.108,5.523-8.108a13.942,13.942,0,0,1,.979-4.33c.769-1.4.49-16.061.49-16.061l.06-23.907V650.05l9.566.07a21.645,21.645,0,0,0,.413,3.148,48.114,48.114,0,0,0,1.333,5.3C896.344,664.023,895.644,673.156,893.343,679.721Z" transform="translate(-584.717 -443.194)" fill="#ffb0b1"/><path d="M892.783,777.931s-2.515,5.729-2.725,5.946-7.4,4.606-7.4,4.606l-5.026,2.935s-5.1-2.235-2.655-3a3.712,3.712,0,0,0,1.319-.9l.217,1.528,1.675-.07,14.341-12.9C892.654,777.224,892.783,777.931,892.783,777.931Z" transform="translate(-584.717 -525.136)" opacity="0.1"/><path d="M876.092,777l-14.421,12.99-1.675.07-.35-2.448s-2.931,3.77-9.444,3.561c0,0-3.91,2.585,1.885,2.725s13.2-.21,13.2-.21,5.17-8.045,9.5-7v6.076h1.329v-6.131A5.523,5.523,0,0,0,878.467,783a4.456,4.456,0,0,0-1.543-4.085,2.634,2.634,0,0,1-.832-1.913Z" transform="translate(-568.2 -525.741)" fill="#1d2366"/><path d="M999.4,686.708c-.93,3.323-.423,5.194.213,6.2v.021a11.456,11.456,0,0,1,1.672,4.082l.056.315-6.562,9.566-3.561,1.4s-5.726-1.955-4.68-2.515a5.36,5.36,0,0,0,1.14-1.868c1.4-3.026,3.33-8.608,3.33-8.608v-.046c.2-2.3.525-4.6.881-6.89.64-4.117-.535-14.222-.535-14.222s-.42-12.287-1.329-15.082a23.06,23.06,0,0,1-.815-4.351c-.189-1.749-.231-3.19-.231-3.19s3.771-5.247,10.682.42a7.608,7.608,0,0,1,1.444,1.567c4.774,6.793.93,21.756.93,21.756S1001.079,680.7,999.4,686.708Z" transform="translate(-657.609 -442.709)" fill="#ffb0b1"/><path d="M1001.375,778.221l-6.562,9.566-3.561,1.4s-5.726-1.955-4.68-2.515a5.358,5.358,0,0,0,1.14-1.868,4.526,4.526,0,0,1,3.68,2.288l3.071-.49s4.05-7.961,4.96-8.447.14-3.634.14-3.634v-.8c.024.028.045.059.073.087v.021a11.455,11.455,0,0,1,1.672,4.082Z" transform="translate(-657.628 -523.608)" opacity="0.1"/><path d="M982.827,787.675s-1.749-3.211-5.1-2.025c0,0-1.885,3.847-3.771,4.47s-1.256,2.721,3,1.955,10.682-1.4,10.682-1.4l.28-3.914,4.33-5.516s2.581-2.34-1.259-6.946v.8s.769,3.148-.14,3.634-4.946,8.45-4.946,8.45Z" transform="translate(-648.853 -523.985)" fill="#1d2366"/><path d="M909.717,650.1a21.655,21.655,0,0,0,.413,3.148,43.879,43.879,0,0,0-9.989-.1V650.03Z" transform="translate(-601.51 -443.181)" opacity="0.1"/><path d="M1006.3,654.369s-5.6.273-12.27.329c-.189-1.749-.231-3.19-.231-3.19s3.77-5.247,10.682.42a7.6,7.6,0,0,1,1.445,1.567,8.542,8.542,0,0,0,.374.874Z" transform="translate(-662.411 -442.703)" opacity="0.1"/><path d="M939.4,539.841s-24.512,1.186-31.983-.909-14.876-.28-15.991-.766-.21-8.1.769-9.986,6.352-20.951,6.352-20.951l5.17-26.953,5.446-1.5.385-.108,9.489-2.616,6.953-1.92s13.826,53.98,12.641,57.96a10.194,10.194,0,0,0-.2,4.683A11.693,11.693,0,0,0,939.4,539.841Z" transform="translate(-595.508 -328.805)" fill="#1d2366"/><path d="M871.21,439s-4.9,5.247-1.189,8.171,6.145.28,6.145.28Z" transform="translate(-581.023 -305.963)" fill="#c7daf5"/><path d="M871.21,439s-4.9,5.247-1.189,8.171,6.145.28,6.145.28Z" transform="translate(-581.023 -305.963)" opacity="0.1"/><path d="M969.636,322.6s-.574.546-1.438,1.35c-1.231,1.151-3.053,2.833-4.669,4.243-2.239,1.948-4.085,3.379-3.424,2.158s.535-3.347.206-5.337c-.024-.133-.045-.266-.07-.4a36.679,36.679,0,0,0-1.081-4.323,74.791,74.791,0,0,1,5.617-6.516c.745-.7,1.266-.986,1.3-.5a16.252,16.252,0,0,0,1.133,3.631c.017.049.035.094.056.143.406,1.049.864,2.127,1.266,3.057C969.146,321.538,969.636,322.6,969.636,322.6Z" transform="translate(-639.887 -224.058)" fill="#ffb0b1"/><path d="M967.264,317.062a10.381,10.381,0,0,1-6.953,7.961,36.419,36.419,0,0,0-1.151-4.718s6.81-8.8,6.915-7.016A16.636,16.636,0,0,0,967.264,317.062Z" transform="translate(-639.887 -224.066)" opacity="0.1"/><path d="M936.165,351.692l.881-1.242s.584,3.561,2.732,1.99,2.253,11.819,2.253,11.819l-2.3,34.463-16.656-1,.472-16.653,1.885-8.394,4.662-12.2,2.774-4.033Z" transform="translate(-616.42 -248.385)" opacity="0.1"/><path d="M942.051,364.836,939.952,396l-.22,3.3-9.286-.556-.35-.021-7-.42.472-16.656,1.885-8.394,4.662-12.2,2.774-4.033,3.3-4.767.881-1.238s.584,3.561,2.732,1.99l.045-.031h0C941.953,351.64,942.051,364.836,942.051,364.836Z" transform="translate(-616.439 -248.749)" fill="#1d2366"/><path d="M890.384,406.26a2.549,2.549,0,0,1-2.515,1.466c-1.679-.283-1.675,6.3-1.675,6.3s-1.116,1.049-1.885.14-2.8,2.165-2.8,2.165l-12.711.56s5.656,2.585,4.547,10.406c0,0,19.2-1.189,19.832-3S890.384,406.26,890.384,406.26Z" transform="translate(-581.132 -284.674)" fill="#fff"/><path d="M890.384,406.26a2.549,2.549,0,0,1-2.515,1.466c-1.679-.283-1.675,6.3-1.675,6.3s-1.116,1.049-1.885.14-2.8,2.165-2.8,2.165l-12.711.56s5.656,2.585,4.547,10.406c0,0,19.2-1.189,19.832-3S890.384,406.26,890.384,406.26Z" transform="translate(-581.132 -284.674)" opacity="0.03"/><path d="M777.66,389.76l3.351,2.861,27.583,5.8-3.421-3.491Z" transform="translate(-505.346 -253.438)" fill="#fff"/><path d="M923.538,351.07a70.6,70.6,0,0,0-2.865,7.408c-.913,2.606-1.675,4.9-1.675,4.9s-1.78,11.591-2.69,13.686-.416,10.266-.416,10.266L912.5,407.506s-1.535,10.406-3.907,16.621a30.266,30.266,0,0,1-5.026,9.076c1.049-1.42,6.768-29.381,6.768-29.381l1.889-35.264s.276-3.351.556-6.215,5.946-6.775,5.946-6.775l5.463-7.768C924.741,348.535,924.374,349.815,923.538,351.07Z" transform="translate(-603.74 -246.661)" fill="#fff"/><path d="M896.368,472.34s-8.045-.35-11.941-5.03,9.006-1.868,9.006-1.868l3.354.769Z" transform="translate(-590.816 -322.611)" fill="#ffb0b1"/><path d="M972.558,455.564a10.192,10.192,0,0,0-.2,4.683,66.671,66.671,0,0,1-18.164-1.749,40.806,40.806,0,0,1-6.355,3.98l-2.511-31.129c-1.605-4.2-2.235-26.187-2.235-26.187s.143-1.151.35-2.875a.331.331,0,0,1,.018-.129c.626-4.816,1.868-13.858,2.476-15.079.839-1.679-2.581-6.145-2.581-6.145l1.556-13.274.189-1.6c3.281-1.466,5.8-6.145,5.8-6.145l1.931-3.382h0c2.1-1.347,2.207,11.85,2.207,11.85l-2.1,31.161,6.953-1.92S973.744,451.584,972.558,455.564Z" transform="translate(-629.437 -252.276)" opacity="0.1"/><path d="M982.345,442.218c-9.566,4.75-26.953.35-26.953.35a40.8,40.8,0,0,1-6.355,3.98l-2.515-31.129c-1.6-4.2-2.232-26.187-2.232-26.187s2.022-16.408,2.861-18.083a2.7,2.7,0,0,0-.164-2,25.316,25.316,0,0,1-1.532-11.714l.672-5.7.185-1.6c3.284-1.469,5.8-6.149,5.8-6.149l1.749-3.064,3.218-5.645L958.6,332.6l.259.234,1.976,1.791,2.1,1.749c2.739,2.309,7.471,6.373,9.912,8.86,2.148,2.19,2.826,10.706,3.022,17.118.129,4.222.052,7.531.052,7.531-2.165,3.564,3.5,32.179,3.5,32.179C980.739,407.59,982.345,442.218,982.345,442.218Z" transform="translate(-630.218 -236.778)" fill="#fff"/><path d="M945.868,364.023s-6.565,12.5-5.8,17.247S943,391.4,941.951,392.651a3.865,3.865,0,0,1-3.074,1.535,10.108,10.108,0,0,0-3.848,2.235c0,.21-2.585.21-4.9,1.189a30.489,30.489,0,0,1-5.726,1.536s-6.646-.21-7.265.42-1.256,4.4.07,7.4,2.8,5.247,3.91,5.656,8.171-1.955,13.9-2.515,11.941-5.1,11.941-5.1,6.845-2.448,8.045-6.565-1.466-26.743-1.466-26.743S951.524,361.158,945.868,364.023Z" transform="translate(-612.104 -256.889)" opacity="0.03"/><path d="M943.487,361.025s-6.565,12.5-5.8,17.247,2.931,10.126,1.882,11.385a3.847,3.847,0,0,1-3.071,1.535,10.108,10.108,0,0,0-3.847,2.235c0,.21-2.585.21-4.9,1.186a30.79,30.79,0,0,1-5.726,1.535s-6.646-.21-7.261.42-1.259,4.4.07,7.4,2.8,5.247,3.91,5.656,8.171-1.955,13.9-2.511,11.941-5.1,11.941-5.1,6.841-2.448,8.027-6.562-1.466-26.747-1.466-26.747S949.143,358.164,943.487,361.025Z" transform="translate(-610.562 -254.94)" opacity="0.03"/><path d="M945.291,362.232s-6.565,12.5-5.8,17.247,2.931,10.126,1.885,11.381a3.847,3.847,0,0,1-3.074,1.539,10.152,10.152,0,0,0-3.847,2.232c0,.206-2.581.21-4.9,1.189a30.556,30.556,0,0,1-5.726,1.535s-6.646-.21-7.265.42-1.256,4.4.07,7.4,2.8,5.247,3.91,5.656,8.171-1.955,13.9-2.515,11.941-5.1,11.941-5.1,6.845-2.448,8.045-6.565-1.448-26.743-1.448-26.743S950.944,359.385,945.291,362.232Z" transform="translate(-611.733 -255.728)" fill="#fff"/><path d="M992.513,458.42s-5.247-1.049-3.421.7,1.815,3.281,4.05,3.211S992.513,458.42,992.513,458.42Z" transform="translate(-659.099 -318.387)" opacity="0.1"/><path d="M1023.788,566.58s-2.371,1.605,2.165,5.306S1023.788,566.58,1023.788,566.58Z" transform="translate(-681.507 -388.919)" opacity="0.1"/><path d="M1011.811,604.31c0,.21-.839,7.695,2.3,9.566S1011.811,604.31,1011.811,604.31Z" transform="translate(-674.055 -413.452)" opacity="0.1"/><path d="M858.338,436.59c-2.532.087-8,.86-5.166,6.152,2.508,4.683,6.723,1.553,9.094-.822A8.937,8.937,0,0,0,858.338,436.59Z" transform="translate(-570.452 -304.395)" fill="#ffb0b1"/><path d="M881.39,451Z" transform="translate(-589.318 -313.765)" fill="#ffb0b1"/><path d="M880.74,451.508l.1-.108Z" transform="translate(-588.895 -314.025)" fill="#ffb0b1"/><path d="M966.35,336.971c-2.686,1.836-4.939,3.386-5.379,3.708-1.2.892-3.5,6.128-4.977,8.8-1.179,2.151-5.009,2.7-6.453,2.84l.185-1.6c3.284-1.469,5.8-6.149,5.8-6.149l6.492-11.381,2.235,2.032Z" transform="translate(-633.631 -237.162)" opacity="0.1"/><path d="M966.35,336.371c-2.686,1.836-4.939,3.386-5.379,3.711-1.2.888-3.5,6.124-4.977,8.8-1.179,2.151-5.009,2.7-6.453,2.84l.185-1.6c3.284-1.469,5.8-6.149,5.8-6.149l6.492-11.381,2.235,2.025S965.091,335.308,966.35,336.371Z" transform="translate(-633.631 -236.771)" fill="#dce7ff"/><path d="M944.245,298.636a10.374,10.374,0,1,1-8.819-10.255,10.357,10.357,0,0,1,8.819,10.255Z" transform="translate(-616.696 -207.949)" fill="#ffb0b1"/><path d="M963.75,333.525a9.221,9.221,0,0,1-3.347-3.6c-.584-1.154-.972-2.487-1.969-3.305a8.746,8.746,0,0,0-3.218-1.242c-3.68-1.088-6.765-4.446-6.88-8.279-.056-1.8.507-3.606.252-5.393a5.975,5.975,0,0,0-1.168-2.781,9.586,9.586,0,0,0-1.011-1.088c-.49-.462-1-.909-1.452-1.4a5.432,5.432,0,0,1-.734-1,4.8,4.8,0,0,1-.4-.927c-.7-2.141-.063-4.68-.832-6.845l-.042-.119a2.227,2.227,0,0,0-1.7-1.6c-.822-.059-1.525.623-2.308.927-1.64.637-3.41-.448-4.778-1.553s-2.91-2.368-4.648-2.123c-1.151.164-2.06.948-3.12,1.354a4.368,4.368,0,0,1-.738.213,10.371,10.371,0,0,1,20,3.865,10.256,10.256,0,0,1-.227,2.165c.017.049.035.094.056.143.406,1.049.864,2.127,1.266,3.057l1.976,1.791,2.1,1.749c2.739,2.308,7.471,6.373,9.912,8.86C962.876,318.6,963.547,327.114,963.75,333.525Z" transform="translate(-618.097 -207.948)" opacity="0.1"/><path d="M922.073,273.372c.5-1.018.749-2.158,1.347-3.123a7.442,7.442,0,0,1,3.984-2.837c4.11-1.417,12.795-3.473,15.39,0a7.572,7.572,0,0,0,1.641,1.959,12.174,12.174,0,0,0,1.78.8,6.8,6.8,0,0,1,3.274,4.2c.563,1.728.731,3.582,1.144,5.362a39.43,39.43,0,0,0,2.378,6.6c1.088,2.539,2.242,5.173,4.341,6.967,2.865,2.448,3.5,5.915,6.156,8.6,3.148,3.19,3.046,8.454,1.424,12.634a3.466,3.466,0,0,0-.371,1.707,3.347,3.347,0,0,0,.927,1.581l1.721,1.941a9.676,9.676,0,0,1-10.573-4.876c-.584-1.154-.972-2.483-1.973-3.305a8.723,8.723,0,0,0-3.214-1.238c-3.68-1.091-6.765-4.453-6.88-8.286-.056-1.8.507-3.6.252-5.386a5.946,5.946,0,0,0-1.172-2.8c-.962-1.256-2.413-2.1-3.2-3.5-1.326-2.34-.318-5.379-1.273-7.891a2.232,2.232,0,0,0-1.7-1.6c-.822-.059-1.525.623-2.312.927-1.637.637-3.407-.444-4.774-1.553s-2.91-2.368-4.652-2.12c-1.151.161-2.057.944-3.117,1.354-.783.3-2.371.57-3.057-.091C918.114,278.069,921.468,274.617,922.073,273.372Z" transform="translate(-613.905 -193.149)" fill="#591d4b"/><path d="M957.466,320.056c-.588-1.154-.972-2.483-1.973-3.3a8.721,8.721,0,0,0-3.218-1.242c-3.676-1.088-6.761-4.449-6.88-8.283-.056-1.8.507-3.606.255-5.39a5.981,5.981,0,0,0-1.172-2.781c-.965-1.256-2.417-2.1-3.2-3.5-1.326-2.336-.318-5.376-1.277-7.891a2.239,2.239,0,0,0-1.7-1.6c-.818-.063-1.529.626-2.312.93-1.637.637-3.41-.448-4.774-1.553s-2.914-2.368-4.652-2.123c-1.151.164-2.06.948-3.116,1.354-.784.3-2.375.574-3.06-.087-1.441-1.4,1.913-4.844,2.515-6.082a33.505,33.505,0,0,1,1.35-3.123c.031-.052.066-.1.1-.157a5.554,5.554,0,0,0-1.151,1.308c-.6.965-.846,2.1-1.347,3.123-.605,1.238-3.959,4.694-2.515,6.082.7.665,2.273.392,3.057.091,1.049-.409,1.966-1.193,3.116-1.354,1.749-.248,3.288,1.014,4.652,2.12s3.148,2.19,4.778,1.553c.783-.3,1.469-.99,2.308-.927a2.227,2.227,0,0,1,1.7,1.6c.955,2.511-.052,5.551,1.273,7.891.784,1.375,2.235,2.235,3.2,3.5a5.946,5.946,0,0,1,1.172,2.8c.255,1.784-.308,3.585-.252,5.386.115,3.847,3.2,7.195,6.88,8.286a8.77,8.77,0,0,1,3.214,1.238c1,.822,1.4,2.151,1.973,3.305A9.676,9.676,0,0,0,966.99,326.1l-.811-.916A9.781,9.781,0,0,1,957.466,320.056Z" transform="translate(-613.765 -199.474)" opacity="0.1"/><path d="M951.1,351.605a70.548,70.548,0,0,0-2.865,7.408c-1.025-.4-1.955-2.942-1.955-2.942l5.463-7.772C952.3,349.069,951.936,350.346,951.1,351.605Z" transform="translate(-631.512 -246.987)" opacity="0.1"/><path d="M951.7,351.012a70.553,70.553,0,0,0-2.865,7.408c-1.025-.4-1.955-2.942-1.955-2.942l5.463-7.768C952.9,348.476,952.536,349.756,951.7,351.012Z" transform="translate(-631.902 -246.603)" fill="#dce7ff"/><path d="M864.13,439.389l-3.029-9.552a.892.892,0,0,1,.581-1.123h0a.9.9,0,0,1,1.119.581l3.029,9.542-.3,2Z" transform="translate(-576.098 -299.248)" fill="#be8b87"/><path d="M861.655,429.023h0a.9.9,0,0,1,1.123.581l3.029,9.542-.227,1.5.22.231.3-2-3.046-9.542a.9.9,0,0,0-1.119-.581h0a.9.9,0,0,0-.465.35A1.215,1.215,0,0,1,861.655,429.023Z" transform="translate(-576.365 -299.274)" fill="#fff" opacity="0.1"/><path d="M822.6,399.679l1.7-.539-.248,1.637-.052.36-.5-.518Z" transform="translate(-534.568 -259.537)" fill="#efc8c4"/><path d="M872.42,461.787a.35.35,0,0,1,.108-.091.154.154,0,0,1,.164,0,.435.435,0,0,1,.06.094.3.3,0,0,0,.217.143l-.052.35Z" transform="translate(-583.486 -320.704)" fill="#727a9c"/><path d="M861.13,441.7s6.076-.035,4.645,2.55a5.464,5.464,0,0,1-3.666,2.9Z" transform="translate(-576.144 -307.718)" fill="#ffb0b1"/><path d="M604.516,110.05h-.262a29.917,29.917,0,0,0-24.977,13.672A29.917,29.917,0,0,0,554.3,110.05h-.262a29.73,29.73,0,0,0-29.447,29.713c0,9.727,4.26,23.529,12.567,34.886,15.827,21.64,42.119,40.573,42.119,40.573s26.292-18.93,42.116-40.573c8.311-11.357,12.567-25.159,12.567-34.886a29.73,29.73,0,0,0-29.444-29.713Zm-3.753,66.264a5.894,5.894,0,0,1-5.481-3.785h-6.24a1.973,1.973,0,0,1-1.857-1.343l-1.917-5.775L579.2,186.6a1.962,1.962,0,0,1-1.882,1.417H577.2a1.938,1.938,0,0,1-1.819-1.623L569.13,148.8l-4.568,22.245a1.948,1.948,0,0,1-1.892,1.48h-8.79a1.955,1.955,0,1,1,0-3.907h7.251l6.471-29.909a1.962,1.962,0,0,1,3.847.161l6.383,38.349,5.435-18.961a1.924,1.924,0,0,1,1.829-1.4h.038a1.952,1.952,0,0,1,1.854,1.343l3.466,10.427h4.75a5.862,5.862,0,1,1,5.568,7.695Z" transform="translate(-357.316 -92.069)" fill="#6c63ff"/></g></svg>