<svg xmlns="http://www.w3.org/2000/svg" xmlns:xlink="http://www.w3.org/1999/xlink" width="678.485" height="501.254" viewBox="0 0 678.485 501.254"><defs><linearGradient id="a" x1="0.5" y1="1" x2="0.5" gradientUnits="objectBoundingBox"><stop offset="0" stop-color="gray" stop-opacity="0.251"/><stop offset="0.54" stop-color="gray" stop-opacity="0.122"/><stop offset="1" stop-color="gray" stop-opacity="0.102"/></linearGradient><linearGradient id="b" x1="0.5" y1="1" x2="0.5" y2="0" xlink:href="#a"/></defs><g transform="translate(-0.005 -0.003)"><path d="M91.49,356.76h58.951v80.358H95.8c-.139.831-.279,1.656-.436,2.486h55.077v64.8a.829.829,0,0,1-.273-.1q-2.324-.924-4.647-1.958c-.331-.151-.656-.308-.993-.453q-2.324-1.1-4.647-2.324c-.54-.285-1.081-.581-1.609-.883a96.684,96.684,0,0,1-23.179-18.043c-.2-.192-.389-.4-.581-.581-.941-1.022-1.865-2.056-2.759-3.114-.337-.389-.662-.784-.993-1.162-1.057-1.29-2.08-2.626-3.067-3.968-.151-.2-.29-.4-.436-.581a85.814,85.814,0,0,1-9.992-18.067c-.081-.192-.157-.4-.232-.581-.8-2.033-1.528-4.1-2.155-6.2-.267-.877-.529-1.743-.749-2.655-.081-.261-.145-.529-.215-.79-3.265-12.867-3.642-26.24-3.642-39.549v-4.647q.07-8.15.192-16.283.046-2.091.087-4.2.122-5.339.349-10.7c.035-.988.081-1.981.134-2.963q.035-.854.087-1.708Q91.275,359.8,91.49,356.76Z" transform="translate(-46.891 -160.293)" fill="#6c63ff" opacity="0.1"/><path d="M170.52,173.262H138.18a246.16,246.16,0,0,1,17.2-23.667c4.81-5.9,9.876-11.653,15.139-17.2Z" transform="translate(-66.969 -66.267)" fill="#6c63ff" opacity="0.1"/><path d="M151.456,207v84.512H92.69c0-.244.035-.494.058-.738.052-.668.1-1.33.163-2,.058-.778.134-1.557.209-2.324s.151-1.7.244-2.539.168-1.7.261-2.539.186-1.685.29-2.521.2-1.685.314-2.521c.087-.691.174-1.388.273-2.086.134-.982.273-1.964.418-2.939a2.8,2.8,0,0,1,.07-.441,202.7,202.7,0,0,1,4.322-21.215,157.083,157.083,0,0,1,7.291-21.494A161.419,161.419,0,0,1,117.571,207Z" transform="translate(-47.905 -97.531)" fill="#6c63ff" opacity="0.1"/><path d="M218.09,215.027v80.358H344.01V215.027Zm0,82.845v69.013c.72.145,1.429.29,2.144.412.959.186,1.923.354,2.9.5l.581.081c.383.064.773.116,1.162.163.97.139,1.94.244,2.9.337.453.046.924.081,1.383.122l1.121.081h0c.61.046,1.214.081,1.818.1.372,0,.744.029,1.121.041s.581,0,.883,0h3.23c.5,0,1,0,1.493-.046h.029a8.888,8.888,0,0,0,1.04-.041,2.539,2.539,0,0,0,.3,0,7,7,0,0,0,.86-.035,1.219,1.219,0,0,1,.2,0c.645-.041,1.3-.093,1.952-.151s1.278-.128,1.934-.2l1.319-.163a115.685,115.685,0,0,0,15.946-3.393c11.752-3.276,23.237-7.86,34.983-11.212,15.174-4.328,31.95-6.46,46.613-1.191V297.872ZM344.01,125.555V18.573A161.8,161.8,0,0,0,303.1,23.365c-31.887,8.011-60.52,25.386-85.011,47.577v54.606h6.338v2.481H218.09v84.512H344.01V128.029H250.354v-2.486ZM505.783,89.416a52.128,52.128,0,0,1-22.83-6.634c-13.559-7.372-24.4-18.769-36.5-28.378C421.295,34.38,390.1,22.291,358.1,19.293V125.555H537.838l.447-.471Zm16.376-2.9,17.364,19.06V81.5c-5.844.738-10.933,2.451-17.364,4.99Zm17.364,297.511v-86.15H502.5c-.093-.366-.2-.738-.314-1.11.11.372.209.744.308,1.11H358.1v62.3c1.371,1.017,2.724,2.091,4.066,3.172h0q2.173,1.778,4.316,3.6l1.441,1.191c.691.581,1.394,1.162,2.091,1.714q2.1,1.69,4.223,3.346,1.063.837,2.138,1.644a291.669,291.669,0,0,0,35.808,23.417c2.8,1.563,5.629,3.067,8.476,4.537q2.841,1.464,5.722,2.87,4.322,2.109,8.714,4.066h0a319.851,319.851,0,0,0,84.814,24.7q9.748,1.435,19.583,2.266V384.01h.581ZM358.1,128.029v84.512H539.523V128.029Zm0,86.987v80.37H539.523V215.027ZM553.6,81.382v26.9l22.156-24.323Q564.746,82.137,553.6,81.382Zm0,133.646v80.358H730.058V215.027ZM729.437,390.395l.621-92.523H553.6V437.623a317.941,317.941,0,0,0,34.1-.412h.2q8.133-.523,16.19-1.487h.122a297.716,297.716,0,0,0,83.2-22.226M764.1,228.226q-1-2.324-2.062-4.647c-1.313-2.9-2.7-5.728-4.125-8.545H744.145v80.352h34.8c-.029-22.76-5.792-46-14.848-67.16Zm-19.954,69.646v79.586a113.883,113.883,0,0,0,24.05-32.438c7.174-14.808,10.457-30.829,10.73-47.153Zm0-106.261v20.913h12.478a227.249,227.249,0,0,0-12.478-20.913ZM624.476,97.154c-.918-.354-1.841-.709-2.765-1.046a251.045,251.045,0,0,0-29.8-8.958L558,124.364h0l-.662.715.436.471h120.7a257.87,257.87,0,0,0-54-28.4Zm57.54,30.876H556.079l-2.475,2.26v82.252H730.058V172.69a251.241,251.241,0,0,0-48.042-44.661Z" transform="translate(-100.458 -18.56)" fill="#6c63ff" opacity="0.1"/><path d="M151.456,280.39v41.878H92.69c0-.244.035-.494.058-.738.052-.668.1-1.33.163-2,.058-.778.134-1.557.209-2.324s.151-1.7.244-2.539.168-1.7.261-2.539.186-1.685.29-2.521.2-1.685.314-2.521c.087-.691.174-1.388.273-2.086.134-.982.273-1.964.418-2.939a2.8,2.8,0,0,1,.07-.441,202.7,202.7,0,0,1,4.322-21.215Z" transform="translate(-47.905 -128.287)" fill="#6c63ff" opacity="0.1"/><path d="M91.49,356.76h58.951v80.358H95.8c-.139.831-.279,1.656-.436,2.486h55.077v64.8a.829.829,0,0,1-.273-.1q-2.324-.924-4.647-1.958c-.331-.151-.656-.308-.993-.453q-2.324-1.1-4.647-2.324c-.54-.285-1.081-.581-1.609-.883a96.684,96.684,0,0,1-23.179-18.043c-.2-.192-.389-.4-.581-.581-.941-1.022-1.865-2.056-2.759-3.114-.337-.389-.662-.784-.993-1.162-1.057-1.29-2.08-2.626-3.067-3.968-.151-.2-.29-.4-.436-.581a85.814,85.814,0,0,1-9.992-18.067c-.081-.192-.157-.4-.232-.581-.8-2.033-1.528-4.1-2.155-6.2-.267-.877-.529-1.743-.749-2.655-.081-.261-.145-.529-.215-.79-3.265-12.867-3.642-26.24-3.642-39.549v-4.647q.07-8.15.192-16.283.046-2.091.087-4.2.122-5.339.349-10.7c.035-.988.081-1.981.134-2.963q.035-.854.087-1.708Q91.275,359.8,91.49,356.76Z" transform="translate(-46.891 -160.293)" fill="#6c63ff" opacity="0.1"/><path d="M246.46,191.595V264H202.13V191.595h6.32V167.08h25.944v24.515Z" transform="translate(-84.504 -70.019)" fill="#6c63ff" opacity="0.1"/><rect width="44.324" height="80.358" transform="translate(117.626 196.462)" fill="#6c63ff" opacity="0.1"/><path d="M218.09,499.37h44.324v66.805a114.811,114.811,0,0,1-15.946,3.387c-.442.064-.877.116-1.319.163-.651.076-1.3.145-1.94.2l-1.946.157h-.2l-.86.046h-.3c-.349,0-.691.041-1.04.047h-.029c-.5,0-.993.035-1.493.046h-4.113a9.147,9.147,0,0,1-1.127-.046q-.895-.035-1.812-.1h0l-1.121-.081c-.465-.035-.929-.081-1.388-.128q-1.464-.128-2.9-.331l-1.162-.163-.581-.081c-.97-.145-1.934-.308-2.9-.494-.72-.128-1.429-.273-2.144-.424Z" transform="translate(-100.458 -220.058)" fill="#6c63ff" opacity="0.1"/><rect width="36.551" height="80.951" transform="translate(402.508 113.025)" fill="#6c63ff" opacity="0.1"/><path d="M624.576,338.19v80.364H443.15V383.891h96.636v20.448h48.234V338.19Z" transform="translate(-185.511 -141.728)" fill="#6c63ff" opacity="0.1"/><path d="M641.1,584.737a3.289,3.289,0,0,1-.581-.035V637.42q-9.823-.807-19.577-2.26a320.273,320.273,0,0,1-84.849-24.689q-11.694-5.275-22.911-11.5a292.723,292.723,0,0,1-35.8-23.417q-4.287-3.276-8.447-6.7c-1.923-1.592-3.828-3.218-5.768-4.793-1.336-1.086-2.69-2.161-4.066-3.183V498.57H603.493c-.1-.372-.2-.738-.3-1.11.11.372.215.738.308,1.11h37.028V584.7C640.718,584.7,640.91,584.72,641.1,584.737Z" transform="translate(-201.461 -219.257)" fill="#6c63ff" opacity="0.1"/><path d="M918.328,181.5H894.51v-7.4h10.671V152.05q1.388.511,2.765,1.046v21h10.375Z" transform="translate(-383.934 -74.502)" fill="#6c63ff" opacity="0.1"/><path d="M934.286,291.512H817.347a.076.076,0,0,0,.035,0H795.65V210.561H801.8V270.4h28.082V234.96h23.208V207H876.9v27.977h23.2v35.436h34.193Z" transform="translate(-342.504 -97.531)" fill="#6c63ff" opacity="0.1"/><path d="M795.65,356.76v80.358H934.292V356.76ZM971.906,531.7l.2-63.61H934.292V439.628H795.65V579.356a317.949,317.949,0,0,0,34.1-.412h.2q8.133-.523,16.19-1.487h.122a297.714,297.714,0,0,0,83.2-22.226" transform="translate(-342.504 -160.293)" fill="#6c63ff" opacity="0.1"/><path d="M1126.09,499.37h32.34c-.279,16.318-3.555,32.345-10.73,47.147a113.828,113.828,0,0,1-24.05,32.444V527.841h2.44Z" transform="translate(-479.963 -220.058)" fill="#6c63ff" opacity="0.1"/><path d="M1160.213,446.64H1127.85V379.48h17.515C1154.421,400.643,1160.184,423.879,1160.213,446.64Z" transform="translate(-481.723 -169.814)" fill="#6c63ff" opacity="0.1"/><rect width="19.583" height="25.38" transform="translate(419.482 135.529)" fill="#6c63ff" opacity="0.1"/><rect width="19.583" height="5.844" transform="translate(419.482 188.137)" fill="#6c63ff" opacity="0.1"/><rect width="19.583" height="17.05" transform="translate(419.482 196.462)" fill="#6c63ff" opacity="0.1"/><rect width="19.583" height="25.38" transform="translate(419.482 240.745)" fill="#6c63ff" opacity="0.1"/><rect width="19.583" height="25.38" transform="translate(419.482 293.353)" fill="#6c63ff" opacity="0.1"/><path d="M757.283,633.578a2.823,2.823,0,0,1,.581.041,3.289,3.289,0,0,1-.581-.035v5.9H737.7V614.1h19.583Z" transform="translate(-318.218 -268.139)" fill="#6c63ff" opacity="0.1"/><path d="M757.283,704.65v19.6q-9.829-.807-19.583-2.26V704.65Z" transform="translate(-318.218 -306.087)" fill="#6c63ff" opacity="0.1"/><rect width="83.925" height="1.865" transform="translate(257.639 274.961)" fill="#6c63ff" opacity="0.1"/><rect width="83.925" height="7.145" transform="translate(257.639 279.306)" fill="#6c63ff" opacity="0.1"/><rect width="83.925" height="11.491" transform="translate(257.639 309.874)" fill="#6c63ff" opacity="0.1"/><path d="M545.959,612.08v11.491H480.315q-4.287-3.265-8.447-6.7c-1.929-1.586-3.834-3.213-5.768-4.787Z" transform="translate(-204.395 -267.293)" fill="#6c63ff" opacity="0.1"/><path d="M582.042,672.17v11.52h-6.93q-11.694-5.275-22.911-11.5Z" transform="translate(-240.478 -292.475)" fill="#6c63ff" opacity="0.1"/><rect width="16.521" height="16.521" transform="translate(487.246 204.252)" fill="#6c63ff" opacity="0.1"/><rect width="16.521" height="16.521" transform="translate(129.529 127.274)" fill="#6c63ff" opacity="0.1"/><rect width="16.521" height="16.521" transform="translate(129.529 165.65)" fill="#6c63ff" opacity="0.1"/><rect width="16.521" height="16.521" transform="translate(129.529 204.025)" fill="#6c63ff" opacity="0.1"/><rect width="16.521" height="16.521" transform="translate(129.529 242.395)" fill="#6c63ff" opacity="0.1"/><rect width="16.521" height="16.521" transform="translate(129.529 280.77)" fill="#6c63ff" opacity="0.1"/><rect width="16.521" height="16.521" transform="translate(129.529 319.146)" fill="#6c63ff" opacity="0.1"/><rect width="16.521" height="16.521" transform="translate(550.316 204.252)" fill="#6c63ff" opacity="0.1"/><rect width="16.521" height="16.521" transform="translate(487.246 245.003)" fill="#6c63ff" opacity="0.1"/><rect width="16.521" height="16.521" transform="translate(550.316 245.003)" fill="#6c63ff" opacity="0.1"/><rect width="16.521" height="16.521" transform="translate(487.246 285.749)" fill="#6c63ff" opacity="0.1"/><rect width="16.521" height="16.521" transform="translate(550.316 285.749)" fill="#6c63ff" opacity="0.1"/><rect width="16.521" height="16.521" transform="translate(487.246 326.5)" fill="#6c63ff" opacity="0.1"/><rect width="16.521" height="16.521" transform="translate(550.316 326.5)" fill="#6c63ff" opacity="0.1"/><rect width="16.521" height="16.521" transform="translate(487.246 367.251)" fill="#6c63ff" opacity="0.1"/><rect width="16.521" height="16.521" transform="translate(550.316 367.251)" fill="#6c63ff" opacity="0.1"/><path d="M838.4,712.984V702.33h16.515v9.138Z" transform="translate(-351.154 -294.333)" fill="#6c63ff" opacity="0.1"/><path d="M96.53,316.91v9.452h56.535V316.91Zm5.629,8.859H97.512v-8.261h4.647Zm5.629,0h-4.647v-8.261h4.647Zm5.617,0h-4.647v-8.261h4.647Zm5.629,0h-4.647v-8.261h4.647Zm5.623,0h-4.647v-8.261h4.647Zm5.629,0H125.64v-8.261h4.647Zm5.629,0h-4.647v-8.261h4.647Zm5.623,0h-4.647v-8.261h4.647Zm5.623,0h-4.647v-8.261h4.647Zm5.629,0h-4.647v-8.261h4.647Z" transform="translate(-49.514 -143.592)" fill="#6c63ff" opacity="0.1"/><path d="M96.53,364.27v9.452h56.535V364.27Zm5.629,8.859H97.512v-8.261h4.647Zm5.629,0h-4.647v-8.261h4.647Zm5.617,0h-4.647v-8.261h4.647Zm5.629,0h-4.647v-8.261h4.647Zm5.623,0h-4.647v-8.261h4.647Zm5.629,0H125.64v-8.261h4.647Zm5.629,0h-4.647v-8.261h4.647Zm5.623,0h-4.647v-8.261h4.647Zm5.623,0h-4.647v-8.261h4.647Zm5.629,0h-4.647v-8.261h4.647Z" transform="translate(-49.514 -163.44)" fill="#6c63ff" opacity="0.1"/><path d="M96.53,411.64v9.446h56.535V411.64Zm5.629,8.847H97.512v-8.261h4.647Zm5.629,0h-4.647v-8.261h4.647Zm5.617,0h-4.647v-8.261h4.647Zm5.629,0h-4.647v-8.261h4.647Zm5.623,0h-4.647v-8.261h4.647Zm5.629,0H125.64v-8.261h4.647Zm5.629,0h-4.647v-8.261h4.647Zm5.623,0h-4.647v-8.261h4.647Zm5.623,0h-4.647v-8.261h4.647Zm5.629,0h-4.647v-8.261h4.647Z" transform="translate(-49.514 -183.292)" fill="#6c63ff" opacity="0.1"/><path d="M96.53,459v9.446h56.535V459Zm5.629,8.853H97.512v-8.272h4.647Zm5.629,0h-4.647v-8.272h4.647Zm5.617,0h-4.647v-8.272h4.647Zm5.629,0h-4.647v-8.272h4.647Zm5.623,0h-4.647v-8.272h4.647Zm5.629,0H125.64v-8.272h4.647Zm5.629,0h-4.647v-8.272h4.647Zm5.623,0h-4.647v-8.272h4.647Zm5.623,0h-4.647v-8.272h4.647Zm5.629,0h-4.647v-8.272h4.647Z" transform="translate(-49.514 -203.14)" fill="#6c63ff" opacity="0.1"/><path d="M97,506.34c.221.895.482,1.778.749,2.655v-2.056H102.4v8.255H99.9c.07.2.145.4.227.581h53.154V506.34Zm11.037,8.853H103.39v-8.255h4.647Zm5.617,0h-4.647v-8.255h4.647Zm5.629,0h-4.647v-8.255h4.647Zm5.623,0H120.26v-8.255h4.647Zm5.629,0h-4.647v-8.255h4.647Zm5.629,0h-4.647v-8.255h4.647Zm5.623,0h-4.647v-8.255h4.647Zm5.623,0h-4.647v-8.255h4.647Zm5.629,0h-4.647v-8.255h4.647Z" transform="translate(-49.711 -222.979)" fill="#6c63ff" opacity="0.1"/><path d="M119.54,553.7c.151.186.29.4.436.581h3.073v3.968l.993,1.162v-5.153h4.647v8.33h-1.911c.186.192.366.4.581.581H162.7V553.7Zm14.79,8.888h-4.647v-8.3h4.647Zm5.629,0h-4.647v-8.3h4.647Zm5.629,0h-4.647v-8.3h4.647Zm5.623,0h-4.647v-8.3h4.647Zm5.623,0h-4.647v-8.3h4.647Zm5.629,0h-4.647v-8.3h4.647Z" transform="translate(-59.157 -242.827)" fill="#6c63ff" opacity="0.1"/><path d="M172.93,601.06c.534.3,1.075.581,1.615.877v-.29h4.647v2.62c.337.145.656.3.988.453v-3.073h4.647v5.031a1.893,1.893,0,0,0,.273.1V601.06Z" transform="translate(-81.532 -262.674)" fill="#6c63ff" opacity="0.1"/><path d="M579.874,289.718ZM544.089,461.176ZM506.754,373.94c.11.372.209.744.308,1.11h0C506.975,374.683,506.87,374.311,506.754,373.94Zm73.12-84.221ZM229,202.732v2.475h25.95V202.72ZM544.1,461.176ZM506.754,373.94c.11.372.209.744.308,1.11h0C506.975,374.683,506.87,374.311,506.754,373.94Zm73.12-84.221ZM544.089,461.176ZM506.754,373.94c.11.372.209.744.308,1.11h0C506.975,374.683,506.87,374.311,506.754,373.94Z" transform="translate(-105.03 -95.737)" fill="#6c63ff" opacity="0.1"/><ellipse cx="56.605" cy="9.091" rx="56.605" ry="9.091" transform="translate(454.477 483.075)" fill="#6c63ff" opacity="0.1"/><ellipse cx="56.605" cy="9.091" rx="56.605" ry="9.091" transform="translate(199.187 473.983)" fill="#6c63ff" opacity="0.1"/><path d="M495.284,369.3a.308.308,0,0,0-.087-.151c-.866-.854-11.9-16.463-11.9-16.463s-.581-1.743-1.522-4.008a3.985,3.985,0,0,0,.668-1.307,4.49,4.49,0,0,0,.11-.61c0-.064.046-.116.064-.18a4.41,4.41,0,0,0-.058-2.393,4.142,4.142,0,0,1-.238.581,9.712,9.712,0,0,0-.871-1.94c-1.464-2.521-3.555-4.647-5.095-7.1a19.222,19.222,0,0,1-2.62-12.757c0,.227,0,.459,0,.685a19.886,19.886,0,0,1,.349-2.614,18.136,18.136,0,0,1,.97-2.87c1.383-3.166,3.619-5.925,4.978-9.1a17.248,17.248,0,0,0,1.034-3.329,18.647,18.647,0,0,0,.517-5.838,9.3,9.3,0,0,1-.145,1.388A18.909,18.909,0,0,0,476.1,288.7c-4.746-4.769-11.56-6.622-18.078-7.6a16.562,16.562,0,0,1-7.61-2.9,13.23,13.23,0,0,0-8.667-1.656,14.3,14.3,0,0,0-8.824,4.363c-3.1,3.4-4.438,8.226-8.051,11.1-2.19,1.743-4.967,2.556-7.517,3.741s-4.961,2.9-5.78,5.449v.093l-.035.093c-.848,3.009.79,6.071,1.644,9.074a36.767,36.767,0,0,1,.993,9.6c.064,3.927.122,7.86.058,11.793-.029,1.545-.081,3.108-.2,4.647a24.353,24.353,0,0,0-3.991,1.6c-1.3.848-6.169,6.105-6.169,6.105l-9.521,36.377.128.145-.128.494.482-.11a49.014,49.014,0,0,0,9.719,8.168l.407,7.134s.488,7.157,7.07,10.114c.151,2.48.622,12.554-1.557,16.544a18.59,18.59,0,0,0-2.056,9.457s.761,6.053-.1,9.237a15.1,15.1,0,0,0-.11,6.483h0v1.911c0,6.442.076,27.088,0,29.423-.11,2.759,0,43.569,0,43.569s-.54,20.4-2.271,25.92-1.3,23.818-1.3,23.818-1.086,21.79,2.754,26.089c0,.192-.035.389-.041.581v.273c-.046,1.656.273,3.416,1.7,3.956a24.308,24.308,0,0,1,7.471,5.42c.726.959,4.949,3.346,10.457,2.707a78.733,78.733,0,0,1,10.393-.476h0s2.173-.4,1.47-3.1h0a24.189,24.189,0,0,0-3.358-5.978c.221.058.436.1.639.145l.209.041h.163a2.193,2.193,0,0,0,.267,0h.116a1.99,1.99,0,0,0,.325,0h0c1.458-.139,6.9,2.393,7.866,4.066s4.392,2.945,6.971,3.265a49.522,49.522,0,0,0,8.65-.546,31.844,31.844,0,0,0,4.845-.883c.767-.29.929-1.22.709-2.266h0a5.9,5.9,0,0,0-2.01-3.393,16.313,16.313,0,0,1-3.1-3.869l-.244-.389c1.621-1.545,4.549-6.6,5.437-7.645,1.08-1.272-1.743-47.8-1.743-47.8V519.767l4.328-22.075,3.027-11.682,2.6-17.637s4.543-20.6,3.143-22.621h0c0-.041-1.162-21.25-2.382-26.345-.529-2.271-.4-7.383-.081-12.356a2.44,2.44,0,0,0,.581-2.544,5.286,5.286,0,0,0-.337-.866v-.267a40,40,0,0,1,7.825-2.661c4.328-.848,3.247-3.079,3.247-3.079s.976-1.911,1.621-3.079.11-11.473,0-12.321c-.041-.343-.308-2.237-.616-4.386,1.388-.988,3.2-2.213,5.164-3.375C496.435,372.255,495.592,369.914,495.284,369.3Zm-56.465,147.28s-3.247,8.284-1.946,10.4-.215,9.992-.215,9.992l-1.086,11.682s-3.027,21.668-1.946,26.763c.848,4,1.162,15.935,1.261,20.913h0a1.471,1.471,0,0,0-.215.1l-.145.076c.5-1.958.29-5.92-2.19-13.89l-.209-32.921s-.383-38.027,2.62-42.279,4.066-11.473,4.066-11.473-.651,10.416-1.075,13.175S438.819,516.584,438.819,516.584Zm-6.047,81.828c-.029.07-.064.139-.087.2l-.163-.209A1.706,1.706,0,0,0,432.772,598.412Z" transform="translate(-174.326 -126.624)" fill="url(#a)"/><path d="M493.908,843.918c-1.679.645-10.782,1.743-13.326,1.435s-5.914-1.6-6.872-3.282-6.332-4.229-7.773-4.066a5.227,5.227,0,0,1-1.743-.244,21.449,21.449,0,0,1-2.9-1.115,5.391,5.391,0,0,1,.064-2.208,3.54,3.54,0,0,1,.128-.43,3.84,3.84,0,0,1,1.952-2.173l.209-.1a5.908,5.908,0,0,1,1.255-.383c4.566-.877,23.405.883,23.405.883s.529.947,1.255,2.12a16.214,16.214,0,0,0,3.067,3.892,5.954,5.954,0,0,1,1.981,3.416C494.825,842.693,494.663,843.634,493.908,843.918Z" transform="translate(-202.343 -359.084)" fill="#fff"/><path d="M493.913,845.093c-1.679.645-10.776,1.743-13.32,1.435s-5.914-1.6-6.878-3.282-6.326-4.229-7.767-4.066-4.647-1.359-4.647-1.359a4.815,4.815,0,0,1,.953-3.91l2.9,2.062s7.773,2.411,9.213,4.647,4.066,3.485,7.86,3.712c2.835.186,9.347-.918,12.4-1.47C494.831,843.867,494.674,844.808,493.913,845.093Z" transform="translate(-202.349 -360.258)" opacity="0.1"/><path d="M448.23,847.033a77.334,77.334,0,0,0-10.259.482c-5.455.639-9.62-1.743-10.346-2.725a24.241,24.241,0,0,0-7.372-5.461c-1.412-.546-1.743-2.324-1.679-3.985v-.273a16.266,16.266,0,0,1,.465-3.119l22.6-.482,1.958,2.655.3.407,1.191,1.621s.54.709,1.249,1.743a24.8,24.8,0,0,1,3.317,6.018h0C450.374,846.638,448.23,847.033,448.23,847.033Z" transform="translate(-184.475 -359.235)" fill="#fff"/><path d="M448.23,849.836a77.344,77.344,0,0,0-10.259.482c-5.449.639-9.62-1.743-10.34-2.724a23.559,23.559,0,0,0-7.378-5.449c-1.412-.546-1.743-2.324-1.679-3.985,1.615.378,5.008,1.342,6.338,3.021,1.743,2.242,4.862,6.013,9.295,6.251,3.578.192,12.292-.447,15.487-.7C450.38,849.441,448.23,849.836,448.23,849.836Z" transform="translate(-184.475 -362.039)" opacity="0.1"/><path d="M445.525,831.955c-.261,1.94-1.069,2.463-1.65,2.579a1.122,1.122,0,0,1-.43,0,1.427,1.427,0,0,1-.227-.035s-20.3,4.485-24.4.854a2.85,2.85,0,0,1-.29-.3,16.269,16.269,0,0,1,.465-3.12l22.6-.482,1.958,2.655a3.84,3.84,0,0,1,1.952-2.173Z" transform="translate(-184.459 -359.227)" opacity="0.1"/><path d="M491.292,834.3c-.453.5-.831.784-1.069.685-1.069-.43-9.829-1.923-12.612-.639s-12.2.209-12.2.209,0-1.115-.052-2.9a5.914,5.914,0,0,1,1.255-.383c4.566-.877,23.405.883,23.405.883S490.572,833.122,491.292,834.3Z" transform="translate(-204.085 -359.046)" opacity="0.1"/><path d="M482.912,588.86,480.345,606.6l-2.986,11.758-4.276,22.226v23.527s2.777,46.81,1.708,48.088-5.129,8.557-6.2,8.133-9.829-1.923-12.612-.645-12.2.215-12.2.215-.215-18.165-1.284-23.295,1.923-26.931,1.923-26.931l1.069-11.752s1.5-7.912.215-10.05,1.923-10.456,1.923-10.456-1.493-4.711-1.063-7.488,1.063-13.251,1.063-13.251-1.063,7.273-4.032,11.543-2.591,42.535-2.591,42.535l.209,33.112c5.35,17.532,0,15.818,0,15.818s-20.3,4.49-24.4.854-2.928-26.525-2.928-26.525-.424-18.38,1.284-23.934,2.248-26.077,2.248-26.077-.11-41.042,0-43.813c.081-2.324,0-23.126,0-29.627v-1.923l2.451-6.088,29.046-3.637h13.9s20.913,4.915,23.074,7.035a.483.483,0,0,1,.116.128C487.4,568.133,482.912,588.86,482.912,588.86Z" transform="translate(-182.448 -245.014)" fill="#6c63ff"/><path d="M472.11,770.88s6.39,15.388,9.405,16.457S472.11,770.88,472.11,770.88Z" transform="translate(-206.914 -333.843)" opacity="0.1"/><path d="M476.18,809.88s21.575,1.069,21.36,3.422S476.18,809.88,476.18,809.88Z" transform="translate(-208.619 -350.187)" opacity="0.1"/><path d="M426.49,799.29c.854.807,16.457,2.324,15.174,3.8s-13.89,4.345-13.89,4.345Z" transform="translate(-187.795 -345.749)" opacity="0.1"/><path d="M422.08,753.59c0,.639,3.207,20.518,4.066,21.372s7.906,1.708,7.906,1.708Z" transform="translate(-185.947 -326.597)" opacity="0.1"/><path d="M445.987,282.585c-3.061,3.422-4.386,8.272-7.953,11.165-2.167,1.743-4.909,2.573-7.43,3.759s-5.019,2.992-5.768,5.676c-.837,3.021.778,6.105,1.627,9.126a37.78,37.78,0,0,1,.982,9.661c.058,3.956.122,7.912.052,11.868-.1,6.164-.616,12.612-3.886,17.834,11.81,3.759,24.369,4.27,36.755,4.752a37.086,37.086,0,0,0,7.139-.18,61.271,61.271,0,0,0,6.082-1.539,46.635,46.635,0,0,1,12.118-1.551,20.346,20.346,0,0,0,5.321-.354,5.25,5.25,0,0,0,3.84-3.375,6.27,6.27,0,0,0-.982-4.578c-1.441-2.533-3.486-4.647-5.031-7.145a19.635,19.635,0,0,1-1.261-17.654c1.371-3.189,3.578-5.966,4.926-9.161a19.321,19.321,0,0,0-3.892-20.495c-4.688-4.8-11.415-6.657-17.852-7.645a16.214,16.214,0,0,1-7.517-2.9,12.866,12.866,0,0,0-8.563-1.661,13.977,13.977,0,0,0-8.708,4.4Z" transform="translate(-186.588 -127.31)" fill="#3f3d56"/><g transform="translate(237.254 174.364)" opacity="0.1"><path d="M532.958,333.733a19.327,19.327,0,0,0-1.481,8.871,18.994,18.994,0,0,1,1.481-6.3c1.365-3.189,3.573-5.966,4.92-9.161a18.536,18.536,0,0,0,1.354-8.435,18.066,18.066,0,0,1-1.354,5.867C536.531,327.772,534.323,330.543,532.958,333.733Z" transform="translate(-469.028 -318.71)"/><path d="M428.467,339.135c.035,2.277.07,4.56.076,6.837q0-4.705-.076-9.4a37.7,37.7,0,0,0-.982-9.666,47.867,47.867,0,0,1-1.743-6.007c-.517,2.846.953,5.734,1.743,8.574A37.523,37.523,0,0,1,428.467,339.135Z" transform="translate(-424.691 -319.628)"/><path d="M491.391,398.661a19.642,19.642,0,0,1-5.315.354,46.6,46.6,0,0,0-12.112,1.522,61.689,61.689,0,0,1-6.082,1.534,36.7,36.7,0,0,1-7.145.186c-11.967-.471-24.1-.976-35.564-4.4a19.718,19.718,0,0,1-1.162,2.207c11.81,3.753,24.369,4.27,36.749,4.752a36.7,36.7,0,0,0,7.145-.186,60.088,60.088,0,0,0,6.059-1.528,46.6,46.6,0,0,1,12.089-1.539,20.057,20.057,0,0,0,5.315-.36,5.254,5.254,0,0,0,3.84-3.369,4.612,4.612,0,0,0-.058-2.417A5.423,5.423,0,0,1,491.391,398.661Z" transform="translate(-424.01 -350.858)"/></g><path d="M481.7,364.491c-.43.964-2.242,9.295-2.672,10.149s-2.777,14.523-2.992,15.29-15.47-3.207-15.47-3.207l-9.184-7.7-9.44-9.393s-.279-8.476,6.675-11.194a10.612,10.612,0,0,1,1.452-.453c8.435-2.027,7.587-27.675,7.587-27.675l17.311,7.476s-3.207,14.964-3.1,17.852c.029.97.79,1.574,1.783,1.94a14.1,14.1,0,0,0,4.729.511S482.127,363.533,481.7,364.491Z" transform="translate(-194.269 -149.208)" fill="#fbbebe"/><path d="M547.231,436.608l2.457.645s1.818,2.765-2.457,5.339a74.065,74.065,0,0,0-7.8,5.455l-12.635,3.846-2.434-7.639,11.758-8.923Z" transform="translate(-228.811 -193.22)" fill="#6c63ff"/><path d="M547.231,436.608l2.457.645s1.818,2.765-2.457,5.339a74.065,74.065,0,0,0-7.8,5.455l-12.635,3.846-2.434-7.639,11.758-8.923Z" transform="translate(-228.811 -193.22)" opacity="0.1"/><path d="M401.455,449.228l-4.915,4.81s8.865,10.259,15.685,10.9,11.217-7.8,11.217-7.8l-5.9-9.295Z" transform="translate(-175.243 -198.463)" fill="#6c63ff"/><path d="M401.455,449.228l-4.915,4.81s8.865,10.259,15.685,10.9,11.217-7.8,11.217-7.8l-5.9-9.295Z" transform="translate(-175.243 -198.463)" opacity="0.1"/><circle cx="17.096" cy="17.096" r="17.096" transform="translate(255.797 163.669)" opacity="0.1"/><circle cx="17.096" cy="17.096" r="17.096" transform="translate(255.797 162.385)" fill="#fbbebe"/><path d="M488.67,568.036a55.187,55.187,0,0,0-11.438,2.562c-6.39,2.126-56.465.035-57.162,0v-1.923l2.451-6.088,29.046-3.637h13.9s20.913,4.915,23.074,7.035C488.624,567.263,488.67,568.036,488.67,568.036Z" transform="translate(-185.104 -245.027)" opacity="0.1"/><path d="M481.7,384.163c-.43.964-2.242,9.295-2.672,10.149s-2.777,14.523-2.992,15.29-15.47-3.207-15.47-3.207l-9.184-7.7-9.44-9.393s-.279-8.476,6.675-11.194l17.265,19.85,7.773-20.71a14.1,14.1,0,0,0,4.729.511S482.127,383.2,481.7,384.163Z" transform="translate(-194.269 -168.88)" opacity="0.1"/><path d="M453.621,397.958,435.95,377.625a7.406,7.406,0,0,0-7.012-.517c-3.956,1.714-8.871,3.1-10.154,3.956s-6.094,6.14-6.094,6.14l14.325,37.475-6.309,24.683s.964,12.612-1.493,17.207a18.886,18.886,0,0,0-2.033,9.51s.749,6.094-.1,9.295a15.481,15.481,0,0,0-.11,6.518s50.766,2.138,57.174,0a54.709,54.709,0,0,1,11.438-2.562s-1.162-21.378-2.324-26.507.964-24.683.964-24.683l-1.388-20.948,8.33-21.494s-4.514-13.779-9.219-15.168c0,0-8.545-2.033-10.364-2.992s-7.163-1.818-7.163-1.818l-2.806.941Z" transform="translate(-182.012 -168.238)" fill="#6c63ff"/><rect width="40.687" height="62.263" rx="2.94" transform="translate(257.377 245.602) rotate(3.89)" opacity="0.1"/><rect width="40.687" height="62.263" rx="2.94" transform="translate(258.657 244.327) rotate(3.89)" fill="#3f3d56"/><rect width="35.448" height="53.572" transform="translate(260.954 249.169) rotate(3.89)" fill="#fff"/><rect width="28.96" height="8.071" transform="translate(264.258 263.193) rotate(4.004)" opacity="0.1"/><rect width="4.595" height="4.206" transform="translate(287.519 296.901) rotate(3.89)" opacity="0.1"/><rect width="23.521" height="4.206" transform="translate(264.114 285.49) rotate(3.89)" opacity="0.1"/><rect width="24.491" height="6.466" transform="translate(267.508 247.914) rotate(3.89)" fill="#3f3d56"/><rect width="24.491" height="6.466" transform="translate(267.508 247.914) rotate(3.89)" opacity="0.1"/><path d="M480.661,572.56s-.215,31.637-8.551,49.8c0,0,10.05-23.94,10.05-24.9s5.554-11.008,4.066-14S480.661,572.56,480.661,572.56Z" transform="translate(-206.914 -250.731)" opacity="0.1"/><path d="M472.778,307.188a11.891,11.891,0,0,1,1.934-7.964,9.812,9.812,0,0,0,7.587,10.34,1.284,1.284,0,0,1-.366-1.406,43.018,43.018,0,0,0,3.451,4.13c1.348,1.185,3.369,1.894,4.955,1.051,2.155-1.162,2.178-4.223,1.621-6.605a31.021,31.021,0,0,0-7.14-13.634,9.445,9.445,0,0,0-7.494-3.811,18.435,18.435,0,0,0-9.684,1.516A25.735,25.735,0,0,0,463,294.054l-8.133,6.634a7.72,7.72,0,0,0-1.975,2.08,5.692,5.692,0,0,0-.616,2.178,11.74,11.74,0,0,0,5.472,11.078,8.661,8.661,0,0,1,5.188-8.133,2.254,2.254,0,0,1,.807,1.679l1.714-3.056a3.364,3.364,0,0,1,1.162-1.377c1.057-.581,2.376.1,3.276.924s1.778,1.842,2.986,1.969l.047-4.549" transform="translate(-198.577 -131.982)" opacity="0.1"/><path d="M472.795,306.088a11.9,11.9,0,0,1,1.934-7.97,9.817,9.817,0,0,0,7.593,10.34,1.272,1.272,0,0,1-.366-1.4,43.741,43.741,0,0,0,3.451,4.13c1.348,1.191,3.369,1.894,4.955,1.046,2.155-1.162,2.178-4.223,1.621-6.6A31.021,31.021,0,0,0,484.843,292a11.427,11.427,0,0,0-3.991-3.1,11.619,11.619,0,0,0-3.486-.709,18.431,18.431,0,0,0-9.684,1.51,26.061,26.061,0,0,0-4.647,3.253l-8.133,6.634a7.639,7.639,0,0,0-1.975,2.08,5.663,5.663,0,0,0-.616,2.178,11.734,11.734,0,0,0,5.472,11.072,8.673,8.673,0,0,1,5.188-8.133,2.271,2.271,0,0,1,.807,1.679l1.708-3.044a3.329,3.329,0,0,1,1.162-1.377c1.057-.581,2.376.1,3.276.924s1.778,1.836,2.986,1.969l.047-4.554" transform="translate(-198.594 -131.521)" fill="#3f3d56"/><path d="M464.319,480.853c-1.493-.755-26.182,3.1-26.182,3.1a141.3,141.3,0,0,0-13.9-2.777c-9.829-1.615-10.456-11.223-10.456-11.223l-1.075-19.234,3.317-2.9,14.209,9.295a45.9,45.9,0,0,1,0,5.548,7.823,7.823,0,0,0-.476,1.743.581.581,0,0,0,.476.523c.964.244,14.1,2.37,14.1,2.37s30.458-2.085,38.05,8.174a7.714,7.714,0,0,1,1.342,2.533C485.615,485.006,465.672,481.521,464.319,480.853Z" transform="translate(-182.02 -198.45)" fill="#fbbebe"/><path d="M495.725,490.029c-1.162.517-1.882.889-1.882.889s-10.9-.32-17.021-2.539-13.564-1.824-13.564-1.824-25.514-4.392-21.558-10.125a.581.581,0,0,0,.476.523c.964.244,14.1,2.37,14.1,2.37s30.458-2.085,38.05,8.174A7.714,7.714,0,0,1,495.725,490.029Z" transform="translate(-193.994 -210.444)" opacity="0.1"/><path d="M506.334,441.58s1.5,10.578,1.6,11.438.645,11.218,0,12.4-1.6,3.1-1.6,3.1,1.069,2.242-3.207,3.1a43.883,43.883,0,0,0-9.295,3.416s-10.9-.319-16.992-2.562-13.57-1.818-13.57-1.818S430.885,465.09,444.78,458.3s23.725,2.405,23.725,2.405L484,459.751s5.774-3.532,7.378-3.207a5.932,5.932,0,0,0,3.311-.534l.11-11.223Z" transform="translate(-194.008 -195.839)" fill="#fbbebe"/><path d="M408.981,396.763l-3.1-.163-9.4,36.6s10.149-2.568,14.523,0,12.4,3.1,12.4,3.1l-2.992-29.174Z" transform="translate(-175.218 -176.989)" opacity="0.1"/><path d="M408.981,395.653l-3.1-.163-9.4,36.6s10.149-2.568,14.523,0,12.4,3.1,12.4,3.1l-2.992-29.174Z" transform="translate(-175.218 -176.524)" fill="#6c63ff"/><path d="M535.426,409.57l4.27.964s10.9,15.685,11.758,16.562-4.066,4.066-6.094,4.066-11.967,1.162-14.854,3.846-1.685-10.822-1.685-11.13,3.584-8.83,3.584-8.83Z" transform="translate(-230.576 -182.424)" opacity="0.1"/><path d="M535.426,408.47l4.27.959S550.6,425.142,551.453,426s-4.066,4.066-6.094,4.066-11.967,1.162-14.854,3.846-1.685-10.822-1.685-11.13,3.608-8.859,3.608-8.859Z" transform="translate(-230.576 -181.963)" fill="#6c63ff"/><g transform="translate(253.663 165.313)" opacity="0.1"><path d="M474.7,304.466a8.567,8.567,0,0,1,.029-1.336,11.892,11.892,0,0,0-1.789,4.386v1.621c0,.941,0,1.888-.029,2.829h-.081v.436a2.315,2.315,0,0,0-.029-.447c-1.162-.186-1.993-1.162-2.858-1.94s-2.219-1.522-3.276-.924a3.329,3.329,0,0,0-1.162,1.377l-1.725,3.044a2.248,2.248,0,0,0-.807-1.673,8.661,8.661,0,0,0-5.188,8.133,11.8,11.8,0,0,1-5.513-9.254,11.746,11.746,0,0,0,5.513,10.532,8.673,8.673,0,0,1,5.188-8.133,2.271,2.271,0,0,1,.807,1.679l1.708-3.044a3.329,3.329,0,0,1,1.162-1.377c1.057-.581,2.376.1,3.276.924s1.778,1.836,2.986,1.969q0-2.231.047-4.45a11.833,11.833,0,0,1,1.743-4.351Z" transform="translate(-452.256 -303.13)"/><path d="M487.5,313.505c.029-.4.076-.79.134-1.162l.064-1.6A11.755,11.755,0,0,0,487.5,313.505Z" transform="translate(-467.021 -306.319)"/><path d="M511.731,323.7c-1.586.848-3.607.139-4.955-1.046a43.019,43.019,0,0,1-3.451-4.13,1.284,1.284,0,0,0,.366,1.406,1.371,1.371,0,0,1-.337-.087,38.393,38.393,0,0,0,3.422,4.066c1.336,1.162,3.369,1.894,4.955,1.046s2.039-2.835,1.9-4.769A4.033,4.033,0,0,1,511.731,323.7Z" transform="translate(-473.626 -309.58)"/><path d="M498.132,314.542a9.876,9.876,0,0,1-7.238-8.632,9.812,9.812,0,0,0,7.61,10.009A1.278,1.278,0,0,1,498.132,314.542Z" transform="translate(-468.439 -304.295)"/></g><path d="M894.3,391.988s-2.289-.32-2.289-3.648-1.638-9.562-1.638-9.562h0s-1.417-10.846-3.375-12.565-4.473-11.816-4.473-11.816-.43-5.478-1.307-6.657-2.062-4.066-3.811-8.185-9.022-6.942-9.022-6.942-13.181-7.645-16.916-10.137h0a5.77,5.77,0,0,1-.953-.72c-.651-.848-3.486-.866-3.486-.866a57.408,57.408,0,0,1-.674-5.972v-.627a20.1,20.1,0,0,0,8.836-10.933c.07-.221.128-.447.192-.674a1.888,1.888,0,0,0,1.162-1.022,20.486,20.486,0,0,1,.761-2.324,8.611,8.611,0,0,1,2.149-1.882c1.847-1.574,2.324-4.217,2.237-6.617-.058-1.952-.372-3.915-.25-5.85a2.3,2.3,0,0,1,.035-.488c.035-.285.076-.581.128-.86.285-1.441.906-2.8,1.255-4.229a5.441,5.441,0,0,0-.43-4.27c-1.191-1.807-3.671-2.167-5.85-2.324-2.469-.209-4.647.058-6.256-1.993a21.906,21.906,0,0,0-2.486-3c-.325-.3-3.485-2.237-3.485-2.359a14.122,14.122,0,0,0-9.876-.761c-1.644.476-3.183,1.255-4.851,1.644-3.578.848-7.7-.07-10.747,1.981a12.683,12.683,0,0,0-3.666,4.81q-1.162,2.219-2.359,4.444a28.6,28.6,0,0,0-3.131,7.6,12.879,12.879,0,0,0-.215,1.783h0v.924a3.188,3.188,0,0,0,.035.581,3.333,3.333,0,0,0,.041.36c.041.122.052.4.087.581s.1.517.174.767a1.18,1.18,0,0,0,.1.325c.035.11.128.389.2.581s.081.2.128.3a5.445,5.445,0,0,0,.3.581c.047.076.081.151.128.227a6.58,6.58,0,0,0,.534.778c1.237,1.551,3.073,2.539,4.427,3.991v.651a19.885,19.885,0,0,0,9.109,16.208c0,.221.029.447.041.674a33.157,33.157,0,0,1-.064,5.17,2.451,2.451,0,0,0-1.929-.86,2.765,2.765,0,0,0-.744.064l-.052-.041h0v.052c-1.278.314-2.852,1.644-4.357,5.426,0,0-4.578,5.159-8.063,4.944s-12.31,5.373-12.31,5.373-8.609,5.583-10.456,11.276a78.814,78.814,0,0,1-3.712,9.457l-10.671,21.912h0L770.5,394.707s1.086,7.732.871,8.917,4.467,11.816,4.467,11.816,15.47,27.175,21.79,28.569l.453-.314a3.954,3.954,0,0,0,.854.314l1.3-.912a13.6,13.6,0,0,1-.1,3.061c-.865,2.69.331,20.2,1.853,23.632s.982,48.454.982,48.454l-.215,3.968a1.684,1.684,0,0,0,.052.349l-.052.941.157.081a11.229,11.229,0,0,1-.157,3.788,42,42,0,0,0-.767,6.663s-4.357,27.814-2.289,33.4,3.817,11.711,3.817,11.711,2.178,6.971.1,8.133-7.947,3.224-6.75,6.123c1.1,2.684,5.292,9.876,5.914,10.927l-.052.581-.854,9.254a11.618,11.618,0,0,0,.982,3.532,6.074,6.074,0,0,0,6.21,3.88c.581-.041,1.249-.1,1.905-.192a82.554,82.554,0,0,0,14.11-3.677,5.567,5.567,0,0,1-1.1-.912h0a3.189,3.189,0,0,1-.97-2.324c.093-1.69-3.062-9.713-3.852-11.694l-.18-.441s7.192-7.523,6-14.18c0,0-7.959-4.647-5.339-7.2s7.3-9.876,7.3-9.876.215-27.39,0-31.474a33.922,33.922,0,0,1,.4-8.5c.087-.418.192-.831.3-1.243a74.212,74.212,0,0,0,10.956.831q2.01,0,4.066-.081,0,.581.052,1.255c.3,6.785.866,18.688,1.324,23.109.651,6.332,4.247,23.417,4.247,23.417s-6.861,4.4,1.2,15.255c0,0,0,3.927-.534,4.5h0a49.168,49.168,0,0,0-1.377,5.676c-.337,2.039-.476,4.113.07,5.182,1.307,2.568,9.149,2.359,9.149,2.359h0a1.24,1.24,0,0,1,.192-.029,11.194,11.194,0,0,1,8.3,2.5c2.98,2.393,14.285,1.348,20.413.581,2.4-.308,4-.581,4-.581a2.351,2.351,0,0,0,.081-.837h0c-.064-1.5-1.243-4.8-9.237-7.749,0,0-7.517-5.054-7.413-9.457H872.1c.546-.017.93-.017.93-.017s-2.945-10.741-1.743-11.618-2.4-12.78-2.4-12.78-2.062-19.984-2.178-21.378a12.282,12.282,0,0,1,.546-3.544l-.546-10.962s-.1-3.642,0-4.827a22.7,22.7,0,0,0-.244-3.073c-.052-.407-.1-.831-.163-1.249,2.817-.714,4.647-1.371,4.647-1.371l-.325-38.137c2.393-4.647,2.835-14.848,2.823-22.075,0-4.647-.209-8.086-.209-8.086l3.271-5.339s.755-6.39-.442-7.79a1.341,1.341,0,0,1,.145-1.83,6.085,6.085,0,0,1,.726-.511.921.921,0,0,1-.076-.128,5.77,5.77,0,0,1,.726-.517s-1.162-1.8-.122-2.562c.976.662,1.847,1.191,2.51,1.568-.046.424-.093.668-.093.668l.279-.581,1.028.581s5.124-10.207,5.013-11.705,3.485-7.842,3.485-7.842.436-3.334,2.4-4.729,1.522-11.5,1.522-11.5.546-5.263,1.853-7.407S894.3,391.988,894.3,391.988Zm-98.036-4.479.1,2.434c-.581-.935-1-1.6-1-1.6Z" transform="translate(-331.964 -121.483)" fill="url(#b)"/><path d="M951.82,548.62l-1.255,5.344s-10.05-5.141-11.857-11.647,3.027-8.987,3.027-8.987l9.37,3.962Z" transform="translate(-402.287 -234.29)" fill="#fff"/><path d="M951.82,548.62l-1.255,5.344s-10.05-5.141-11.857-11.647,3.027-8.987,3.027-8.987l9.37,3.962Z" transform="translate(-402.287 -234.29)" opacity="0.1"/><path d="M848.073,857.514s-9.295,3.416-15.685,3.846a5.968,5.968,0,0,1-6.094-3.857,11.8,11.8,0,0,1-.964-3.486l.842-9.208.441-4.9,13.576-3.532,1.923,5.885.18.441c.767,1.969,3.869,9.951,3.776,11.618a3.189,3.189,0,0,0,.947,2.324A5.4,5.4,0,0,0,848.073,857.514Z" transform="translate(-354.942 -361.293)" fill="#fff"/><path d="M943.636,852.371a2.324,2.324,0,0,1-.081.836s-19.879,3.311-23.945,0a10.765,10.765,0,0,0-8.342-2.457s-7.691.209-8.975-2.324c-.534-1.063-.4-3.125-.064-5.153a49.414,49.414,0,0,1,1.348-5.646l.308-.244,1.83-1.47,21.424-.633h.163c-.1,4.38,7.267,9.405,7.267,9.405C942.416,847.59,943.572,850.872,943.636,852.371Z" transform="translate(-387.046 -360.832)" fill="#fff"/><path d="M943.639,858.133a2.393,2.393,0,0,1-.087.837s-19.879,3.311-23.94,0a10.764,10.764,0,0,0-8.348-2.457s-7.7.209-8.981-2.324c-.529-1.063-.4-3.125-.064-5.159,2.963.3,7.639,1.034,9.475,2.8,2.777,2.672,7.482,5.344,10.364,5.559C924.336,857.529,937.877,857.959,943.639,858.133Z" transform="translate(-387.043 -366.594)" opacity="0.1"/><path d="M848.769,872.119s-9.295,3.416-15.685,3.846a5.968,5.968,0,0,1-6.094-3.857c2.37.8,5.652,1.627,7.378.866,2.045-.912,9.295-1.493,13.361-1.743A5.279,5.279,0,0,0,848.769,872.119Z" transform="translate(-355.638 -375.898)" opacity="0.1"/><path d="M877.071,373.721c-7.668-2.98-17.532-12.827-15.069-17.428a10.415,10.415,0,0,0,.958-3.695,33.706,33.706,0,0,0,.07-5.228A71.775,71.775,0,0,0,862,338.86s23.94.54,22.545,4.066a13.082,13.082,0,0,0-.36,4.839c.116,2,.4,4.287.7,6.21.412,2.632.837,4.647.837,4.647s-1.47,2.051-2.324,2.161S888.074,377.991,877.071,373.721Z" transform="translate(-370.149 -152.791)" fill="#cf6f80"/><path d="M842.86,842.656l-.18.2c-7.157-8.656-15.813,2.138-15.813,2.138l-.128-.232.441-4.9,13.576-3.532,1.923,5.885Z" transform="translate(-355.533 -361.272)" opacity="0.1"/><path d="M928.508,835.873s-5.228-.1-8.017,2.359-16.266.529-15.685,0a2.009,2.009,0,0,0,.3-.889l1.83-1.47,21.424-.633C928.444,835.647,928.508,835.873,928.508,835.873Z" transform="translate(-388.242 -360.815)" opacity="0.1"/><path d="M847.5,711.043a16.3,16.3,0,0,0-.883,2.98,34.108,34.108,0,0,0-.4,8.458c.215,4.066,0,31.317,0,31.317s-4.6,7.267-7.163,9.829,5.228,7.163,5.228,7.163c1.162,6.628-5.879,14.11-5.879,14.11-7.157-8.656-15.813,2.132-15.813,2.132S817.881,778.9,816.708,776s4.595-4.909,6.622-6.094-.1-8.133-.1-8.133-1.708-6.094-3.741-11.653,2.242-33.229,2.242-33.229a42.946,42.946,0,0,1,.749-6.634,11.235,11.235,0,0,0,.157-3.764c-.035-.424-.075-.773-.1-1.017s-.052-.349-.052-.349l.081-.139,2.9-5.414S848.89,707.633,847.5,711.043Z" transform="translate(-351.263 -303.958)" fill="#6c63ff"/><path d="M923.979,782.5s-5.228-.11-8.017,2.324-16.266.534-15.685,0,.529-4.485.529-4.485c-7.906-10.8-1.162-15.179-1.162-15.179s-3.526-16.992-4.165-23.295c-.447-4.4-1-16.266-1.3-22.987-.128-2.9-.2-4.909-.2-4.909l6.4-1.272.831-.163,15.58-3.131s.43,2.9.72,5.281a23.213,23.213,0,0,1,.238,3.061c-.1,1.162,0,4.8,0,4.8l.534,10.9a12.572,12.572,0,0,0-.534,3.526c.11,1.394,2.138,21.267,2.138,21.267s3.526,11.862,2.324,12.716S923.979,782.5,923.979,782.5Z" transform="translate(-383.712 -308.078)" fill="#6c63ff"/><path d="M884.825,342.956a13.083,13.083,0,0,0-.36,4.839,19.9,19.9,0,0,1-21.157-.4,71.788,71.788,0,0,0-1.028-8.51S886.22,339.43,884.825,342.956Z" transform="translate(-370.427 -152.804)" opacity="0.1"/><path d="M888.326,309.469a19.875,19.875,0,1,1-39.746.476c0-.163,0-.314,0-.476a19.879,19.879,0,0,1,39.758,0Z" transform="translate(-364.686 -132.143)" fill="#cf6f80"/><path d="M877.071,383.632C869.4,380.652,859.539,370.805,862,366.2a10.415,10.415,0,0,0,.958-3.695l10.5,8.632,6.495,5.327L884.89,363.9c.412,2.632.837,4.647.837,4.647s-1.47,2.051-2.324,2.161S888.074,387.9,877.071,383.632Z" transform="translate(-370.149 -162.702)" opacity="0.1"/><path d="M883.068,402.571,874.3,549.834l-11.432.749L833.26,465.194l4.856-101.376,1.028-21.418,13.164,10.811,6.495,5.327,5.083-12.937,9.452,8.237Z" transform="translate(-349 -143.493)" fill="#6c63ff"/><path d="M851.762,711.077a16.3,16.3,0,0,0-.883,2.98,84.233,84.233,0,0,1-23.992-7.488l-.157-.081.052-.935v-.488l2.9-5.414S853.156,707.667,851.762,711.077Z" transform="translate(-355.529 -303.992)" opacity="0.1"/><path d="M900.548,720.542a58.832,58.832,0,0,1-6.425.738c-.128-2.9-.2-4.909-.2-4.909l6.437-1.3Z" transform="translate(-383.687 -310.454)" opacity="0.1"/><path d="M922.771,714.681c-4.13,1.075-10.515,2.283-16.219,1.528l-.081-3.677,15.58-3.131S922.463,712.281,922.771,714.681Z" transform="translate(-388.946 -308.078)" opacity="0.1"/><path d="M852.079,570.826c-23.818,4.066-45.631-7.593-45.631-7.593l.209-3.95s.54-44.783-.958-48.216-2.666-20.82-1.818-23.475-3.1-42.738-3.1-42.738l-.639-16.266-23.405-9.51,10.456-21.8a78.788,78.788,0,0,0,3.636-9.411c1.818-5.664,10.259-11.223,10.259-11.223s8.656-5.554,12.077-5.344,7.906-4.915,7.906-4.915c3.311-8.441,6.309-4.647,6.309-4.647a7.471,7.471,0,0,1-.163,1.249c-1.162,9.266,18.787,38.544,19.071,39.067h0l1.923,46.276,1.923,58.562Z" transform="translate(-334.579 -162.022)" opacity="0.1"/><path d="M850.967,570.826c-23.818,4.066-45.637-7.593-45.637-7.593l.215-3.95s.534-44.783-.964-48.216-2.666-20.837-1.812-23.516-3.114-42.721-3.114-42.721l-.645-16.266-23.4-9.51,10.457-21.8a80.01,80.01,0,0,0,3.636-9.405c1.818-5.647,10.288-11.212,10.288-11.212s8.656-5.554,12.071-5.344,7.924-4.909,7.924-4.909c3.317-8.441,6.971-4.647,6.971-4.647,0,.407-.349.581-.163,1.249,2.556,8.987,18.148,38.544,18.432,39.067h0l1.923,46.276,1.882,58.591Z" transform="translate(-334.105 -162.022)" fill="#fff"/><path d="M878.451,404.316c-2.562-1.069-16.132-16.562-16.132-16.562v-3.526c-.494-1.162-3.433-.453-5.809.36l1.022-21.418,1.162.964C861.233,373.115,878.172,403.8,878.451,404.316Z" transform="translate(-368.009 -162.979)" opacity="0.1"/><path d="M879.557,402.129c-2.568-1.075-16.138-16.562-16.138-16.562v-3.532c-.494-1.162-3.427-.453-5.809.36l1.005-21.4,1.162.958C862.339,370.928,879.272,401.606,879.557,402.129Z" transform="translate(-368.47 -162.069)" fill="#fff"/><path d="M826.937,563.568c.32,0,16.562-1.708,16.562-1.708s9.835,19.345,9.19,24.044-1.812,8.871-5.768,8.133-21.291.581-21.291.581Z" transform="translate(-355.068 -246.246)" opacity="0.1"/><path d="M825.827,561.358c.325,0,16.568-1.708,16.568-1.708s9.829,19.374,9.19,24.021-1.818,8.871-5.769,8.133-21.3.581-21.3.581Z" transform="translate(-354.603 -245.32)" fill="#fff"/><path d="M841.432,547s14.906,8.017,15.226,10.457-7.587-1.069-9.295-1.5a22.149,22.149,0,0,0-3.422-.534l-11.392.308Z" transform="translate(-357.968 -240.019)" fill="#cf6f80"/><circle cx="1.568" cy="1.568" r="1.568" transform="translate(504.709 239.2)" opacity="0.1"/><circle cx="1.568" cy="1.568" r="1.568" transform="translate(504.709 238.561)" fill="#3f3d56"/><circle cx="1.568" cy="1.568" r="1.568" transform="translate(507.596 307.097)" opacity="0.1"/><circle cx="1.568" cy="1.568" r="1.568" transform="translate(507.596 306.453)" fill="#3f3d56"/><circle cx="1.568" cy="1.568" r="1.568" transform="translate(506.277 273.149)" opacity="0.1"/><circle cx="1.568" cy="1.568" r="1.568" transform="translate(506.277 272.51)" fill="#3f3d56"/><path d="M930.928,478.737s1.069,1.6,0,2.324.1,2.568.1,2.568-2.666,1.557-1.493,2.969.43,7.749.43,7.749l-3.207,5.339s.192,3.422.2,8.046c0,7.215-.424,17.358-2.771,21.982l.314,37.94s-11.229,4.107-20.628,2.852l-1.394-60.88s2.033-34.524,2.783-41.146a68.935,68.935,0,0,0,.534-10.369s-.32-10.364-1.394-15.168c0,0-1.162-20.843-1.278-26.612-.052-2.759.093-10.811.256-18.467.18-8.371.383-16.266.383-16.266l-2.12-16.783s2.12-.209,2.759.639a6.122,6.122,0,0,0,.929.715h0c3.666,2.475,16.6,10.085,16.6,10.085s7.157,2.846,8.871,6.925,2.9,6.971,3.735,8.133,1.284,6.622,1.284,6.622,2.463,10.05,4.386,11.752,3.305,12.507,3.305,12.507l-16.992,13.361s-1.493,22.226-1.812,23.086S930.928,478.737,930.928,478.737Z" transform="translate(-386.926 -163.658)" fill="#fff"/><path d="M931.56,478.59s1.063,1.6,0,2.324.1,2.568.1,2.568-2.667,1.557-1.493,2.969.43,7.749.43,7.749l-3.2,5.339s.192,3.422.209,8.046c0,7.215-.424,17.358-2.771,21.982l.32,37.94s-11.229,4.107-20.628,2.852l-1.388-60.88s2.027-34.524,2.783-41.146a68.3,68.3,0,0,0,.529-10.369s-.32-10.364-1.388-15.168c0,0-1.162-20.843-1.284-26.612-.052-2.759.093-10.811.256-18.467.18-8.371.383-16.266.383-16.266l-2.8-17.009s2.8,0,3.445.866a5.507,5.507,0,0,0,.929.715h0c3.66,2.475,16.591,10.085,16.591,10.085s7.14,2.846,8.882,6.925,2.9,6.971,3.735,8.133,1.284,6.622,1.284,6.622,2.463,10.05,4.386,11.752,3.311,12.507,3.311,12.507L927.192,435.4s-1.493,22.226-1.818,23.086S931.56,478.59,931.56,478.59Z" transform="translate(-386.914 -163.511)" fill="#fff"/><path d="M911.668,387.3l1.539,4.473-8.081,8.133c.18-8.371.383-16.266.383-16.266l-2.8-17s2.8,0,3.445.866a5.513,5.513,0,0,0,.929.715h0l6.866,19.8Z" transform="translate(-387.371 -164.433)" opacity="0.1"/><path d="M910.538,385.085l1.539,4.467L904,397.685c.174-8.371.383-16.266.383-16.266L901.58,364.41s2.806,0,3.445.866a5.811,5.811,0,0,0,.93.715h0l6.907,19.821Z" transform="translate(-386.897 -163.499)" fill="#fff"/><path d="M888.326,309.469a19.814,19.814,0,0,1-.976,6.164.825.825,0,0,1-.627-.151c-.157-5.228-2.724-10.143-5.891-14.32a15.168,15.168,0,0,0-3.2-3.311,6.256,6.256,0,0,0-4.334-1.226c-1.743.238-3.282,1.423-5.042,1.574-2.324.192-4.4-1.417-6.71-1.493a6.576,6.576,0,0,0-4.932,2.289,13.454,13.454,0,0,0-2.643,4.9,28.687,28.687,0,0,0-1.475,8.458c-.029,1.627-.186,3.666-1.7,4.258a8.656,8.656,0,0,0-2.19-6.622l-.035-.041v-.476a19.879,19.879,0,0,1,39.758,0Z" transform="translate(-364.686 -132.143)" opacity="0.1"/><path d="M872.345,268.541a13.686,13.686,0,0,0-9.655-.755c-1.609.476-3.125,1.249-4.758,1.638-3.486.842-7.552-.07-10.544,1.969a12.584,12.584,0,0,0-3.59,4.787l-2.324,4.421a28.725,28.725,0,0,0-3.073,7.552,9.66,9.66,0,0,0,1.481,7.8c1.226,1.557,3.05,2.539,4.386,4.008a8.714,8.714,0,0,1,2.184,6.64c1.51-.581,1.661-2.632,1.7-4.258a28.723,28.723,0,0,1,1.476-8.458,13.454,13.454,0,0,1,2.643-4.9,6.582,6.582,0,0,1,4.932-2.295c2.324.081,4.409,1.69,6.71,1.493,1.743-.145,3.288-1.33,5.042-1.568a6.227,6.227,0,0,1,4.334,1.226,14.881,14.881,0,0,1,3.189,3.311c3.172,4.183,5.745,9.074,5.9,14.32.656.476,1.6-.151,1.929-.895a21.246,21.246,0,0,1,.749-2.324,8.59,8.59,0,0,1,2.1-1.876c1.812-1.563,2.266-4.194,2.2-6.582s-.534-4.81-.081-7.157c.273-1.435.889-2.788,1.226-4.212a5.507,5.507,0,0,0-.418-4.246c-1.162-1.8-3.608-2.155-5.74-2.324-2.422-.209-4.589.058-6.134-1.981a22.708,22.708,0,0,0-2.44-2.986C875.441,270.586,872.345,268.669,872.345,268.541Z" transform="translate(-360.322 -122.776)" fill="#512e4e"/><path d="M782.518,472.268l-6.065-11.218-1.923,17.311s1.069,7.691.854,8.871,4.38,11.752,4.38,11.752,15.179,27.042,21.378,28.43l20.913-14.964L816.5,505.4s-1.923-.749-2.4,0c0,0-10.317-17.741-11.38-19.019s-.86-3.851-.86-3.851-1.6-1.708-1.069-3.311-3.067-7.157-3.067-7.157l3.311-3.1Z" transform="translate(-333.653 -203.999)" opacity="0.1"/><path d="M775.846,458.84l-1.6,1.284-1.923,17.311s1.069,7.691.854,8.871,4.386,11.752,4.386,11.752,15.174,27.042,21.372,28.43l20.948-14.964-5.559-7.052s-1.923-.749-2.405,0c0,0-10.311-17.741-11.38-19.019s-.854-3.852-.854-3.852-1.6-1.708-1.069-3.311-3.1-7.157-3.1-7.157l3.311-3.1Z" transform="translate(-332.726 -203.072)" fill="#fff"/><path d="M940.913,568.16c1.162,1.412.43,7.755.43,7.755l-3.207,5.3s.192,3.427.2,8.052l-5.391,1.685a3.207,3.207,0,0,1-4.159-3.16l.935-29.975,12.577,4.8c-1.069.744.1,2.568.1,2.568S939.739,566.749,940.913,568.16Z" transform="translate(-398.299 -244.553)" opacity="0.1"/><path d="M942.021,567.056c1.162,1.406.43,7.749.43,7.749l-3.2,5.31s.192,3.422.209,8.046l-5.49,1.714a3.131,3.131,0,0,1-4.066-3.085l.935-30.08,12.571,4.816c-1.075.744.1,2.568.1,2.568S940.848,565.645,942.021,567.056Z" transform="translate(-398.769 -244.088)" fill="#fff"/><path d="M950.68,546.526s-.854,5.455-2.992,5.774-3.1,8.824-5.228,8.528-.72-7.912-.645-9.388-2.324-7.587-.534-8.975,7.482,0,7.482,0Z" transform="translate(-403.256 -237.86)" fill="#cf6f80"/><path d="M953.585,471.733l4.026-8.133s1.609,6.2,1.609,9.51,2.242,3.637,2.242,3.637,2.457,2.9,1.162,5.025-1.812,7.372-1.812,7.372.424,10.044-1.5,11.432-2.353,4.705-2.353,4.705-3.526,6.3-3.416,7.8-4.915,11.647-4.915,11.647,2.457-12.612-11.862-18.061c0,0-.11-4.276.958-5.449s2.736-1.743,1.69-7.645-.3-13.018-.3-14.442,3.207-10.294,3.207-10.294Z" transform="translate(-401.642 -205.067)" opacity="0.1"/><path d="M956.318,461.6l3.52,1.162s1.609,6.2,1.609,9.51,2.242,3.637,2.242,3.637,2.457,2.9,1.162,5.025-1.818,7.372-1.818,7.372.43,10.044-1.493,11.432-2.324,4.705-2.324,4.705-3.526,6.3-3.416,7.8-4.92,11.647-4.92,11.647,2.457-12.612-11.862-18.061c0,0-.1-4.276.964-5.449s2.736-1.743,1.69-7.645-.3-13.018-.3-14.442S944.577,468,944.577,468Z" transform="translate(-402.585 -204.229)" fill="#fff"/><path d="M834.92,823.1s5.612-3.526,9.295-.964S834.92,823.1,834.92,823.1Z" transform="translate(-358.961 -354.933)" opacity="0.1"/><path d="M910,805.677a11.36,11.36,0,0,1,9.138,3.851C923.309,814.019,910,805.677,910,805.677Z" transform="translate(-390.426 -348.413)" opacity="0.1"/><g transform="translate(477.838 157.256)" opacity="0.1"><path d="M893.137,312.142c-.715.622-1.632,1.057-2.109,1.876a21.692,21.692,0,0,0-.744,2.324c-.325.749-1.272,1.371-1.934.895-.151-5.228-2.724-10.137-5.891-14.32a14.855,14.855,0,0,0-3.189-3.305,6.244,6.244,0,0,0-4.339-1.232c-1.743.238-3.276,1.423-5.036,1.574-2.324.192-4.409-1.417-6.715-1.493a6.553,6.553,0,0,0-4.926,2.289,13.453,13.453,0,0,0-2.643,4.9,28.721,28.721,0,0,0-1.476,8.458c-.035,1.621-.186,3.642-1.685,4.247a8.039,8.039,0,0,1,0,1.3c1.516-.581,1.667-2.632,1.7-4.258a28.721,28.721,0,0,1,1.476-8.458,13.451,13.451,0,0,1,2.643-4.9,6.576,6.576,0,0,1,4.926-2.295c2.324.081,4.415,1.69,6.715,1.493,1.743-.145,3.288-1.33,5.036-1.568a6.245,6.245,0,0,1,4.339,1.226,14.884,14.884,0,0,1,3.189,3.311c3.166,4.183,5.739,9.074,5.891,14.32.662.476,1.609-.151,1.934-.895a22.55,22.55,0,0,1,.744-2.324,8.619,8.619,0,0,1,2.109-1.876c1.812-1.563,2.266-4.194,2.2-6.582v-.221A7.639,7.639,0,0,1,893.137,312.142Z" transform="translate(-844.146 -293.071)"/><path d="M844.258,315.066c-1.33-1.47-3.154-2.457-4.38-4.014a8.429,8.429,0,0,1-1.69-4.752,8.952,8.952,0,0,0,1.69,6.036c1.226,1.557,3.05,2.539,4.38,4.008a8.714,8.714,0,0,1,2.2,5.182,8.714,8.714,0,0,0-2.2-6.46Z" transform="translate(-838.155 -296.401)"/><path d="M927.21,290.381c-.343,1.423-.953,2.777-1.232,4.212a13.456,13.456,0,0,0-.18,2.939,11.286,11.286,0,0,1,.18-1.656c.279-1.435.889-2.788,1.232-4.212a7.3,7.3,0,0,0,.192-2.405,8.091,8.091,0,0,1-.192,1.121Z" transform="translate(-874.878 -289.26)"/></g><ellipse cx="56.605" cy="9.091" rx="56.605" ry="9.091" transform="translate(20.706 469.138)" fill="#6c63ff" opacity="0.1"/><rect width="3.642" height="82.008" transform="translate(75.492 304.065)" fill="#535461"/><path d="M155.564,678.715l-.232,3.695-.32,5.228-.134,2.173-.325,5.228-.139,2.173-.32,5.228-3.677,59.294a10.038,10.038,0,0,1-10.021,9.423H121.3a10.032,10.032,0,0,1-10.021-9.463L107.6,702.4l-.32-5.228L107.151,695l-.331-5.228-.134-2.173-.32-5.228-.232-3.695a5.228,5.228,0,0,1,5.193-5.525h39.049a5.228,5.228,0,0,1,5.188,5.565Z" transform="translate(-53.536 -292.886)" fill="#3f3d56"/><path d="M139.551,670.52l-.325,5.217H90.905l-.325-5.217Z" transform="translate(-37.755 -281.002)" fill="#9d9cb5"/><path d="M139.423,683.24l-.32,5.217H91.7l-.325-5.217Z" transform="translate(-38.086 -286.333)" fill="#9d9cb5"/><path d="M139.3,695.97l-.32,5.211H92.485l-.325-5.211Z" transform="translate(-38.417 -291.668)" fill="#9d9cb5"/><path d="M63.239,583.208c21.215,15.348,30.051,39.351,30.051,39.351s-25.56-.877-46.781-16.225S16.44,567,16.44,567,42,567.86,63.239,583.208Z" transform="translate(-15.95 -248.401)" fill="#6c63ff"/><path d="M16.44,567s26.53,14.726,35.041,26.92,41.785,28.651,41.785,28.651" transform="translate(-15.95 -248.401)" fill="none" stroke="#535461" stroke-miterlimit="10" stroke-width="2"/><path d="M102.162,535.31c11.549,8.348,16.359,21.413,16.359,21.413s-13.942-.476-25.462-8.824S76.7,526.48,76.7,526.48,90.619,526.956,102.162,535.31Z" transform="translate(-41.204 -231.419)" fill="#6c63ff"/><path d="M76.7,526.48s14.442,8.017,19.077,14.651,22.743,15.592,22.743,15.592" transform="translate(-41.204 -231.419)" fill="none" stroke="#535461" stroke-miterlimit="10" stroke-width="2"/><path d="M165.978,563.57c-13.262,14.575-16.068,33.623-16.068,33.623s18.7-4.589,31.95-19.17S197.929,544.4,197.929,544.4,179.241,549,165.978,563.57Z" transform="translate(-71.885 -238.929)" fill="#6c63ff"/><path d="M197.94,544.41s-17.276,14.941-21.668,25.235S149.91,597.2,149.91,597.2" transform="translate(-71.885 -238.933)" fill="none" stroke="#535461" stroke-miterlimit="10" stroke-width="2"/></g></svg>