<svg xmlns="http://www.w3.org/2000/svg" xmlns:xlink="http://www.w3.org/1999/xlink" width="816.295" height="750.89" viewBox="0 0 816.295 750.89"><defs><style>.a{fill:#3f3d56;}.b{fill:#ffb8b8;}.c{fill:#6c63ff;}.d{fill:#e6e6e6;}.e{fill:#2f2e41;}.f{opacity:0.1;}.g{fill:#ff6584;}.h{opacity:0.2;}.i{fill:#f2f2f2;}.j{opacity:0.03;}.k{fill:none;stroke:#3f3d56;stroke-miterlimit:10;stroke-width:4px;}.l{fill:#57b894;}.m{fill:#656380;}.n{filter:url(#a);}</style><filter id="a" x="40.295" y="610.89" width="776" height="140" filterUnits="userSpaceOnUse"><feOffset dy="10" input="SourceAlpha"/><feGaussianBlur stdDeviation="10" result="b"/><feFlood flood-opacity="0.612"/><feComposite operator="in" in2="b"/><feComposite in="SourceGraphic"/></filter></defs><g transform="translate(-792 -146)"><g transform="translate(792 146)"><g class="n" transform="matrix(1, 0, 0, 1, 0, 0)"><ellipse class="a" cx="358" cy="40" rx="358" ry="40" transform="translate(70.29 630.89)"/></g><path class="b" d="M812.694,702.031l6.174,19.023S848.6,751.775,837.849,760.1s-34.884-35.568-34.884-35.568l-4.447-21.476Z" transform="translate(-206.853 -75.401)"/><path class="c" d="M755.647,554.792l9-3s14,4,16,18,17,85,17,85,6,3,2,8,20,50,20,50l-19,9s-38-40-38-44,1-8,1-12-1-4,0-7a32.166,32.166,0,0,0,1-8l-7-16Z" transform="translate(-206.853 -75.401)"/><ellipse class="c" cx="90.418" cy="184.489" rx="90.418" ry="184.489" transform="translate(0 179.009)"/><path class="a" d="M296.44,440.813c4.51-80.307,13.6-134.551,13.689-135.09l-1.972-.334c-.091.539-9.195,54.871-13.712,135.281-4.169,74.214-5.175,186.467,13.712,299.786l1.973-.328C291.275,627,292.279,514.918,296.44,440.813Z" transform="translate(-206.853 -75.401)"/><rect class="a" width="92.725" height="2" transform="translate(89.48 369.84) rotate(-28.157)"/><rect class="a" width="2" height="92.725" transform="translate(3.174 349.778) rotate(-61.858)"/><ellipse class="d" cx="123.73" cy="252.458" rx="123.73" ry="252.458" transform="translate(180.835 0)"/><path class="a" d="M509.915,330.446c6.173-109.911,18.611-184.152,18.736-184.889l-1.972-.334c-.125.738-12.579,75.065-18.759,185.08-5.7,101.538-7.081,255.118,18.759,410.153l1.973-.328C502.844,585.284,504.218,431.875,509.915,330.446Z" transform="translate(-206.853 -75.401)"/><rect class="a" width="126.887" height="2" transform="translate(303.455 261.463) rotate(-28.157)"/><rect class="a" width="2" height="126.887" transform="translate(185.353 233.36) rotate(-61.858)"/><ellipse class="d" cx="46.229" cy="94.325" rx="46.229" ry="94.325" transform="translate(155.262 414.643)"/><path class="a" d="M408.3,588.433l.274.512,41.8-22.372-.943-1.764L408.39,586.776c2.271-41.8,6.916-69.863,7.01-70.415l-1.972-.334c-.1.6-5.621,33.927-7.58,82.145l-41.393-22.156-.943,1.764,41.8,22.372.5-.933c-1.567,39.8-.689,89.56,7.62,139.41l1.973-.328C406.342,683.949,406.143,629.7,408.3,588.433Z" transform="translate(-206.853 -75.401)"/><path class="e" d="M767.884,459.866c-16.074-27.4-47.876-28.672-47.876-28.672s-30.989-4-50.868,37.727c-18.529,38.89-44.1,76.439-4.117,85.542l7.222-22.674,4.473,24.362a155.114,155.114,0,0,0,17.108.295c42.82-1.394,83.6.408,82.286-15.091C774.367,520.752,783.35,486.226,767.884,459.866Z" transform="translate(-206.853 -75.401)"/><path class="e" d="M655.842,679.3a61.235,61.235,0,0,1-1.949,8.464c-.956,2.712-2.432,5.22-3.307,7.96-2.787,8.734,1.077,18.472,7.247,25.213a40.722,40.722,0,0,0,19.887,11.911c5.566,1.412,11.354,1.615,17.091,1.812,15.885.543,32.178,1.029,47.229-4.12a81.72,81.72,0,0,0,13.722-6.287,10.288,10.288,0,0,0,3.56-2.828c1.148-1.648,1.295-3.786,1.285-5.8-.034-6.792-1.4-13.55-1.075-20.334.18-3.758.877-7.513.534-11.259a20.71,20.71,0,0,0-15.738-17.892c-4.27-.925-8.7-.421-13.046,0a329.787,329.787,0,0,1-33.951,1.531c-11.582-.075-23.093-1.858-34.617-2.044-3.408-.055-3.339,1-4.424,4.332a81.623,81.623,0,0,0-2.448,9.342Z" transform="translate(-206.853 -75.401)"/><path class="e" d="M610.552,673.78a33.986,33.986,0,0,0-9.533-1.022,24.061,24.061,0,0,0-17.379,9.114,24.492,24.492,0,0,0-4.711,19.177,40.533,40.533,0,0,0,3.777,10.412c2.528,5.175,5.56,10.338,10.241,13.654a39.74,39.74,0,0,0,9.038,4.339l24.65,9.367c3.626,1.378,7.253,2.756,10.916,4.034a211.9,211.9,0,0,0,57.013,11.432c5.919.356,11.928.455,17.7-.9a5.749,5.749,0,0,0,3.625-1.976,6.3,6.3,0,0,0,.81-2.7L718.218,738a9.046,9.046,0,0,0-.129-4.515c-.695-1.8-2.437-2.932-4.1-3.894-16.206-9.388-35.128-14.568-48.769-27.453-3.211-3.033-5.9-7.842-9.8-9.9-4.424-2.337-9.635-3.67-14.208-5.823C631.217,681.7,621.387,676.293,610.552,673.78Z" transform="translate(-206.853 -75.401)"/><path class="f" d="M635.162,688.22c8.713,2.754,45.5,21.832,51.8,28.493-.845.307-29.52-15.9-30.381-16.162-7.821-2.368-15.686-4.751-23.114-8.216-1.494-.7-9.707-3.973-9.335-5.875C624.555,684.314,633.615,687.731,635.162,688.22Z" transform="translate(-206.853 -75.401)"/><path class="b" d="M743.86,759.842a2.035,2.035,0,0,0,1.381-.41,2.165,2.165,0,0,0,.432-1.6l-.041-14.592c-4.16-2-8.813-2.64-13.381-3.256l-21.311-2.873c.49.066-3.332,9.258-2.746,10.486,1.033,2.163,8.926,4.08,11.153,5.1C727.091,756.245,735.138,760.148,743.86,759.842Z" transform="translate(-206.853 -75.401)"/><path class="b" d="M677,743.187c-4.024.646-8.515,1.218-11.121,4.377-3.3,4.006-1.9,9.979-.321,14.942a6.454,6.454,0,0,0,1.371,2.719c1.076,1.07,2.724,1.227,4.233,1.324,3.67.234,7.575.418,10.781-1.4a47.272,47.272,0,0,0,4.188-3.14,26.739,26.739,0,0,1,7.7-3.551,77.281,77.281,0,0,1,15.456-3.213,23.848,23.848,0,0,0,6.089-1.083,6.774,6.774,0,0,0,4.288-4.2c.743-2.652-.785-5.355-2.251-7.681-1.826-2.9-3.759-5.947-6.481-8.08-3.971-3.111-5.935-.723-9.935,1.268A83.779,83.779,0,0,1,677,743.187Z" transform="translate(-206.853 -75.401)"/><path class="e" d="M666.481,746.842l-25.549-7.617a33.563,33.563,0,0,0-9.508-1.858c-3.24,0-6.63,1.074-8.732,3.562-1.981,2.345-2.548,5.551-3.042,8.591l-1.057,6.5a32.944,32.944,0,0,0-.591,9.988c.483,3.314,2.16,6.625,5.076,8.229,3.536,1.946,7.869,1,11.815.182A127.576,127.576,0,0,1,659.1,771.8c3.058-.037,6.266,0,8.968-1.443,3.212-1.717,5.134-5.348,5.464-9C674.039,755.806,672.2,748.548,666.481,746.842Z" transform="translate(-206.853 -75.401)"/><path class="e" d="M753.9,740.205c3.312-.586,6.235-2.484,9.409-3.6,4.467-1.577,9.308-1.577,14.041-1.56,1.737.006,3.588.046,5.034,1.017,2.085,1.4,2.619,4.2,2.974,6.7l2.139,15.088c.4,2.838.8,5.752.175,8.548s-2.517,5.492-5.268,6.213c-3.341.876-6.616-1.277-9.771-2.691-7.884-3.534-17.049-2.631-25.27-5.273-1.526-.49-3.16-1.24-3.782-2.728a6.255,6.255,0,0,1-.294-2.607c.141-4.85-.873-11.472.574-16.107C745.165,739.034,750.206,740.205,753.9,740.205Z" transform="translate(-206.853 -75.401)"/><path class="e" d="M807.971,667.707A44,44,0,0,1,823.6,666.63c4.178.464,8.483,1.637,11.534,4.554,3.713,3.55,4.906,9.041,5.006,14.2a44.614,44.614,0,0,1-9.561,28.334,25.588,25.588,0,0,1-5.466,5.307A35.85,35.85,0,0,1,818,722.484l-55.2,21.962c-14.523,5.778-29.1,11.572-44.245,15.381a3.436,3.436,0,0,1-4.64-1.7,115.667,115.667,0,0,1-12.1-22.324,2.018,2.018,0,0,1-.156-1.672,1.984,1.984,0,0,1,.815-.7l39.046-22.629a39.472,39.472,0,0,0,7.947-5.523,19.9,19.9,0,0,0,4.08-5.729c.809-1.705.885-5.729,1.919-6.989,1.012-1.234,4.475-1.332,6.074-1.818a54.807,54.807,0,0,0,6.612-2.521c8.734-3.941,16.512-9.668,24.885-14.282A63.545,63.545,0,0,1,807.971,667.707Z" transform="translate(-206.853 -75.401)"/><path class="f" d="M785.835,684.606c-6.708,5.082-15.394,9.753-22.043,14.969-2.269,1.78-40.1,23.23-40.63,26.079,6.2,1.054,45.714-26.827,51.368-29.609s10.664-6.705,15.63-10.6c1.266-.992,6.629-3.976,3-5.085C791.11,679.737,787.346,683.59,785.835,684.606Z" transform="translate(-206.853 -75.401)"/><circle class="b" cx="38" cy="38" r="38" transform="translate(473.795 377.39)"/><path class="b" d="M734.647,522.792s-6,15,5,21-34,54-34,54l-20-58s17-6,14-22Z" transform="translate(-206.853 -75.401)"/><path class="c" d="M709.647,563.792l24.218-26.736,32.782,16.736-5,118-8,9s-34,30-86,5c0,0-18-15-17-38s-2-26-2-26l-1-81,49.371-9.688Z" transform="translate(-206.853 -75.401)"/><path class="b" d="M598.6,691.031l-6.174,19.023S562.69,740.775,573.445,749.1s34.884-35.568,34.884-35.568l4.447-21.476Z" transform="translate(-206.853 -75.401)"/><path class="c" d="M655.647,543.792l-9-3s-14,4-16,18-17,85-17,85-6,3-2,8-20,50-20,50l19,9s38-40,38-44-1-8-1-12,1-4,0-7a32.163,32.163,0,0,1-1-8l7-16Z" transform="translate(-206.853 -75.401)"/><path class="e" d="M553.925,381.823l-31.419-16.6-43.387,6.79-8.977,39.991,22.346-.867,6.242-14.692v14.449l10.311-.4,5.985-23.39,3.74,24.9,36.655-.755Z"/><path class="g" d="M538.057,714.482v57.68H361.877a57.682,57.682,0,0,1,57.677-57.68c16.523-5.15,35.623-6.79,56.343-6.25C495.447,708.732,516.437,711.182,538.057,714.482Z" transform="translate(-206.853 -75.401)"/><path class="a" d="M306.037,684.178h82.848a5.244,5.244,0,0,1,5.243,5.244h0a5.244,5.244,0,0,1-5.243,5.244H306.037V684.178Z"/><path class="a" d="M527.238,665.12,549.444,638.2a5.829,5.829,0,0,1,10.865.931l8.757,30.918Z" transform="translate(-206.853 -75.401)"/><path class="g" d="M500.3,678.829l8.39-33.872a5.829,5.829,0,0,1,10.2-3.857l21.261,24.1Z" transform="translate(-206.853 -75.401)"/><path class="g" d="M155.024,696.762H171.8v35.656A16.779,16.779,0,0,1,155.024,749.2h0Z"/><path class="g" d="M302.891,686.275h82.848a5.244,5.244,0,0,1,5.243,5.244h0a5.244,5.244,0,0,1-5.243,5.244H302.891Z"/><path class="h" d="M538.057,714.482v57.36a56.645,56.645,0,0,1-62.16-63.61C495.447,708.732,516.437,711.182,538.057,714.482Z" transform="translate(-206.853 -75.401)"/><circle class="g" cx="56.63" cy="56.63" r="56.63" transform="translate(274.576 583.502)"/><ellipse class="a" cx="6.292" cy="14.682" rx="6.292" ry="14.682" transform="translate(379.446 629.645)"/><ellipse class="a" cx="1.573" cy="3.67" rx="1.573" ry="3.67" transform="translate(368.959 625.451)"/><ellipse class="a" cx="1.573" cy="3.67" rx="1.573" ry="3.67" transform="translate(380.495 618.11)"/><path class="a" d="M533.307,658.273s-3.147-5.475-3.147-8.815" transform="translate(-206.853 -75.401)"/><path class="a" d="M534.692,654.732s1.715-6.078,4.1-8.413" transform="translate(-206.853 -75.401)"/></g><path class="i" d="M368.78,133.52l-15.52,9.84,9.42-17.14a15.35,15.35,0,0,0-9.38-3.35h-.25a18.091,18.091,0,0,1-3.22-.24L344.57,126l2.25-4.1a18.66,18.66,0,0,1-9.2-7l-9.41,6,5.94-10.81c-5.5-6.61-12.92-10.66-21.09-10.66-9.79,0-18.51,5.82-24.14,14.89a18,18,0,0,1-16,8.6h-.52c-10.81,0-19.57,12.26-19.57,27.38s8.76,27.37,19.57,27.37a14.72,14.72,0,0,0,6.81-1.71,28.21,28.21,0,0,1,23.69-.46,24.66,24.66,0,0,0,20.14,0,28.23,28.23,0,0,1,23.47.46,14.72,14.72,0,0,0,6.75,1.67c10.81,0,19.57-12.26,19.57-27.37a34.71,34.71,0,0,0-4.05-16.74Z" transform="translate(1076.191 58.57)"/><path class="i" d="M334.176,116.527l-10.888,4.935,6.609-8.6a13.662,13.662,0,0,0-6.581-1.68h-.175a17.666,17.666,0,0,1-2.259-.12l-3.69,1.69,1.578-2.056a13.508,13.508,0,0,1-6.454-3.511l-6.6,3.009,4.167-5.422a22.66,22.66,0,0,0-14.8-5.346,22.365,22.365,0,0,0-16.936,7.468c-2.378,2.781-6.669,4.43-11.225,4.313h-.365a13.729,13.729,0,1,0,4.778,26.6,27.051,27.051,0,0,1,16.62-.231,23.685,23.685,0,0,0,14.129,0,27.083,27.083,0,0,1,16.466.231,13.741,13.741,0,0,0,18.465-12.889A13.6,13.6,0,0,0,334.176,116.527Z" transform="translate(1231.191 97.57)"/><path class="j" d="M339.53,173.57a28.89,28.89,0,0,0-16.77,1.82,24.69,24.69,0,0,1-20.13,0c-7.39-3.27-16.64-3.2-23.69.47a14.72,14.72,0,0,1-6.82,1.7c-9.6,0-17.59-9.67-19.25-22.43a18.531,18.531,0,0,0,4.8-5.17C263.3,140.83,272,135,281.81,135s18.4,5.75,24,14.73a18.48,18.48,0,0,0,15.95,8.76h.25C329.69,158.5,336.31,164.63,339.53,173.57Z" transform="translate(1076.191 58.57)"/><path class="j" d="M313.667,154.344a27.812,27.812,0,0,0-11.765.913,23.715,23.715,0,0,1-14.122,0,27.087,27.087,0,0,0-16.62.236,13.752,13.752,0,0,1-18.29-10.4,11.5,11.5,0,0,0,3.367-2.593,22.873,22.873,0,0,1,33.773-.115c2.393,2.767,6.64,4.434,11.19,4.393h.175A13.749,13.749,0,0,1,313.667,154.344Z" transform="translate(1231.179 79.84)"/></g><path class="k" d="M1001.79,740.76c3-5.51-.41-12.26-4.29-17.18s-8.61-10-8.51-16.29c.15-9,9.7-14.31,17.33-19.08a84.869,84.869,0,0,0,15.56-12.51,23,23,0,0,0,4.78-6.4c1.58-3.52,1.53-7.52,1.43-11.38q-.49-19.26-1.9-38.49" transform="translate(-283.809 -92.43)"/><path class="l" d="M1040.7,618.73a14,14,0,0,0-7-11.5l-3.14,6.22.09-7.53a13.86,13.86,0,0,0-4.62-.55,14,14,0,1,0,14.68,13.36Z" transform="translate(-283.809 -92.43)"/><path class="l" d="M1015.67,713.72a14,14,0,1,1,.68-11.3l-8.77,7.14,9.65-2.24a14,14,0,0,1-1.56,6.4Z" transform="translate(-283.809 -92.43)"/><path class="l" d="M1008.74,686.48a14,14,0,0,1-4.45-27.54l-.08,5.78,3.18-6.29h0a14.041,14.041,0,0,1,1.35,28.05Z" transform="translate(-283.809 -92.43)"/><path class="l" d="M1042.81,663.8a14.016,14.016,0,1,1,6.2-26.22l-2.48,6.79,5.11-4.89a14,14,0,0,1,4.53,9.68,13.765,13.765,0,0,1-.35,3.87A14,14,0,0,1,1042.81,663.8Z" transform="translate(-283.809 -92.43)"/><path class="m" d="M980.62,734.42s11.08-.35,14.42-2.72,17-5.22,17.86-1.41,16.65,19,4.14,19.07-29-2-32.39-4S980.62,734.42,980.62,734.42Z" transform="translate(-283.809 -92.43)"/></svg>