<svg xmlns="http://www.w3.org/2000/svg" width="32.216" height="32.216" viewBox="0 0 32.216 32.216">
  <defs>
    <style>
      .cls-3 {
        fill: #6c63ff;
        fill-rule: evenodd;
      }
    </style>
  </defs>
  <path id="Path_3" data-name="Path 3" class="cls-3" d="M16.108,2.864a49.391,49.391,0,0,1,6.443.179,8.3,8.3,0,0,1,3.043.537,6.286,6.286,0,0,1,3.043,3.043,8.3,8.3,0,0,1,.537,3.043c0,1.611.179,2.148.179,6.443a49.391,49.391,0,0,1-.179,6.443,8.3,8.3,0,0,1-.537,3.043,6.286,6.286,0,0,1-3.043,3.043,8.3,8.3,0,0,1-3.043.537c-1.611,0-2.148.179-6.443.179a49.391,49.391,0,0,1-6.443-.179,8.3,8.3,0,0,1-3.043-.537A6.286,6.286,0,0,1,3.58,25.594a8.3,8.3,0,0,1-.537-3.043c0-1.611-.179-2.148-.179-6.443a49.391,49.391,0,0,1,.179-6.443A8.3,8.3,0,0,1,3.58,6.622a6.428,6.428,0,0,1,1.253-1.79A3.026,3.026,0,0,1,6.622,3.58a8.3,8.3,0,0,1,3.043-.537,49.391,49.391,0,0,1,6.443-.179m0-2.864A52.883,52.883,0,0,0,9.486.179,11.05,11.05,0,0,0,5.548.895a7.007,7.007,0,0,0-2.864,1.79A7.007,7.007,0,0,0,.895,5.548,8.155,8.155,0,0,0,.179,9.486,52.883,52.883,0,0,0,0,16.108,52.883,52.883,0,0,0,.179,22.73a11.05,11.05,0,0,0,.716,3.938,7.007,7.007,0,0,0,1.79,2.864,7.007,7.007,0,0,0,2.864,1.79,11.049,11.049,0,0,0,3.938.716,52.883,52.883,0,0,0,6.622.179,52.883,52.883,0,0,0,6.622-.179,11.05,11.05,0,0,0,3.938-.716,7.509,7.509,0,0,0,4.653-4.653,11.049,11.049,0,0,0,.716-3.938c0-1.79.179-2.327.179-6.622a52.883,52.883,0,0,0-.179-6.622,11.05,11.05,0,0,0-.716-3.938,7.007,7.007,0,0,0-1.79-2.864A7.007,7.007,0,0,0,26.668.895,11.05,11.05,0,0,0,22.73.179,52.883,52.883,0,0,0,16.108,0m0,7.875a8.1,8.1,0,0,0-8.233,8.233,8.233,8.233,0,1,0,8.233-8.233m0,13.6a5.274,5.274,0,0,1-5.369-5.369,5.274,5.274,0,0,1,5.369-5.369,5.274,5.274,0,0,1,5.369,5.369,5.274,5.274,0,0,1-5.369,5.369M24.7,5.548a1.969,1.969,0,1,0,1.969,1.969A1.986,1.986,0,0,0,24.7,5.548"/>
</svg>
