<svg id="Twitter" xmlns="http://www.w3.org/2000/svg" width="32.216" height="32.216" viewBox="0 0 32.216 32.216">
  <defs>
    <style>
      .cls-1 {
        fill: none;
      }

      .cls-2 {
        fill: #6c63ff;
        fill-rule: evenodd;
      }
    </style>
  </defs>
  <rect id="Rectangle_1457" data-name="Rectangle 1457" class="cls-1" width="32.216" height="32.216" transform="translate(0)"/>
  <path id="Path_2" data-name="Path 2" class="cls-2" d="M48.2,28.131c12.171,0,18.793-10.023,18.793-18.793V8.443a14.549,14.549,0,0,0,3.222-3.4,14.858,14.858,0,0,1-3.759,1.074,6.963,6.963,0,0,0,2.864-3.58A16.416,16.416,0,0,1,65.2,4.148,6.392,6.392,0,0,0,60.372,2,6.724,6.724,0,0,0,53.75,8.622a3.489,3.489,0,0,0,.179,1.432,18.5,18.5,0,0,1-13.6-6.98,6.854,6.854,0,0,0-.895,3.4A7.111,7.111,0,0,0,42.3,12.023a6.034,6.034,0,0,1-3.043-.895h0a6.541,6.541,0,0,0,5.369,6.443,5.518,5.518,0,0,1-1.79.179,3.046,3.046,0,0,1-1.253-.179,6.781,6.781,0,0,0,6.264,4.653,13.513,13.513,0,0,1-8.233,2.864A4.955,4.955,0,0,1,38,24.909a16.894,16.894,0,0,0,10.2,3.222" transform="translate(-38 3.462)"/>
</svg>
