<svg xmlns="http://www.w3.org/2000/svg" xmlns:xlink="http://www.w3.org/1999/xlink" width="316.55" height="325.776" viewBox="0 0 316.55 325.776"><defs><linearGradient id="a" x1="13.21" y1="17.968" x2="13.21" y2="16.969" gradientUnits="objectBoundingBox"><stop offset="0" stop-color="#fff"/><stop offset="1"/></linearGradient><linearGradient id="b" x1="3.716" y1="3.003" x2="3.716" y2="2.003" gradientUnits="objectBoundingBox"><stop offset="0" stop-color="gray" stop-opacity="0.251"/><stop offset="0.535" stop-color="gray" stop-opacity="0.122"/><stop offset="1" stop-color="gray" stop-opacity="0.102"/></linearGradient><linearGradient id="c" x1="1.976" y1="1.899" x2="1.976" y2="0.882" xlink:href="#b"/></defs><g transform="translate(0 0)"><path d="M767.67,289.757c5.664.569,11.346-.724,16.812-2.316,10.837-3.157,22.082-8.171,27.7-17.961a51.809,51.809,0,0,0,4.363-11.539c2.315-7.994,4.645-16.08,5.017-24.394a52.87,52.87,0,0,0-5.753-26.391,5.687,5.687,0,0,0-2.921-2.724c-2.213-.87-3.429.318-4.395,1.557-5.86,7.511-5.253,17.966-5.743,27.48a99.136,99.136,0,0,1-5.547,27.954c-1.353,3.819-3.136,7.794-6.57,9.944a20.012,20.012,0,0,1-7.046,2.257c-3.648.685-7.63,1.324-10.9-.431-3.349-1.8-5.563-6.453-9.427-7.228-3.823-.766-9.041,3.239-10.747,6.614C747.892,281.718,760.087,289,767.67,289.757Z" transform="translate(-533.44 -138.263)" fill="#ffd180"/><g transform="translate(218.057 65.871)" opacity="0.1"><path d="M828.14,271.366a20.013,20.013,0,0,1-7.046,2.257,24.629,24.629,0,0,1-7.646.566c3.117,1.3,6.766.73,10.138.1a20.012,20.012,0,0,0,7.046-2.257c3.435-2.149,5.218-6.124,6.57-9.944a99.122,99.122,0,0,0,5.547-27.953c.489-9.514-.117-19.969,5.743-27.48a4.043,4.043,0,0,1,2.674-1.824,5.09,5.09,0,0,0-.771-.4c-2.213-.87-3.429.318-4.395,1.557-5.86,7.511-5.253,17.966-5.743,27.48a99.122,99.122,0,0,1-5.547,27.953C833.357,265.242,831.574,269.217,828.14,271.366Z" transform="translate(-789.002 -204.134)"/><path d="M755.005,367.958c1.577-3.119,6.152-6.768,9.855-6.7a6.122,6.122,0,0,0-1.6-.578c-3.823-.766-9.04,3.239-10.747,6.614-4.312,8.525,6.007,15.427,13.569,16.935C758.979,381.893,751.154,375.574,755.005,367.958Z" transform="translate(-751.496 -298.85)"/></g><rect width="73.482" height="21.271" transform="translate(186.508 67.975) rotate(26.478)" opacity="0.1"/><rect width="73.482" height="19.337" transform="translate(186.508 67.975) rotate(26.478)" fill="#6c63ff"/><circle cx="11.602" cy="11.602" r="11.602" transform="translate(217.007 67.263)" fill="#6c63ff"/><path d="M616.847,55.569s20.088,5.446,27.4,13.649c0,0,11.85-10.058,17.331-7.328s-2.7,23.735-2.7,23.735l-7.252,32.869s3.771,79.4-47.318,95-87.7-48.242-75.866-71.99S575.8,73.885,575.8,73.885s30.98-34.731,36.454-36.564S616.847,55.569,616.847,55.569Z" transform="translate(-397.051 -37.203)" fill="#ffd180"/><g transform="translate(137.001 0)" opacity="0.1"><path d="M833.336,283.721a161.429,161.429,0,0,0,4.225-40.508l-1.145,5.191A161.356,161.356,0,0,1,833.336,283.721Z" transform="translate(-719.986 -161.922)" fill="#fff"/><path d="M546.2,138.21c11.829-23.749,40.49-59.133,40.49-59.133s30.98-34.731,36.453-36.565,4.591,18.248,4.591,18.248,20.089,5.446,27.4,13.649c0,0,11.85-10.058,17.331-7.328,2.127,1.06,2.193,4.874,1.48,9.144,1.585-5.973,2.643-12.851-.335-14.334-5.48-2.73-17.331,7.328-17.331,7.328-7.314-8.2-27.4-13.649-27.4-13.649s.882-20.081-4.591-18.248-36.453,36.565-36.453,36.565-28.66,35.384-40.49,59.133C546.274,135.164,545.858,138.891,546.2,138.21Z" transform="translate(-546.082 -37.204)" fill="#fff"/></g><circle cx="4.082" cy="4.082" r="4.082" transform="translate(235.413 63.998)" fill="#58555d"/><circle cx="4.082" cy="4.082" r="4.082" transform="translate(193.396 43.069)" fill="#58555d"/><ellipse cx="4.082" cy="6.123" rx="4.082" ry="6.123" transform="translate(210.279 62.646) rotate(-63.522)" fill="#58555d"/><rect width="2.042" height="18.816" transform="translate(250.211 74.528) rotate(-76.039)" fill="#ffd180"/><rect width="2.04" height="20.813" transform="translate(246.55 81.824) rotate(-74.788)" fill="#ffd180"/><rect width="2.039" height="21.981" transform="matrix(0.746, -0.665, 0.665, 0.746, 170.211, 23.225)" fill="#ffd180"/><rect width="2.041" height="26.844" transform="translate(160.353 29.786) rotate(-54.776)" fill="#ffd180"/><path d="M621.74,305.934s-1.057,33.951-18.906,28,2.456-27.651,2.456-27.651,2.1-8.4-1.748-10.851" transform="translate(-438.993 -193.534)" opacity="0.1"/><path d="M674.312,339.728s-28.247,18.865-13.749,30.859,22.161-16.718,22.161-16.718,6.015-6.229,10.132-4.26" transform="translate(-475.883 -220.352)" opacity="0.1"/><path d="M618.925,302.093s-1.057,33.951-18.906,28,2.456-27.651,2.456-27.651,2.1-8.4-1.748-10.851" transform="translate(-437.289 -191.209)" fill="#ffd180"/><path d="M678.7,338.248s-28.247,18.865-13.749,30.859,22.161-16.717,22.161-16.717,6.015-6.229,10.132-4.26" transform="translate(-478.541 -219.456)" fill="#ffd180"/><rect width="6.021" height="0.322" transform="translate(157.54 135.885) rotate(-63.522)" fill="#58555d" opacity="0.5"/><rect width="6.021" height="0.322" transform="translate(162.156 138.184) rotate(-63.522)" fill="#58555d" opacity="0.5"/><rect width="8.429" height="0.322" transform="translate(159.434 137.371) rotate(-63.522)" fill="#58555d" opacity="0.5"/><rect width="6.021" height="0.322" transform="translate(188.117 149.675) rotate(-63.522)" fill="#58555d" opacity="0.5"/><rect width="6.021" height="0.322" transform="translate(192.733 151.974) rotate(-63.522)" fill="#58555d" opacity="0.5"/><rect width="8.429" height="0.322" transform="translate(190.011 151.161) rotate(-63.522)" fill="#58555d" opacity="0.5"/><path d="M655.846,196.4a93.367,93.367,0,0,1-13.665-8.328,88.066,88.066,0,0,1-21.145-22.091l2.105-2.635A96.846,96.846,0,0,0,644.416,185.3c12.025,8.806,34.983,19.4,64.3,18.166l.149,3.548C687.586,207.911,668.3,202.6,655.846,196.4Z" transform="translate(-454.459 -113.568)" opacity="0.1"/><path d="M708.352,247.775l-.063-.187a2.138,2.138,0,0,0,1.525-3.044l.179-.083a2.333,2.333,0,0,1-1.642,3.314Z" transform="translate(-507.282 -162.677)" fill="#4d8af0"/><path d="M708.352,247.775l-.063-.187a2.138,2.138,0,0,0,1.525-3.044l.179-.083a2.333,2.333,0,0,1-1.642,3.314Z" transform="translate(-507.282 -162.677)" opacity="0.1"/><path d="M708.182,201.68c-29.313,1.23-52.271-9.36-64.3-18.166a96.849,96.849,0,0,1-21.275-21.961l-3.032,1.85a98.424,98.424,0,0,0,22.072,22.876,93.368,93.368,0,0,0,13.665,8.328c12.459,6.206,31.74,11.514,53.015,10.622Zm-52.159-7.017a.395.395,0,1,1,.529-.177A.395.395,0,0,1,656.023,194.663Z" transform="translate(-453.577 -112.485)" fill="#f55f44"/><path d="M696.106,250.178h0a3.946,3.946,0,0,0,1.773,5.291h0a3.946,3.946,0,0,0,5.291-1.773h0a3.946,3.946,0,0,0-1.773-5.291h0A3.946,3.946,0,0,0,696.106,250.178Zm4.412-.007a.658.658,0,1,1,.882-.3.658.658,0,0,1-.882.3Z" transform="translate(-499.655 -164.814)" opacity="0.1" fill="url(#a)"/><path d="M697.064,250.959h0a3.551,3.551,0,0,0,1.6,4.762h0a3.551,3.551,0,0,0,4.762-1.6h0a3.551,3.551,0,0,0-1.6-4.762h0A3.551,3.551,0,0,0,697.064,250.959Zm3.971-.006a.592.592,0,1,1,.794-.266.592.592,0,0,1-.794.266Z" transform="translate(-500.26 -165.42)" fill="#4d8af0"/><path d="M707.774,247.628a2.333,2.333,0,0,1,1.656-3.307l.042.193a2.138,2.138,0,0,0-1.511,3.051Z" transform="translate(-506.829 -162.593)" fill="#4d8af0"/><path d="M513.488,207.363h0" transform="translate(-310.866 -125.538)" fill="#4d8af0"/><path d="M711.7,204.716c-62.875,4.39-77.7-36.058-77.7-36.058Z" transform="translate(-462.309 -116.786)" fill="#ffd180"/><path d="M402.509,615.539H394.27v69.655s53.178,17.226,104.857,0V615.539Z" transform="translate(-317.174 -387.329)" fill="#3f3d56"/><ellipse cx="51.68" cy="7.864" rx="51.68" ry="7.864" transform="translate(77.096 220.721)" fill="#3f3d56"/><ellipse cx="51.68" cy="7.864" rx="51.68" ry="7.864" transform="translate(77.096 220.721)" opacity="0.1"/><path d="M566.847,256.61c-13.037,48.193-57.692,78.04-57.692,78.04s-23.518-48.289-10.481-96.482,57.692-78.04,57.692-78.04S579.884,208.417,566.847,256.61Z" transform="translate(-377.998 -111.622)" fill="#3f3d56"/><path d="M370.878,256.61c13.037,48.193,57.692,78.04,57.692,78.04s23.518-48.289,10.481-96.482-57.692-78.04-57.692-78.04S357.841,208.417,370.878,256.61Z" transform="translate(-300.629 -111.622)" fill="#6c63ff"/><path d="M288.3,320.467c35.774,34.824,40.143,88.358,40.143,88.358s-53.631-2.928-89.405-37.753-40.143-88.358-40.143-88.358S252.524,285.642,288.3,320.467Z" transform="translate(-198.893 -185.836)" fill="#3f3d56"/><path d="M567.342,320.467c-35.774,34.824-40.144,88.358-40.144,88.358s53.631-2.928,89.405-37.753,40.144-88.358,40.144-88.358S603.116,285.642,567.342,320.467Z" transform="translate(-397.649 -185.836)" fill="#3f3d56"/><circle cx="16.478" cy="16.478" r="16.478" transform="translate(113.047 31.977)" fill="#6c63ff"/><g transform="translate(242.366 251.592)" opacity="0.5"><circle cx="37.092" cy="37.092" r="37.092" fill="url(#b)"/></g><circle cx="34.725" cy="34.725" r="34.725" transform="translate(244.734 253.959)" fill="#f55f44"/><g transform="translate(140.909 173.506)" opacity="0.5"><path d="M593.785,615.781c-5.243.463-11.009-2.142-12.141-7.338-.654-3,.381-5.937,1.381-8.774,1.1-3.11,2.044-5.8.675-8.009a8.411,8.411,0,0,0-2.8-2.446c-1.413-.879-2.929-1.691-4.395-2.476a48.169,48.169,0,0,1-7.482-4.62c-4.577-3.657-6.891-8.535-6.192-13.048.6-3.9,3.242-6.888,5.792-9.778,2.615-2.963,5.086-5.762,5.028-9.189-.078-4.66-4.841-8.006-9.043-10.958l-.656-.462c-5.128-3.617-10.053-9.894-7.059-15.68a13.9,13.9,0,0,1,4.477-4.57,16.568,16.568,0,0,0,3.087-2.7c3.083-3.819,1.51-9.475.69-11.729-.623-1.714-1.438-3.424-2.226-5.077a42.729,42.729,0,0,1-3.065-7.693l-.115-.447c-1.684-6.558-1.682-6.8.1-13.1l.222-.785,2.659.75-.222.788c-1.611,5.7-1.611,5.7-.08,11.658l.115.447a40.039,40.039,0,0,0,2.884,7.191c.816,1.712,1.659,3.484,2.328,5.322,2.071,5.7,1.656,10.948-1.137,14.408a18.87,18.87,0,0,1-3.589,3.181,11.69,11.69,0,0,0-3.671,3.623c-2.329,4.5,2.8,9.757,6.2,12.154l.651.459c4.507,3.166,10.115,7.106,10.217,13.171.076,4.5-2.87,7.835-5.719,11.063-2.393,2.711-4.652,5.272-5.133,8.373-.643,4.148,2.257,8.127,5.186,10.467a45.392,45.392,0,0,0,7.062,4.343c1.505.806,3.061,1.639,4.551,2.566a10.8,10.8,0,0,1,3.686,3.337c2.065,3.336.8,6.918-.419,10.381-.913,2.588-1.774,5.033-1.287,7.268.88,4.039,6.178,5.877,10.382,5,3.44-.717,6.468-2.607,9.673-4.607,1.037-.647,2.109-1.316,3.188-1.937,5.893-3.384,11.232-4.211,15.441-2.392a20.4,20.4,0,0,1,3.742,2.283,20.6,20.6,0,0,0,2.87,1.83,9.927,9.927,0,0,0,12.725-4.419c.2-.422.385-.875.578-1.354a8.772,8.772,0,0,1,2.895-4.33,8.863,8.863,0,0,1,5.2-1.1l15.443.131-.024,2.762-15.443-.131a4.419,4.419,0,0,0-5.513,3.7c-.2.5-.409,1.015-.65,1.518a12.681,12.681,0,0,1-16.427,5.705,22.972,22.972,0,0,1-3.265-2.065,18.046,18.046,0,0,0-3.231-1.994c-4.267-1.845-9.408.206-12.969,2.252-1.036.6-2.086,1.251-3.1,1.885-3.269,2.041-6.65,4.15-10.572,4.967A12.971,12.971,0,0,1,593.785,615.781Z" transform="translate(-555.987 -476.905)" fill="url(#c)"/></g><path d="M595.513,612.617c-5.243.463-11.009-2.142-12.141-7.338-.654-3,.381-5.937,1.381-8.774,1.1-3.11,2.044-5.8.675-8.009a8.411,8.411,0,0,0-2.8-2.446c-1.413-.879-2.929-1.691-4.395-2.476a48.17,48.17,0,0,1-7.482-4.62c-4.577-3.657-6.891-8.535-6.192-13.048.6-3.9,3.242-6.888,5.792-9.778,2.615-2.963,5.086-5.762,5.028-9.189-.078-4.66-4.841-8.006-9.043-10.957l-.656-.462c-5.128-3.617-10.053-9.894-7.059-15.68a13.9,13.9,0,0,1,4.477-4.57,16.566,16.566,0,0,0,3.087-2.7c3.083-3.819,1.51-9.475.69-11.729-.623-1.714-1.438-3.424-2.226-5.077a42.734,42.734,0,0,1-3.066-7.693l-.115-.447c-1.684-6.558-1.682-6.8.1-13.1l.222-.785,2.659.75-.222.788c-1.611,5.7-1.611,5.7-.08,11.658l.115.447a40.045,40.045,0,0,0,2.884,7.191c.816,1.712,1.659,3.484,2.328,5.322,2.071,5.7,1.656,10.948-1.137,14.408a18.866,18.866,0,0,1-3.589,3.181,11.691,11.691,0,0,0-3.671,3.623c-2.329,4.5,2.8,9.757,6.2,12.154l.651.458c4.507,3.166,10.115,7.106,10.217,13.171.076,4.5-2.87,7.835-5.719,11.063-2.393,2.711-4.652,5.272-5.133,8.374-.643,4.148,2.258,8.127,5.186,10.467a45.4,45.4,0,0,0,7.062,4.343c1.505.806,3.061,1.639,4.551,2.566a10.8,10.8,0,0,1,3.686,3.337c2.065,3.336.8,6.918-.419,10.381-.913,2.588-1.774,5.033-1.288,7.268.88,4.039,6.178,5.877,10.382,5,3.44-.717,6.468-2.607,9.673-4.607,1.037-.647,2.109-1.316,3.188-1.937,5.893-3.384,11.232-4.211,15.441-2.392a20.405,20.405,0,0,1,3.742,2.283,20.588,20.588,0,0,0,2.87,1.83,9.927,9.927,0,0,0,12.725-4.419c.2-.422.385-.875.578-1.354a8.771,8.771,0,0,1,2.895-4.33,8.862,8.862,0,0,1,5.2-1.1l15.443.131-.024,2.762-15.443-.131a4.419,4.419,0,0,0-5.513,3.7c-.2.5-.409,1.015-.651,1.518a12.681,12.681,0,0,1-16.427,5.705,22.967,22.967,0,0,1-3.265-2.065,18.051,18.051,0,0,0-3.231-1.994c-4.267-1.846-9.408.206-12.969,2.252-1.036.6-2.086,1.251-3.1,1.885-3.269,2.041-6.65,4.15-10.572,4.967a12.971,12.971,0,0,1-1.5.221Z" transform="translate(-416.124 -301.484)" fill="#f55f44"/><path d="M916.675,706.708s19.359,1.657,22.252,29.923" transform="translate(-633.439 -442.522)" fill="none" stroke="#000" stroke-miterlimit="10" stroke-width="1" opacity="0.2"/><path d="M837,740.066s-9.159-22.959,20.748-38.674" transform="translate(-584.406 -439.305)" fill="none" stroke="#000" stroke-miterlimit="10" stroke-width="1" opacity="0.2"/><path d="M856.332,754.839s-4.221-11.907,5.015-19.458" transform="translate(-596.325 -459.881)" fill="none" stroke="#000" stroke-miterlimit="10" stroke-width="1" opacity="0.2"/><path d="M902.4,732.565s8.024,5.629,5.482,21.7" transform="translate(-624.794 -458.176)" fill="none" stroke="#000" stroke-miterlimit="10" stroke-width="1" opacity="0.2"/><path d="M939.98,692.1s13.2,5.964,18.258,27.3" transform="translate(-647.548 -433.679)" fill="none" stroke="#000" stroke-miterlimit="10" stroke-width="1" opacity="0.2"/><path d="M891.17,694.659s7.653-3.053,13.145.819" transform="translate(-617.998 -434.536)" fill="none" stroke="#000" stroke-miterlimit="10" stroke-width="1" opacity="0.2"/><path d="M877.119,805.508s7.411,7.664,33.8-2.986" transform="translate(-609.492 -500.528)" fill="none" stroke="#000" stroke-miterlimit="10" stroke-width="1" opacity="0.2"/><path d="M839.644,704.649A30.377,30.377,0,0,0,829.8,727.7" transform="translate(-580.842 -441.276)" fill="none" stroke="#000" stroke-miterlimit="10" stroke-width="1" opacity="0.2"/><path d="M851.424,798.256s-1.942,4.925,3.157,8.832" transform="translate(-593.716 -497.946)" fill="none" stroke="#000" stroke-miterlimit="10" stroke-width="1" opacity="0.2"/><path d="M957.8,810.871s-2.7,9.746-8.311,9.053" transform="translate(-653.304 -505.583)" fill="none" stroke="#000" stroke-miterlimit="10" stroke-width="1" opacity="0.2"/><path d="M928.618,745.307s3.954,4.4,2.082,10.116" transform="translate(-640.669 -465.89)" fill="none" stroke="#000" stroke-miterlimit="10" stroke-width="1" opacity="0.2"/><path d="M876.583,750.7s-2.982,6.6-.565,11.538" transform="translate(-608.253 -469.157)" fill="none" stroke="#000" stroke-miterlimit="10" stroke-width="1" opacity="0.2"/><path d="M889.858,749.735s3.411,7.225,1.007,11.4" transform="translate(-617.204 -468.571)" fill="none" stroke="#000" stroke-miterlimit="10" stroke-width="1" opacity="0.2"/></g></svg>