<svg xmlns="http://www.w3.org/2000/svg" width="369.876" height="318.024" viewBox="0 0 369.876 318.024"><ellipse cx="71.5" cy="14.5" rx="71.5" ry="14.5" transform="translate(226.876 289.024)" fill="#f2f2f2"/><path d="M255.265,505.528c.425.991.875,1.993,1.337,2.977l-.99.465c-.467-1-.922-2.008-1.352-3.01Z" transform="translate(-233.443 -319.988)" fill="#e6e6e6"/><path d="M423.162,277.155c.625,1.331,1.225,2.687,1.784,4.031l-1.01.42c-.837-2.013-1.762-4.041-2.738-6l.98-.487Q422.679,276.126,423.162,277.155ZM419,269.247l-.944.553c-1.108-1.894-2.294-3.769-3.524-5.576l.9-.615C416.684,265.435,417.883,267.331,419,269.247Zm8.293,18.181c.711,2.1,1.357,4.251,1.92,6.389l-1.058.278c-.557-2.113-1.2-4.238-1.9-6.316Zm-15.8-29.2-.86.676c-1.354-1.721-2.786-3.416-4.255-5.039l.811-.734c1.487,1.642,2.936,3.357,4.305,5.1Zm19.2,42.1c.415,2.174.76,4.393,1.024,6.593l-1.086.131c-.262-2.176-.6-4.369-1.013-6.519Zm-28.147-51.98-.758.789c-1.578-1.517-3.228-3-4.9-4.4l.7-.838C399.282,245.311,400.95,246.808,402.547,248.343Zm29.739,65.23c.112,2.218.147,4.465.106,6.679l-1.094-.02c.041-2.189.006-4.411-.1-6.6Zm-39.953-73.782-.643.885c-1.772-1.286-3.61-2.528-5.464-3.689l.581-.927C388.681,237.234,390.54,238.49,392.332,239.791Zm39.7,87.129c-.194,2.211-.466,4.44-.81,6.627l-1.081-.17c.34-2.162.61-4.366.8-6.553Zm-51-94.205-.516.964c-1.931-1.034-3.922-2.013-5.918-2.912l.449-1C377.071,230.679,379.085,231.669,381.037,232.715ZM429.965,340.1c-.493,2.159-1.066,4.329-1.705,6.452l-1.047-.316c.632-2.1,1.2-4.245,1.686-6.38ZM368.879,227.239l-.38,1.026c-2.054-.761-4.16-1.462-6.261-2.081l.31-1.049C364.672,225.761,366.8,226.469,368.879,227.239ZM426.12,352.874c-.782,2.074-1.645,4.146-2.566,6.159l-.995-.455c.91-1.991,1.763-4.039,2.537-6.09ZM356.085,223.465l-.238,1.067c-2.136-.475-4.319-.882-6.487-1.211l.164-1.081C351.717,222.573,353.925,222.985,356.085,223.465ZM420.576,365c-1.056,1.947-2.193,3.882-3.378,5.75l-.924-.586c1.172-1.847,2.3-3.76,3.341-5.686ZM342.892,221.469l-.089,1.09c-2.186-.179-4.4-.284-6.6-.312l.014-1.093c2.216.028,4.46.134,6.67.316Zm70.543,154.786c-1.311,1.783-2.7,3.544-4.13,5.232l-.834-.707c1.413-1.669,2.787-3.409,4.084-5.173ZM329.544,221.3l.062,1.092c-2.19.123-4.4.325-6.579.6l-.136-1.085C325.09,221.624,327.329,221.421,329.544,221.3ZM404.827,386.42c-1.545,1.588-3.165,3.143-4.814,4.62l-.729-.815c1.631-1.46,3.232-3,4.76-4.567ZM316.3,222.963l.211,1.074c-2.15.423-4.311.926-6.424,1.5l-.284-1.056C311.942,223.9,314.128,223.392,316.3,222.963Zm78.589,172.352c-1.748,1.36-3.566,2.676-5.4,3.912l-.611-.908c1.817-1.222,3.615-2.524,5.342-3.868ZM303.427,226.433l.356,1.034c-2.067.712-4.139,1.507-6.159,2.36l-.426-1.007C299.24,227.957,301.336,227.154,303.427,226.433Zm80.4,176.326c-1.915,1.106-3.9,2.162-5.886,3.139l-.482-.982c1.969-.966,3.927-2.01,5.821-3.1ZM291.637,232.6c-1.958.987-3.9,2.053-5.786,3.168l-.558-.941c1.9-1.128,3.871-2.206,5.851-3.2ZM280.3,239.324c-1.805,1.246-3.588,2.567-5.3,3.929l-.681-.856c1.73-1.378,3.533-2.715,5.359-3.974Zm-10.313,8.214c-1.613,1.478-3.2,3.031-4.7,4.615l-.793-.754c1.524-1.6,3.124-3.173,4.756-4.668Zm-9.076,9.545c-1.4,1.688-2.751,3.445-4.026,5.22l-.889-.638c1.289-1.8,2.659-3.573,4.072-5.28Zm-7.685,10.706c-1.153,1.865-2.256,3.791-3.276,5.724l-.967-.51c1.032-1.955,2.146-3.9,3.313-5.789Zm-6.155,11.659c-.888,2-1.719,4.06-2.469,6.118l-1.028-.374c.758-2.082,1.6-4.163,2.5-6.187Zm-4.514,12.391c-.608,2.107-1.152,4.26-1.614,6.4l-1.069-.231c.468-2.163,1.017-4.34,1.632-6.471Zm-2.789,12.893c-.316,2.172-.56,4.379-.726,6.561l-1.091-.083c.168-2.207.415-4.439.735-6.636Zm-1,13.158c-.016,2.193.045,4.414.18,6.6l-1.092.067c-.137-2.211-.2-4.457-.183-6.676Zm.816,13.174c.286,2.171.652,4.36,1.087,6.507l-1.072.218c-.44-2.171-.81-4.385-1.1-6.581Zm2.62,12.923c.582,2.109,1.244,4.227,1.97,6.3l-1.033.362c-.734-2.092-1.4-4.234-1.992-6.366Z" transform="translate(-224.743 -170.893)" fill="#e6e6e6"/><path d="M515.214,613.259l.413,1.013c-1.023.417-2.057.818-3.076,1.194l-.378-1.026C513.179,614.069,514.2,613.671,515.214,613.259Z" transform="translate(-368.664 -376.47)" fill="#e6e6e6"/><path d="M622.387,383.315c-.109-.178-2.683-4.477-3.576-13.4-.819-8.188-.292-21.99,6.866-41.243,13.561-36.473-3.125-65.9-3.3-66.195L623.2,262a73.058,73.058,0,0,1,6.892,19.525A85.181,85.181,0,0,1,626.569,329c-13.537,36.411-3.473,53.647-3.37,53.817Z" transform="translate(-424.422 -192.307)" fill="#3f3d56"/><ellipse cx="6" cy="6.5" rx="6" ry="6.5" transform="translate(186.876 55.024)" fill="#6c63ff"/><ellipse cx="6.5" cy="6" rx="6.5" ry="6" transform="translate(205.876 79.024)" fill="#3f3d56"/><ellipse cx="6.5" cy="5.5" rx="6.5" ry="5.5" transform="translate(192.876 94.024)" fill="#6c63ff"/><ellipse cx="6" cy="6.5" rx="6" ry="6.5" transform="translate(208.876 106.024)" fill="#6c63ff"/><ellipse cx="6.5" cy="6" rx="6.5" ry="6" transform="translate(187.876 127.024)" fill="#3f3d56"/><path d="M633.41,488.14s-6.184-15.223,12.368-26.64Z" transform="translate(-431.709 -296.904)" fill="#3f3d56"/><path d="M591.4,499.231s-2.814-16.188-24.6-16.049Z" transform="translate(-397.306 -308.271)" fill="#3f3d56"/><path d="M505.64,278.324a.944.944,0,0,0-.673,1.747,28.021,28.021,0,0,1,8.355,7.128c10.665,13.538,6.941,34.258-8.318,46.279a37.591,37.591,0,0,1-23.909,8.26c10.246,2.887,22.34.615,32.086-7.063,15.259-12.021,18.983-32.741,8.318-46.279A28.692,28.692,0,0,0,505.64,278.324Z" transform="translate(-352.371 -200.854)" fill="#3f3d56"/><path d="M518.264,287.631c10.665,13.538,6.941,34.258-8.318,46.279a38.13,38.13,0,0,1-19.425,8.061,37.663,37.663,0,0,0,23.32-8.266c15.259-12.021,18.983-32.741,8.318-46.279a28.245,28.245,0,0,0-11.512-8.652l-.07-.017a.943.943,0,0,0-.666,1.747A28.022,28.022,0,0,1,518.264,287.631Z" transform="translate(-357.313 -201.081)" fill="#6c63ff"/><path d="M225.029,138l6.3,10.9,6.3,10.9H212.438l6.3-10.9Z" transform="translate(-111.379 -72.352)" fill="#6c63ff"/><path d="M273.3,138l6.3,10.9,6.3,10.9H260.708l6.3-10.9Z" transform="translate(-136.687 -72.352)" fill="#6c63ff"/><path d="M228.814,149.956l3.884,6.728,3.884,6.727H221.045l3.884-6.727Z" transform="translate(-115.892 -78.62)" fill="#3f3d56"/><path d="M278.421,149.956l3.884,6.728,3.884,6.727H270.653l3.884-6.727Z" transform="translate(-141.901 -78.62)" fill="#3f3d56"/><path d="M469.012,367.764a44.287,44.287,0,1,1-15.836-33.938A44.287,44.287,0,0,1,469.012,367.764Z" transform="translate(-299.595 -224.541)" fill="#3f3d56"/><path d="M470.636,333.827c-3.7,9.675-15.04,16.716-28.449,16.716s-24.744-7.04-28.449-16.716a44.282,44.282,0,0,1,56.9,0Z" transform="translate(-317.056 -224.541)" opacity="0.1"/><ellipse cx="29.728" cy="23.578" rx="29.728" ry="23.578" transform="translate(95.403 75.36)" fill="#3f3d56"/><circle cx="5.536" cy="5.536" r="5.536" transform="translate(105.654 90.121)" fill="#fff"/><circle cx="5.536" cy="5.536" r="5.536" transform="translate(133.537 90.121)" fill="#fff"/><circle cx="3.485" cy="3.485" r="3.485" transform="translate(107.704 92.172)" fill="#3f3d56"/><circle cx="3.485" cy="3.485" r="3.485" transform="translate(135.587 92.172)" fill="#3f3d56"/><circle cx="1.025" cy="1.025" r="1.025" transform="translate(117.889 102.421)" fill="#6c63ff"/><path d="M445.832,332.376c-2.011.913-3.343,2.772-5.455,3.571a10,10,0,0,1-6.7.124c-.377-.125-.538.469-.164.593a10.566,10.566,0,0,0,6.728-.017,10.179,10.179,0,0,0,2.868-1.524,16.617,16.617,0,0,1,3.034-2.217c.36-.163.048-.694-.31-.531Z" transform="translate(-327.312 -229.19)" fill="#6c63ff"/><path d="M446.837,331.855a11.7,11.7,0,0,0-2.946,1.114,10.1,10.1,0,0,1-3.4.956,9.981,9.981,0,0,1-6.353-1.608c-.332-.217-.641.315-.31.531a10.547,10.547,0,0,0,6.346,1.715,10.089,10.089,0,0,0,3.176-.689A18.511,18.511,0,0,1,447,332.448C447.39,332.381,447.225,331.788,446.837,331.855Z" transform="translate(-327.516 -228.93)" fill="#6c63ff"/><path d="M448.5,330.928c-1.566,1.478-2.216,3.612-3.877,5.042a9.971,9.971,0,0,1-6.42,2.412.308.308,0,0,0,0,.615,10.561,10.561,0,0,0,6.315-2.154,10.154,10.154,0,0,0,2.139-2.207,19.715,19.715,0,0,1,2.277-3.273c.288-.272-.147-.707-.435-.435Z" transform="translate(-329.725 -228.401)" fill="#6c63ff"/><circle cx="1.025" cy="1.025" r="1.025" transform="translate(128.683 102.421)" fill="#6c63ff"/><path d="M483.162,332.908a16.1,16.1,0,0,1,3,2.193,10.217,10.217,0,0,0,2.9,1.548,10.543,10.543,0,0,0,6.728.017c.374-.124.214-.718-.164-.593a10,10,0,0,1-6.7-.124c-2.113-.8-3.444-2.657-5.455-3.571-.358-.162-.671.368-.31.531Z" transform="translate(-353.37 -229.19)" fill="#6c63ff"/><path d="M481.718,332.449a16.764,16.764,0,0,1,3.5,1.366,10.181,10.181,0,0,0,3.324.748,10.546,10.546,0,0,0,6.346-1.715c.33-.216.022-.748-.31-.531a9.947,9.947,0,0,1-6.353,1.608,10.248,10.248,0,0,1-3.4-.956,11.761,11.761,0,0,0-2.946-1.114c-.387-.067-.553.526-.164.593Z" transform="translate(-352.58 -228.93)" fill="#6c63ff"/><path d="M482.443,331.363a19.857,19.857,0,0,1,2.277,3.273,10.189,10.189,0,0,0,2.139,2.207A10.562,10.562,0,0,0,493.174,339a.308.308,0,0,0,0-.615,9.941,9.941,0,0,1-6.42-2.412c-1.654-1.436-2.312-3.564-3.877-5.042-.288-.272-.724.163-.435.435Z" transform="translate(-353.027 -228.402)" fill="#6c63ff"/><ellipse cx="8.201" cy="4.716" rx="8.201" ry="4.716" transform="translate(102.989 181.152)" fill="#3f3d56"/><ellipse cx="8.201" cy="4.716" rx="8.201" ry="4.716" transform="translate(130.872 181.152)" fill="#3f3d56"/><ellipse cx="6.766" cy="3.895" rx="6.766" ry="3.895" transform="translate(117.545 99.348)" fill="#6c63ff"/><path d="M210.5,115.5V379.995H564.9V115.5Zm45.668,3.33a5.709,5.709,0,1,1-5.708,5.709A5.709,5.709,0,0,1,256.168,118.83Zm-34.251,11.417a5.709,5.709,0,1,1,5.709-5.709,5.709,5.709,0,0,1-5.709,5.709Zm11.417-5.709a5.709,5.709,0,1,1,5.709,5.709A5.709,5.709,0,0,1,233.334,124.538ZM429.8,305.784H239.043V164.022H429.8Z" transform="translate(-210.5 -115.5)" fill="#f2f2f2"/><rect width="12" height="1" transform="translate(334.876 5.024)" fill="#fff"/><rect width="12" height="1" transform="translate(334.876 9.024)" fill="#fff"/><rect width="12" height="2" transform="translate(334.876 13.024)" fill="#fff"/><rect width="86" height="4" transform="translate(248.876 46.024)" fill="#fff"/><rect width="86" height="6" transform="translate(248.876 60.024)" fill="#fff"/><rect width="86" height="4" transform="translate(248.876 76.024)" fill="#fff"/><rect width="86" height="4" transform="translate(248.876 91.024)" fill="#fff"/><rect width="86" height="4" transform="translate(248.876 105.024)" fill="#fff"/><rect width="86" height="4" transform="translate(248.876 120.024)" fill="#fff"/><rect width="86" height="5" transform="translate(248.876 134.024)" fill="#fff"/><rect width="86" height="5" transform="translate(248.876 149.024)" fill="#fff"/><rect width="86" height="4" transform="translate(248.876 164.024)" fill="#fff"/><rect width="86" height="4" transform="translate(248.876 179.024)" fill="#fff"/><circle cx="6" cy="6" r="6" transform="translate(33.876 194.024)" fill="#fff"/><circle cx="6" cy="6" r="6" transform="translate(53.876 194.024)" fill="#fff"/><ellipse cx="5.5" cy="6" rx="5.5" ry="6" transform="translate(73.876 194.024)" fill="#fff"/><rect width="86" height="24" transform="translate(248.876 228.024)" fill="#6c63ff"/><path d="M824.459,554.946l.963,33.7,10.272,39.483s-2.247,6.741-.642,8.346,8.988,4.494,8.988,4.494l-6.1-84.1Z" transform="translate(-532.393 -345.897)" fill="#2f2e41"/><path d="M839.508,725.186s3.663,8.059-1.465,8.791-28.816,2.686-27.351-1.465,19.292-8.059,19.292-8.059Z" transform="translate(-525.14 -434.768)" fill="#2f2e41"/><path d="M857.581,492.079s-3.852,20.865-6.42,24.4,1.284,29.211,1.284,29.211,5.778,36.915,3.21,42.693-1.926,3.852-1.6,7.062.963,5.778,0,8.667a25.385,25.385,0,0,0-1.284,4.173c-.321,1.6,0,10.272,0,10.272s-13.8,4.815-16.05-2.247c0,0,3.21-4.494,2.247-8.025a42.755,42.755,0,0,1-1.6-10.914v-6.741l-14.766-55.211-3.531-19.9s.963-20.223,4.494-22.149S857.581,492.079,857.581,492.079Z" transform="translate(-529.563 -312.883)" fill="#2f2e41"/><path d="M846.048,753.618s4.815,10.593-1.926,11.556-37.877,3.531-35.952-1.926,25.359-10.593,25.359-10.593Z" transform="translate(-523.808 -449.554)" fill="#2f2e41"/><circle cx="12.84" cy="12.84" r="12.84" transform="translate(303.298 61.083)" fill="#ffb9b9"/><path d="M876.414,282.2l-.239,16.4-15.742.053s4-12.836,2.206-15.52S876.414,282.2,876.414,282.2Z" transform="translate(-551.254 -202.605)" fill="#ffb9b9"/><path d="M831.253,325.466s11.235-14.445,19.9-8.346,11.877,20.544,11.877,20.544l-1.926,40.445s-4.815,5.778-1.926,9.63,4.494,2.889,2.247,5.778-4.815,5.136-3.852,6.1-.963,1.605-.963,1.605l-34.026.963s.963-1.284-1.926-5.136.642-8.988,0-10.914-1.284.321-1.6-4.173S831.253,325.466,831.253,325.466Z" transform="translate(-529.556 -220.42)" fill="#3f3d56"/><path d="M839.226,506.873s-.642,8.025-5.457,9.309c-1.806.482-3.16-.436-4.147-1.772a7.883,7.883,0,0,1-.252-8.844l1.189-1.9Z" transform="translate(-534.32 -319.01)" fill="#ffb9b9"/><path d="M877.428,300.973s.321,6.42,0,7.383a3.07,3.07,0,0,0,0,2.889c.642.963.321,4.173-.321,4.494s1.284,3.21.642,5.136a13.932,13.932,0,0,1-1.6,3.21c-.321.642-.838,1.792-.838,1.792s-9.434-20.089-17.138-15.274a55.831,55.831,0,0,1-13.8,6.42S848.538,294.552,877.428,300.973Z" transform="translate(-542.83 -212.137)" fill="#3f3d56"/><path d="M856.5,333.536s10.272.963,9.63,14.445.963,34.668.963,34.668-17.655,26.964-20.544,28.89-3.21,1.6-2.889,3.21.642,2.889-.642,4.173a11.086,11.086,0,0,1-2.568,1.926s-10.272-3.531-9.309-6.741,5.457-8.346,5.457-8.346,7.7-12.519,8.025-14.445.321-1.605,1.284-2.568,3.531-4.815,3.531-6.741v-6.1l-2.691-32.593A9.449,9.449,0,0,1,849.248,336,8.175,8.175,0,0,1,856.5,333.536Z" transform="translate(-535.86 -229.773)" fill="#3f3d56"/><path d="M850.923,239.405a5.232,5.232,0,0,1-4.848-1.11,3.959,3.959,0,0,1-.784-4.741,6.253,6.253,0,0,1,3.7-2.352,32.733,32.733,0,0,1,9.722-1.483,8.728,8.728,0,0,1,4.558.947c.665.4,1.229.955,1.887,1.37a23.548,23.548,0,0,0,3.991,1.545,10.237,10.237,0,0,1,5.834,6.178,12.335,12.335,0,0,1,.567,2.9,15.9,15.9,0,0,1-1.387,7.882c-1.791,3.905-5.2,7.189-5.682,11.459-1.835-1.54-2.373-4.124-3.794-6.053a7.848,7.848,0,0,0-4.285-2.908,2.5,2.5,0,0,1-1.3-.58,2.15,2.15,0,0,1-.406-1.169l-.881-6.343A5.466,5.466,0,0,0,856.4,241.4a5.02,5.02,0,0,0-2.1-.913,33.924,33.924,0,0,0-5.491-.9" transform="translate(-543.065 -175.384)" fill="#2f2e41"/><path d="M883.64,446.5l-18.02,23.384S882.213,456.014,883.64,446.5Z" transform="translate(-553.973 -289.04)" opacity="0.1"/><path d="M645.295,276.575l.171,22.085L635,314.358l8.563-17.6Z" transform="translate(-332.924 -145.006)" opacity="0.1"/></svg>