<svg xmlns="http://www.w3.org/2000/svg" xmlns:xlink="http://www.w3.org/1999/xlink" width="300.995" height="276.424" viewBox="0 0 300.995 276.424"><defs><linearGradient id="a" x1="0.5" y1="1" x2="0.5" gradientUnits="objectBoundingBox"><stop offset="0" stop-color="gray" stop-opacity="0.251"/><stop offset="0.54" stop-color="gray" stop-opacity="0.122"/><stop offset="1" stop-color="gray" stop-opacity="0.102"/></linearGradient><linearGradient id="b" x1="0" y1="0.5" x2="1" y2="0.5" xlink:href="#a"/></defs><g transform="translate(0 -0.031)"><g transform="translate(0 42.351)" opacity="0.7"><ellipse cx="150.497" cy="117.052" rx="150.497" ry="117.052" fill="url(#a)"/></g><ellipse cx="143.984" cy="111.986" rx="143.984" ry="111.986" transform="translate(6.513 47.417)" fill="#6c63ff"/><g transform="translate(182.689 138.738)" opacity="0.5"><path d="M777.916,540.345l-2.572-6.125L770.235,507.4l-2.1-11.856H766c.022-.255.034-.511.036-.768a6.5,6.5,0,0,0-1.654-4.625q.019-.258.02-.519a7.61,7.61,0,0,0-.752-3.384h0a4.848,4.848,0,0,0-.523-.831H763.1c-.085-.109-.173-.208-.261-.3l-.075-.073c-.075-.073-.154-.14-.232-.2l-.1-.083-.222-.151-.118-.068c-.075-.042-.154-.073-.229-.109l-.127-.047a2.065,2.065,0,0,0-.248-.073h-.114a2.27,2.27,0,0,0-.376-.036,2.681,2.681,0,0,0-2.036,1.085,6.764,6.764,0,0,0-.546-1.557h0a5.291,5.291,0,0,0-.523-.831.038.038,0,0,1-.023,0q-.127-.156-.265-.3l-.075-.078c-.075-.073-.15-.14-.229-.2l-.1-.078a2.31,2.31,0,0,0-.222-.151l-.121-.073-.229-.1-.124-.052a1.462,1.462,0,0,0-.248-.068l-.114-.031a2.263,2.263,0,0,0-.376-.031,1.469,1.469,0,0,0-.4.036,8.065,8.065,0,0,0-.353-5.917h0a5.611,5.611,0,0,0-.458-.856,7.885,7.885,0,0,0,.209-7.137h0a4.845,4.845,0,0,0-.523-.831l-.013-.026c-.085-.109-.173-.208-.261-.3l-.075-.073c-.075-.073-.154-.14-.232-.2l-.1-.083-.225-.151-.118-.067c-.075-.042-.154-.073-.229-.109a.439.439,0,0,0-.124-.047c-.043-.01-.167-.052-.252-.073l-.114-.026a2.269,2.269,0,0,0-.376-.036h-.268c-.069-.171-.141-.332-.219-.519h0a5.28,5.28,0,0,0-.523-.831.069.069,0,0,1-.023-.026,3.485,3.485,0,0,0-.265-.3l-.075-.078c-.075-.073-.15-.14-.229-.2l-.1-.078a2.3,2.3,0,0,0-.222-.151l-.121-.073-.229-.1-.124-.052a2.245,2.245,0,0,0-.248-.073l-.144.016a2.26,2.26,0,0,0-.376-.031c-1.189,0-2.288,1-2.892,2.627h0a2.288,2.288,0,0,0-.252-.073l-.114-.026a2.27,2.27,0,0,0-.376-.036h-.167a8.058,8.058,0,0,0-.582-5.061h0a5.285,5.285,0,0,0-.523-.831l-.023-.026a3.534,3.534,0,0,0-.265-.3l-.075-.073c-.075-.073-.15-.14-.229-.2l-.1-.083-.222-.151-.121-.068c-.075-.042-.15-.073-.229-.109l-.124-.047a2.254,2.254,0,0,0-.248-.073l-.118-.026a2.2,2.2,0,0,0-.373-.036c-1.217.009-2.339,1.05-2.941,2.73-.059-.068-.114-.135-.176-.2l-.075-.073a2.683,2.683,0,0,0-.232-.208l-.1-.078a2.31,2.31,0,0,0-.222-.151l-.082-.052a6.334,6.334,0,0,0,1.45-3.668,7.847,7.847,0,0,0-.714-4.18h0a4.847,4.847,0,0,0-.523-.831h-.023a3.476,3.476,0,0,0-.261-.3l-.075-.073c-.075-.073-.154-.14-.232-.208l-.1-.078-.226-.151-.118-.068c-.075-.042-.15-.073-.229-.109l-.124-.052-.252-.068h-.114a2.27,2.27,0,0,0-.376-.036c-1.88,0-3.4,2.422-3.4,5.409,0,.047,0,.1,0,.145-.075.031-.154.057-.229.093a4.914,4.914,0,0,0-2.239,3.556,8.247,8.247,0,0,0-.154,1.609q0,.3.02.6l.02.182v.125l-.039-.036-.075-.073-.229-.208-.1-.078-.222-.151-.121-.067a1.756,1.756,0,0,0-.229-.109l-.124-.052-.248-.067-.114-.026a2.269,2.269,0,0,0-.376-.036c-1.881,0-3.405,2.422-3.405,5.409q0,.3.023.592c0,.062,0,.125,0,.182a2.686,2.686,0,0,0,.046.4c.02.13.02.13.033.2s.042.244.065.363l.046.187c.029.125.059.239.095.358l.049.161c.039.125.082.249.127.369l.049.119q.086.216.186.415l.016.036.049.1h-.059a2.1,2.1,0,0,0-.252-.073l-.114-.026a2.267,2.267,0,0,0-.376-.036c-1.49,0-2.806,1.54-3.248,3.8-.052.274-.09.553-.115.836h-.026l-.078-.078c-.075-.073-.15-.14-.229-.2l-.1-.078a2.31,2.31,0,0,0-.222-.151l-.118-.073-.229-.1-.124-.052a2.318,2.318,0,0,0-.252-.073l-.114-.026a2.269,2.269,0,0,0-.376-.036c-1.879,0-3.4,2.424-3.4,5.409q0,.3.02.6l.02.182a3.242,3.242,0,0,0,.042.395c.016.13.023.135.033.2s.042.249.069.369.026.125.042.187.059.239.095.353l.049.166c.039.125.085.244.131.363a1.109,1.109,0,0,0,.046.119q.088.218.186.42l.02.036v.031a7.885,7.885,0,0,0-.5,2.824q0,.3.02.592l.02.182a3.206,3.206,0,0,0,.042.4c.016.13.023.13.033.2s.042.244.069.363.026.125.042.187.062.244.095.358l.049.161q.06.189.131.369a.321.321,0,0,0,.046.119h0c-1.4.151-2.595,1.653-3.01,3.779a8.252,8.252,0,0,0-.154,1.609q0,.3.02.6l.02.182c.009.133.024.264.042.395l.029.192h-5.1l-7.344,38.516-3.036,6.2ZM732.2,479.254l-.065-.161.157-.068Zm15.952-5.014.056-.151.124.042C748.274,474.168,748.212,474.2,748.153,474.24Z" transform="translate(-698.5 -450.97)" fill="url(#b)"/></g><ellipse cx="3.222" cy="5.118" rx="3.222" ry="5.118" transform="translate(195.075 192.655)" fill="#795548"/><path d="M736.891,560.748a5.878,5.878,0,0,1,1.824-4.608,2.311,2.311,0,0,1,3.4.622c-.771-1.532-2.027-2.228-3.231-1.791s-2.145,1.93-2.421,3.842a7.012,7.012,0,0,0,1.126,5.133,7.146,7.146,0,0,1-.7-3.2Z" transform="translate(-541.316 -362.186)" fill="#fff" opacity="0.05"/><ellipse cx="3.222" cy="5.118" rx="3.222" ry="5.118" transform="translate(206.226 193.838)" fill="#795548"/><path d="M770.976,563.031a5.879,5.879,0,0,1,1.826-4.6,2.311,2.311,0,0,1,3.4.616c-.773-1.525-2.027-2.214-3.228-1.775s-2.139,1.929-2.416,3.837a7.02,7.02,0,0,0,1.118,5.127A7.216,7.216,0,0,1,770.976,563.031Z" transform="translate(-564.267 -363.291)" fill="#fff" opacity="0.05"/><ellipse cx="3.222" cy="5.118" rx="3.222" ry="5.118" transform="translate(212.667 194.622)" fill="#795548"/><path d="M790.726,564.541a5.878,5.878,0,0,1,1.824-4.608,2.311,2.311,0,0,1,3.4.622c-.773-1.525-2.027-2.214-3.228-1.775s-2.139,1.929-2.416,3.837a7.02,7.02,0,0,0,1.118,5.128,7.231,7.231,0,0,1-.7-3.2Z" transform="translate(-577.562 -364.017)" fill="#fff" opacity="0.05"/><ellipse cx="3.222" cy="5.118" rx="3.222" ry="5.118" transform="translate(215.886 192.655)" fill="#795548"/><path d="M800.561,560.748a5.879,5.879,0,0,1,1.826-4.6,2.312,2.312,0,0,1,3.4.616c-.771-1.532-2.027-2.228-3.231-1.791s-2.145,1.93-2.421,3.842a7.011,7.011,0,0,0,1.126,5.133,7.152,7.152,0,0,1-.7-3.2Z" transform="translate(-584.178 -362.186)" fill="#fff" opacity="0.05"/><ellipse cx="3.222" cy="5.118" rx="3.222" ry="5.118" transform="translate(240.91 192.655)" fill="#795548"/><path d="M877.131,560.748a5.878,5.878,0,0,1,1.824-4.608,2.311,2.311,0,0,1,3.4.622c-.771-1.532-2.027-2.228-3.231-1.791s-2.145,1.93-2.421,3.842a7.011,7.011,0,0,0,1.126,5.133,7.192,7.192,0,0,1-.7-3.2Z" transform="translate(-635.724 -362.186)" fill="#fff" opacity="0.05"/><ellipse cx="3.222" cy="5.118" rx="3.222" ry="5.118" transform="translate(228.276 192.265)" fill="#795548"/><path d="M838.486,560a5.879,5.879,0,0,1,1.826-4.6,2.311,2.311,0,0,1,3.4.616c-.773-1.525-2.027-2.214-3.228-1.775s-2.139,1.929-2.416,3.837a7.02,7.02,0,0,0,1.118,5.128,7.17,7.17,0,0,1-.7-3.2Z" transform="translate(-609.714 -361.834)" fill="#fff" opacity="0.05"/><ellipse cx="3.222" cy="5.118" rx="3.222" ry="5.118" transform="translate(199.784 187.936)" fill="#795548"/><path d="M751.306,551.661a5.879,5.879,0,0,1,1.826-4.6,2.311,2.311,0,0,1,3.4.616c-.773-1.525-2.027-2.214-3.228-1.775s-2.139,1.929-2.416,3.837a7.019,7.019,0,0,0,1.118,5.128,7.216,7.216,0,0,1-.7-3.2Z" transform="translate(-551.025 -357.823)" fill="#fff" opacity="0.05"/><ellipse cx="3.222" cy="5.118" rx="3.222" ry="5.118" transform="translate(225.798 177.311)" fill="#795548"/><path d="M830.953,531.206a5.875,5.875,0,0,1,1.835-4.623,2.319,2.319,0,0,1,3.417.652c-.773-1.525-2.027-2.214-3.228-1.775s-2.139,1.929-2.416,3.837a7.02,7.02,0,0,0,1.118,5.128A7.132,7.132,0,0,1,830.953,531.206Z" transform="translate(-604.658 -347.993)" fill="#fff" opacity="0.05"/><ellipse cx="3.222" cy="5.118" rx="3.222" ry="5.118" transform="translate(215.886 165.507)" fill="#795548"/><ellipse cx="3.222" cy="5.118" rx="3.222" ry="5.118" transform="translate(219.096 157.633)" fill="#795548"/><path d="M800.576,508.451a5.88,5.88,0,0,1,1.828-4.6,2.312,2.312,0,0,1,3.4.609c-.773-1.525-2.027-2.214-3.228-1.775s-2.139,1.929-2.416,3.837a7.02,7.02,0,0,0,1.118,5.128A7.177,7.177,0,0,1,800.576,508.451Z" transform="translate(-584.193 -337.042)" fill="#fff" opacity="0.05"/><ellipse cx="3.222" cy="5.118" rx="3.222" ry="5.118" transform="translate(205.481 169.442)" fill="#795548"/><path d="M768.746,516.031a5.879,5.879,0,0,1,1.826-4.6,2.312,2.312,0,0,1,3.4.616c-.773-1.525-2.027-2.214-3.228-1.775s-2.139,1.929-2.416,3.837a7.02,7.02,0,0,0,1.118,5.128A7.171,7.171,0,0,1,768.746,516.031Z" transform="translate(-562.766 -340.688)" fill="#fff" opacity="0.05"/><ellipse cx="3.222" cy="5.118" rx="3.222" ry="5.118" transform="translate(199.039 176.916)" fill="#795548"/><path d="M749.026,530.436a5.884,5.884,0,0,1,1.826-4.6,2.312,2.312,0,0,1,3.4.608c-.773-1.525-2.027-2.214-3.228-1.775s-2.139,1.929-2.416,3.837a7.02,7.02,0,0,0,1.118,5.128A7.169,7.169,0,0,1,749.026,530.436Z" transform="translate(-549.49 -347.613)" fill="#fff" opacity="0.05"/><ellipse cx="3.222" cy="5.118" rx="3.222" ry="5.118" transform="translate(218.363 179.673)" fill="#795548"/><path d="M808.166,535.741a5.879,5.879,0,0,1,1.826-4.6,2.312,2.312,0,0,1,3.4.616c-.773-1.525-2.027-2.214-3.228-1.775s-2.139,1.929-2.416,3.837a7.02,7.02,0,0,0,1.118,5.128A7.17,7.17,0,0,1,808.166,535.741Z" transform="translate(-589.303 -350.167)" fill="#fff" opacity="0.05"/><ellipse cx="3.222" cy="5.118" rx="3.222" ry="5.118" transform="translate(225.55 155.276)" fill="#795548"/><path d="M830.146,488.741a5.879,5.879,0,0,1,1.826-4.6,2.312,2.312,0,0,1,3.4.616c-.773-1.525-2.027-2.214-3.228-1.775s-2.139,1.929-2.416,3.837a7.02,7.02,0,0,0,1.118,5.128A7.217,7.217,0,0,1,830.146,488.741Z" transform="translate(-604.099 -327.563)" fill="#fff" opacity="0.05"/><ellipse cx="3.222" cy="5.118" rx="3.222" ry="5.118" transform="translate(217.622 150.158)" fill="#795548"/><path d="M805.886,478.886a5.883,5.883,0,0,1,1.825-4.606,2.311,2.311,0,0,1,3.4.614c-.773-1.525-2.027-2.214-3.228-1.775s-2.139,1.929-2.416,3.837a7.02,7.02,0,0,0,1.117,5.127A7.206,7.206,0,0,1,805.886,478.886Z" transform="translate(-587.768 -322.822)" fill="#fff" opacity="0.05"/><ellipse cx="3.222" cy="5.118" rx="3.222" ry="5.118" transform="translate(209.445 151.341)" fill="#795548"/><path d="M780.866,481.161a5.88,5.88,0,0,1,1.828-4.6,2.312,2.312,0,0,1,3.4.609c-.773-1.525-2.027-2.214-3.228-1.775s-2.139,1.929-2.416,3.837a7.02,7.02,0,0,0,1.118,5.128,7.178,7.178,0,0,1-.7-3.2Z" transform="translate(-570.925 -323.918)" fill="#fff" opacity="0.05"/><ellipse cx="3.222" cy="5.118" rx="3.222" ry="5.118" transform="translate(209.445 159.605)" fill="#795548"/><path d="M780.866,497.081a5.88,5.88,0,0,1,1.828-4.6,2.312,2.312,0,0,1,3.4.609c-.773-1.525-2.027-2.214-3.228-1.775s-2.139,1.929-2.416,3.837a7.02,7.02,0,0,0,1.118,5.128,7.178,7.178,0,0,1-.7-3.2Z" transform="translate(-570.925 -331.574)" fill="#fff" opacity="0.05"/><ellipse cx="3.222" cy="5.118" rx="3.222" ry="5.118" transform="translate(222.824 172.587)" fill="#795548"/><path d="M821.768,522.067a5.878,5.878,0,0,1,1.824-4.608,2.311,2.311,0,0,1,3.4.622c-.769-1.545-2.029-2.251-3.238-1.815s-2.153,1.937-2.427,3.858a6.988,6.988,0,0,0,1.145,5.142A7.193,7.193,0,0,1,821.768,522.067Z" transform="translate(-598.447 -343.573)" fill="#fff" opacity="0.05"/><ellipse cx="3.222" cy="5.118" rx="3.222" ry="5.118" transform="translate(226.54 169.836)" fill="#795548"/><path d="M833.164,516.78a5.879,5.879,0,0,1,1.826-4.6,2.311,2.311,0,0,1,3.4.616c-.772-1.532-2.028-2.226-3.232-1.788s-2.144,1.932-2.419,3.845a7.008,7.008,0,0,0,1.128,5.132A7.173,7.173,0,0,1,833.164,516.78Z" transform="translate(-606.127 -341.042)" fill="#fff" opacity="0.05"/><ellipse cx="3.222" cy="5.118" rx="3.222" ry="5.118" transform="translate(205.481 187.542)" fill="#795548"/><ellipse cx="3.222" cy="5.118" rx="3.222" ry="5.118" transform="translate(205.481 187.542)" fill="#fff" opacity="0.1"/><path d="M768.746,550.9a5.879,5.879,0,0,1,1.826-4.6,2.311,2.311,0,0,1,3.4.616c-.773-1.525-2.027-2.214-3.228-1.775s-2.139,1.929-2.416,3.837a7.02,7.02,0,0,0,1.118,5.128A7.171,7.171,0,0,1,768.746,550.9Z" transform="translate(-562.766 -357.458)" fill="#fff" opacity="0.05"/><ellipse cx="3.222" cy="5.118" rx="3.222" ry="5.118" transform="translate(215.641 184.785)" fill="#795548"/><ellipse cx="3.222" cy="5.118" rx="3.222" ry="5.118" transform="translate(215.641 184.785)" fill="#fff" opacity="0.1"/><path d="M799.811,545.587a5.878,5.878,0,0,1,1.824-4.608,2.311,2.311,0,0,1,3.4.622c-.771-1.532-2.027-2.229-3.231-1.792s-2.145,1.93-2.421,3.842a7.011,7.011,0,0,0,1.126,5.133A7.169,7.169,0,0,1,799.811,545.587Z" transform="translate(-583.673 -354.895)" fill="#fff" opacity="0.05"/><ellipse cx="3.222" cy="5.118" rx="3.222" ry="5.118" transform="translate(211.922 189.509)" fill="#795548"/><ellipse cx="3.222" cy="5.118" rx="3.222" ry="5.118" transform="translate(211.922 189.509)" fill="#fff" opacity="0.1"/><path d="M788.456,554.691a5.879,5.879,0,0,1,1.826-4.6,2.312,2.312,0,0,1,3.4.616c-.773-1.525-2.027-2.214-3.228-1.775s-2.139,1.929-2.416,3.837a7.02,7.02,0,0,0,1.118,5.128A7.171,7.171,0,0,1,788.456,554.691Z" transform="translate(-576.034 -359.28)" fill="#fff" opacity="0.05"/><ellipse cx="3.222" cy="5.118" rx="3.222" ry="5.118" transform="translate(199.784 193.444)" fill="#795548"/><ellipse cx="3.222" cy="5.118" rx="3.222" ry="5.118" transform="translate(199.784 193.444)" fill="#fff" opacity="0.1"/><path d="M751.282,562.255a5.883,5.883,0,0,1,1.825-4.606,2.312,2.312,0,0,1,3.4.615c-.771-1.538-2.029-2.238-3.235-1.8s-2.148,1.936-2.422,3.853a7,7,0,0,0,1.138,5.136,7.194,7.194,0,0,1-.709-3.2Z" transform="translate(-551.001 -362.904)" fill="#fff" opacity="0.05"/><ellipse cx="3.222" cy="5.118" rx="3.222" ry="5.118" transform="translate(203.003 189.509)" fill="#795548"/><ellipse cx="3.222" cy="5.118" rx="3.222" ry="5.118" transform="translate(203.003 189.509)" fill="#fff" opacity="0.1"/><path d="M761.144,554.68a5.879,5.879,0,0,1,1.826-4.6,2.312,2.312,0,0,1,3.4.616c-.772-1.531-2.028-2.226-3.232-1.788s-2.144,1.932-2.419,3.845a7.009,7.009,0,0,0,1.128,5.132A7.171,7.171,0,0,1,761.144,554.68Z" transform="translate(-557.644 -359.269)" fill="#fff" opacity="0.05"/><ellipse cx="3.222" cy="5.118" rx="3.222" ry="5.118" transform="translate(203.003 180.851)" fill="#795548"/><ellipse cx="3.222" cy="5.118" rx="3.222" ry="5.118" transform="translate(203.003 180.851)" fill="#fff" opacity="0.1"/><path d="M761.129,538a5.878,5.878,0,0,1,1.824-4.608,2.311,2.311,0,0,1,3.4.622c-.77-1.539-2.028-2.24-3.235-1.8s-2.149,1.933-2.424,3.85a7,7,0,0,0,1.135,5.137,7.162,7.162,0,0,1-.706-3.2Z" transform="translate(-557.629 -351.239)" fill="#fff" opacity="0.05"/><ellipse cx="3.222" cy="5.118" rx="3.222" ry="5.118" transform="translate(209.2 172.982)" fill="#795548"/><ellipse cx="3.222" cy="5.118" rx="3.222" ry="5.118" transform="translate(209.2 172.982)" fill="#fff" opacity="0.1"/><path d="M780.116,522.856a5.883,5.883,0,0,1,1.825-4.606,2.312,2.312,0,0,1,3.4.615c-.773-1.525-2.027-2.214-3.228-1.775s-2.139,1.929-2.416,3.837a7.02,7.02,0,0,0,1.118,5.128,7.169,7.169,0,0,1-.7-3.2Z" transform="translate(-570.42 -343.968)" fill="#fff" opacity="0.05"/><ellipse cx="3.222" cy="5.118" rx="3.222" ry="5.118" transform="translate(220.099 192.265)" fill="#795548"/><ellipse cx="3.222" cy="5.118" rx="3.222" ry="5.118" transform="translate(220.099 192.265)" fill="#fff" opacity="0.1"/><path d="M813.454,559.99a5.879,5.879,0,0,1,1.826-4.6,2.311,2.311,0,0,1,3.4.616c-.772-1.531-2.028-2.226-3.232-1.788s-2.144,1.932-2.419,3.845a7.008,7.008,0,0,0,1.128,5.132A7.171,7.171,0,0,1,813.454,559.99Z" transform="translate(-592.858 -361.823)" fill="#fff" opacity="0.05"/><ellipse cx="3.222" cy="5.118" rx="3.222" ry="5.118" transform="translate(229.018 176.522)" fill="#795548"/><ellipse cx="3.222" cy="5.118" rx="3.222" ry="5.118" transform="translate(229.018 176.522)" fill="#fff" opacity="0.1"/><path d="M840.666,529.6a5.878,5.878,0,0,1,1.824-4.608,2.311,2.311,0,0,1,3.4.622c-.763-1.575-2.032-2.3-3.254-1.87s-2.173,1.953-2.441,3.894a6.934,6.934,0,0,0,1.192,5.16,7.124,7.124,0,0,1-.725-3.2Z" transform="translate(-611.152 -347.171)" fill="#fff" opacity="0.05"/><ellipse cx="3.222" cy="5.118" rx="3.222" ry="5.118" transform="translate(229.018 152.914)" fill="#795548"/><ellipse cx="3.222" cy="5.118" rx="3.222" ry="5.118" transform="translate(229.018 152.914)" fill="#fff" opacity="0.1"/><path d="M840.679,484.121a5.879,5.879,0,0,1,1.826-4.6,2.312,2.312,0,0,1,3.4.616c-.765-1.568-2.033-2.292-3.251-1.856s-2.169,1.952-2.437,3.89a6.941,6.941,0,0,0,1.185,5.155A7.133,7.133,0,0,1,840.679,484.121Z" transform="translate(-611.165 -325.305)" fill="#fff" opacity="0.05"/><ellipse cx="3.222" cy="5.118" rx="3.222" ry="5.118" transform="translate(232.24 162.751)" fill="#795548"/><ellipse cx="3.222" cy="5.118" rx="3.222" ry="5.118" transform="translate(232.24 162.751)" fill="#fff" opacity="0.1"/><path d="M850.616,503.146a5.883,5.883,0,0,1,1.825-4.606,2.311,2.311,0,0,1,3.4.614c-.773-1.525-2.027-2.214-3.228-1.775s-2.139,1.929-2.416,3.837a7.02,7.02,0,0,0,1.118,5.128A7.169,7.169,0,0,1,850.616,503.146Z" transform="translate(-617.879 -334.489)" fill="#fff" opacity="0.05"/><ellipse cx="3.222" cy="5.118" rx="3.222" ry="5.118" transform="translate(235.459 170.225)" fill="#795548"/><ellipse cx="3.222" cy="5.118" rx="3.222" ry="5.118" transform="translate(235.459 170.225)" fill="#fff" opacity="0.1"/><path d="M860.439,517.517a5.878,5.878,0,0,1,1.824-4.608,2.311,2.311,0,0,1,3.4.622c-.77-1.539-2.028-2.24-3.235-1.8s-2.149,1.933-2.424,3.85a7,7,0,0,0,1.135,5.137A7.148,7.148,0,0,1,860.439,517.517Z" transform="translate(-624.483 -341.39)" fill="#fff" opacity="0.05"/><ellipse cx="3.222" cy="5.118" rx="3.222" ry="5.118" transform="translate(220.099 161.572)" fill="#795548"/><ellipse cx="3.222" cy="5.118" rx="3.222" ry="5.118" transform="translate(220.099 161.572)" fill="#fff" opacity="0.1"/><path d="M813.454,500.86a5.879,5.879,0,0,1,1.826-4.6,2.311,2.311,0,0,1,3.4.616c-.772-1.531-2.028-2.226-3.232-1.788s-2.144,1.932-2.419,3.845a7.009,7.009,0,0,0,1.128,5.132A7.172,7.172,0,0,1,813.454,500.86Z" transform="translate(-592.859 -333.386)" fill="#fff" opacity="0.05"/><ellipse cx="3.222" cy="5.118" rx="3.222" ry="5.118" transform="translate(210.438 165.507)" fill="#795548"/><ellipse cx="3.222" cy="5.118" rx="3.222" ry="5.118" transform="translate(210.438 165.507)" fill="#fff" opacity="0.1"/><path d="M783.906,508.451a5.879,5.879,0,0,1,1.826-4.6,2.311,2.311,0,0,1,3.4.616c-.773-1.525-2.027-2.214-3.228-1.775s-2.139,1.929-2.416,3.837a7.02,7.02,0,0,0,1.118,5.128A7.17,7.17,0,0,1,783.906,508.451Z" transform="translate(-572.971 -337.042)" fill="#fff" opacity="0.05"/><ellipse cx="3.222" cy="5.118" rx="3.222" ry="5.118" transform="translate(216.631 159.605)" fill="#795548"/><ellipse cx="3.222" cy="5.118" rx="3.222" ry="5.118" transform="translate(216.631 159.605)" fill="#fff" opacity="0.1"/><path d="M802.856,497.081a5.879,5.879,0,0,1,1.826-4.6,2.311,2.311,0,0,1,3.4.616c-.773-1.525-2.027-2.214-3.228-1.775s-2.139,1.929-2.416,3.837a7.02,7.02,0,0,0,1.118,5.128A7.171,7.171,0,0,1,802.856,497.081Z" transform="translate(-585.728 -331.574)" fill="#fff" opacity="0.05"/><ellipse cx="3.222" cy="5.118" rx="3.222" ry="5.118" transform="translate(222.328 155.276)" fill="#795548"/><ellipse cx="3.222" cy="5.118" rx="3.222" ry="5.118" transform="translate(222.328 155.276)" fill="#fff" opacity="0.1"/><path d="M820.286,488.741a5.88,5.88,0,0,1,1.828-4.6,2.312,2.312,0,0,1,3.4.609c-.773-1.525-2.027-2.214-3.228-1.775s-2.139,1.929-2.416,3.837a7.02,7.02,0,0,0,1.118,5.128A7.179,7.179,0,0,1,820.286,488.741Z" transform="translate(-597.462 -327.563)" fill="#fff" opacity="0.05"/><ellipse cx="3.222" cy="5.118" rx="3.222" ry="5.118" transform="translate(206.226 159.605)" fill="#795548"/><ellipse cx="3.222" cy="5.118" rx="3.222" ry="5.118" transform="translate(206.226 159.605)" fill="#fff" opacity="0.1"/><path d="M770.976,497.081a5.879,5.879,0,0,1,1.826-4.6,2.311,2.311,0,0,1,3.4.616c-.773-1.525-2.027-2.214-3.228-1.775s-2.139,1.929-2.416,3.837a7.02,7.02,0,0,0,1.117,5.127A7.216,7.216,0,0,1,770.976,497.081Z" transform="translate(-564.267 -331.574)" fill="#fff" opacity="0.05"/><ellipse cx="3.222" cy="5.118" rx="3.222" ry="5.118" transform="translate(217.622 176.127)" fill="#795548"/><ellipse cx="3.222" cy="5.118" rx="3.222" ry="5.118" transform="translate(217.622 176.127)" fill="#fff" opacity="0.1"/><path d="M805.886,528.921a5.878,5.878,0,0,1,1.824-4.608,2.311,2.311,0,0,1,3.4.622c-.773-1.525-2.027-2.214-3.228-1.775s-2.139,1.929-2.416,3.837a7.019,7.019,0,0,0,1.118,5.128A7.233,7.233,0,0,1,805.886,528.921Z" transform="translate(-587.768 -346.887)" fill="#fff" opacity="0.05"/><ellipse cx="3.222" cy="5.118" rx="3.222" ry="5.118" transform="translate(203.997 175.738)" fill="#795548"/><ellipse cx="3.222" cy="5.118" rx="3.222" ry="5.118" transform="translate(203.997 175.738)" fill="#fff" opacity="0.1"/><path d="M764.2,528.161a5.878,5.878,0,0,1,1.826-4.6,2.311,2.311,0,0,1,3.4.616c-.773-1.525-2.027-2.214-3.228-1.775s-2.139,1.929-2.416,3.837a7.02,7.02,0,0,0,1.118,5.128A7.17,7.17,0,0,1,764.2,528.161Z" transform="translate(-559.703 -346.521)" fill="#fff" opacity="0.05"/><ellipse cx="3.222" cy="5.118" rx="3.222" ry="5.118" transform="translate(224.805 183.213)" fill="#795548"/><ellipse cx="3.222" cy="5.118" rx="3.222" ry="5.118" transform="translate(224.805 183.213)" fill="#fff" opacity="0.1"/><path d="M827.876,542.536a5.883,5.883,0,0,1,1.825-4.606,2.311,2.311,0,0,1,3.4.614c-.773-1.525-2.027-2.214-3.228-1.775s-2.139,1.929-2.416,3.837a7.02,7.02,0,0,0,1.118,5.128A7.169,7.169,0,0,1,827.876,542.536Z" transform="translate(-602.571 -353.432)" fill="#fff" opacity="0.05"/><ellipse cx="3.222" cy="5.118" rx="3.222" ry="5.118" transform="translate(229.763 185.969)" fill="#795548"/><ellipse cx="3.222" cy="5.118" rx="3.222" ry="5.118" transform="translate(229.763 185.969)" fill="#fff" opacity="0.1"/><path d="M843.036,547.871a5.879,5.879,0,0,1,1.826-4.6,2.311,2.311,0,0,1,3.4.616c-.773-1.525-2.027-2.214-3.228-1.775s-2.139,1.929-2.416,3.837a7.02,7.02,0,0,0,1.118,5.128A7.171,7.171,0,0,1,843.036,547.871Z" transform="translate(-612.777 -356)" fill="#fff" opacity="0.05"/><ellipse cx="3.222" cy="5.118" rx="3.222" ry="5.118" transform="translate(233.972 191.082)" fill="#795548"/><ellipse cx="3.222" cy="5.118" rx="3.222" ry="5.118" transform="translate(233.972 191.082)" fill="#fff" opacity="0.1"/><path d="M855.9,557.718a5.879,5.879,0,0,1,1.826-4.6,2.311,2.311,0,0,1,3.4.616c-.771-1.532-2.027-2.228-3.231-1.791s-2.145,1.93-2.421,3.842a7.011,7.011,0,0,0,1.126,5.133A7.168,7.168,0,0,1,855.9,557.718Z" transform="translate(-621.432 -360.729)" fill="#fff" opacity="0.05"/><ellipse cx="3.222" cy="5.118" rx="3.222" ry="5.118" transform="translate(240.91 184.391)" fill="#795548"/><ellipse cx="3.222" cy="5.118" rx="3.222" ry="5.118" transform="translate(240.91 184.391)" fill="#fff" opacity="0.1"/><path d="M877.146,544.841a5.878,5.878,0,0,1,1.824-4.608,2.311,2.311,0,0,1,3.4.622c-.773-1.525-2.027-2.214-3.228-1.775s-2.14,1.929-2.416,3.837a7.02,7.02,0,0,0,1.118,5.128,7.232,7.232,0,0,1-.7-3.2Z" transform="translate(-635.739 -354.543)" fill="#fff" opacity="0.05"/><ellipse cx="3.222" cy="5.118" rx="3.222" ry="5.118" transform="translate(237.194 178.489)" fill="#795548"/><ellipse cx="3.222" cy="5.118" rx="3.222" ry="5.118" transform="translate(237.194 178.489)" fill="#fff" opacity="0.1"/><path d="M865.706,533.408a5.878,5.878,0,0,1,1.824-4.608,2.311,2.311,0,0,1,3.4.622c-.766-1.563-2.031-2.284-3.248-1.849s-2.166,1.947-2.436,3.88a6.955,6.955,0,0,0,1.174,5.153A7.159,7.159,0,0,1,865.706,533.408Z" transform="translate(-628.015 -349.012)" fill="#fff" opacity="0.05"/><ellipse cx="3.222" cy="5.118" rx="3.222" ry="5.118" transform="translate(214.399 146.223)" fill="#795548"/><ellipse cx="3.222" cy="5.118" rx="3.222" ry="5.118" transform="translate(214.399 146.223)" fill="#fff" opacity="0.1"/><path d="M796.036,471.306a5.883,5.883,0,0,1,1.825-4.606,2.311,2.311,0,0,1,3.4.614c-.773-1.525-2.027-2.214-3.228-1.775s-2.139,1.929-2.416,3.837a7.02,7.02,0,0,0,1.118,5.128A7.169,7.169,0,0,1,796.036,471.306Z" transform="translate(-581.137 -319.176)" fill="#fff" opacity="0.05"/><ellipse cx="3.222" cy="5.118" rx="3.222" ry="5.118" transform="translate(201.516 169.047)" fill="#795548"/><ellipse cx="3.222" cy="5.118" rx="3.222" ry="5.118" transform="translate(201.516 169.047)" fill="#fff" opacity="0.1"/><path d="M756.616,515.271a5.879,5.879,0,0,1,1.826-4.6,2.311,2.311,0,0,1,3.4.616c-.773-1.525-2.027-2.214-3.228-1.775s-2.139,1.929-2.416,3.837a7.02,7.02,0,0,0,1.118,5.128A7.17,7.17,0,0,1,756.616,515.271Z" transform="translate(-554.6 -340.322)" fill="#fff" opacity="0.05"/><ellipse cx="3.222" cy="5.118" rx="3.222" ry="5.118" transform="translate(196.562 183.607)" fill="#795548"/><ellipse cx="3.222" cy="5.118" rx="3.222" ry="5.118" transform="translate(196.562 183.607)" fill="#fff" opacity="0.1"/><path d="M741.487,543.357a5.879,5.879,0,0,1,1.826-4.6,2.311,2.311,0,0,1,3.4.616c-.779-1.506-2.03-2.177-3.225-1.73s-2.125,1.934-2.4,3.834a7.029,7.029,0,0,0,1.108,5.112A7.168,7.168,0,0,1,741.487,543.357Z" transform="translate(-544.429 -353.848)" fill="#fff" opacity="0.05"/><ellipse cx="3.222" cy="5.118" rx="3.222" ry="5.118" transform="translate(211.922 178.489)" fill="#795548"/><ellipse cx="3.222" cy="5.118" rx="3.222" ry="5.118" transform="translate(211.922 178.489)" fill="#fff" opacity="0.1"/><path d="M788.441,533.457a5.878,5.878,0,0,1,1.824-4.608,2.311,2.311,0,0,1,3.4.622c-.771-1.532-2.027-2.229-3.231-1.792s-2.145,1.93-2.421,3.842a7.01,7.01,0,0,0,1.126,5.133A7.146,7.146,0,0,1,788.441,533.457Z" transform="translate(-576.019 -349.061)" fill="#fff" opacity="0.05"/><ellipse cx="3.222" cy="5.118" rx="3.222" ry="5.118" transform="translate(212.419 157.638)" fill="#795548"/><ellipse cx="3.222" cy="5.118" rx="3.222" ry="5.118" transform="translate(212.419 157.638)" fill="#fff" opacity="0.1"/><path d="M789.976,493.291a5.879,5.879,0,0,1,1.826-4.6,2.311,2.311,0,0,1,3.4.616c-.773-1.525-2.027-2.214-3.228-1.775s-2.139,1.929-2.416,3.837a7.02,7.02,0,0,0,1.118,5.128A7.216,7.216,0,0,1,789.976,493.291Z" transform="translate(-577.057 -329.752)" fill="#fff" opacity="0.05"/><ellipse cx="3.222" cy="5.118" rx="3.222" ry="5.118" transform="translate(213.657 152.125)" fill="#795548"/><ellipse cx="3.222" cy="5.118" rx="3.222" ry="5.118" transform="translate(213.657 152.125)" fill="#fff" opacity="0.1"/><path d="M793.666,482.6a5.878,5.878,0,0,1,1.824-4.608,2.311,2.311,0,0,1,3.4.622c-.763-1.575-2.032-2.3-3.254-1.87s-2.173,1.953-2.441,3.894a6.934,6.934,0,0,0,1.191,5.16A7.162,7.162,0,0,1,793.666,482.6Z" transform="translate(-579.512 -324.567)" fill="#fff" opacity="0.05"/><ellipse cx="3.222" cy="5.118" rx="3.222" ry="5.118" transform="translate(209.445 184.391)" fill="#795548"/><path d="M780.866,544.841a5.879,5.879,0,0,1,1.826-4.6,2.311,2.311,0,0,1,3.4.616c-.773-1.525-2.027-2.214-3.228-1.775s-2.139,1.929-2.416,3.837a7.02,7.02,0,0,0,1.118,5.128,7.194,7.194,0,0,1-.7-3.2Z" transform="translate(-570.925 -354.543)" fill="#fff" opacity="0.05"/><ellipse cx="3.222" cy="5.118" rx="3.222" ry="5.118" transform="translate(201.271 163.145)" fill="#795548"/><path d="M755.856,503.9a5.879,5.879,0,0,1,1.826-4.6,2.311,2.311,0,0,1,3.4.616c-.773-1.525-2.027-2.214-3.228-1.775s-2.139,1.929-2.416,3.837a7.02,7.02,0,0,0,1.118,5.128A7.171,7.171,0,0,1,755.856,503.9Z" transform="translate(-554.088 -334.854)" fill="#fff" opacity="0.05"/><ellipse cx="3.222" cy="5.118" rx="3.222" ry="5.118" transform="translate(205.235 178.1)" fill="#795548"/><path d="M767.976,532.711a5.879,5.879,0,0,1,1.826-4.6,2.312,2.312,0,0,1,3.4.615c-.773-1.525-2.027-2.214-3.228-1.775s-2.139,1.929-2.416,3.837a7.019,7.019,0,0,0,1.118,5.128A7.17,7.17,0,0,1,767.976,532.711Z" transform="translate(-562.247 -348.709)" fill="#fff" opacity="0.05"/><ellipse cx="3.222" cy="5.118" rx="3.222" ry="5.118" transform="translate(216.88 141.11)" fill="#795548"/><path d="M803.616,461.451a5.879,5.879,0,0,1,1.826-4.6,2.311,2.311,0,0,1,3.4.616c-.773-1.525-2.027-2.214-3.228-1.775s-2.139,1.929-2.416,3.837a7.02,7.02,0,0,0,1.118,5.128,7.171,7.171,0,0,1-.7-3.2Z" transform="translate(-586.24 -314.439)" fill="#fff" opacity="0.05"/><ellipse cx="3.222" cy="5.118" rx="3.222" ry="5.118" transform="translate(216.631 152.52)" fill="#795548"/><path d="M802.856,483.436a5.883,5.883,0,0,1,1.825-4.606,2.311,2.311,0,0,1,3.4.614c-.773-1.525-2.027-2.214-3.228-1.775s-2.139,1.929-2.416,3.837a7.02,7.02,0,0,0,1.118,5.128A7.169,7.169,0,0,1,802.856,483.436Z" transform="translate(-585.728 -325.01)" fill="#fff" opacity="0.05"/><ellipse cx="3.222" cy="5.118" rx="3.222" ry="5.118" transform="translate(222.328 148.585)" fill="#795548"/><path d="M820.286,475.851a5.88,5.88,0,0,1,1.828-4.6,2.312,2.312,0,0,1,3.4.609c-.773-1.525-2.027-2.214-3.228-1.775s-2.139,1.929-2.416,3.837a7.02,7.02,0,0,0,1.118,5.128A7.177,7.177,0,0,1,820.286,475.851Z" transform="translate(-597.462 -321.364)" fill="#fff" opacity="0.05"/><ellipse cx="3.222" cy="5.118" rx="3.222" ry="5.118" transform="translate(219.85 170.62)" fill="#795548"/><ellipse cx="3.222" cy="5.118" rx="3.222" ry="5.118" transform="translate(221.599 168.305)" fill="#795548"/><path d="M812.679,518.287a5.878,5.878,0,0,1,1.824-4.608,2.311,2.311,0,0,1,3.4.622c-.77-1.539-2.028-2.24-3.235-1.8s-2.149,1.933-2.424,3.85a7,7,0,0,0,1.136,5.138,7.161,7.161,0,0,1-.706-3.2Z" transform="translate(-592.332 -341.76)" fill="#fff" opacity="0.05"/><ellipse cx="3.222" cy="5.118" rx="3.222" ry="5.118" transform="translate(218.118 184.785)" fill="#795548"/><path d="M807.391,545.588a5.878,5.878,0,0,1,1.824-4.608,2.311,2.311,0,0,1,3.4.622c-.771-1.532-2.027-2.229-3.231-1.792s-2.145,1.93-2.421,3.842a7.011,7.011,0,0,0,1.126,5.133A7.17,7.17,0,0,1,807.391,545.588Z" transform="translate(-588.776 -354.895)" fill="#fff" opacity="0.05"/><ellipse cx="3.222" cy="5.118" rx="3.222" ry="5.118" transform="translate(219.357 174.554)" fill="#795548"/><path d="M811.181,525.877a5.878,5.878,0,0,1,1.824-4.608,2.311,2.311,0,0,1,3.4.622c-.771-1.532-2.027-2.229-3.231-1.792s-2.145,1.93-2.421,3.842a7.01,7.01,0,0,0,1.126,5.133A7.167,7.167,0,0,1,811.181,525.877Z" transform="translate(-591.327 -345.416)" fill="#fff" opacity="0.05"/><ellipse cx="3.222" cy="5.118" rx="3.222" ry="5.118" transform="translate(225.053 165.896)" fill="#795548"/><ellipse cx="3.222" cy="5.118" rx="3.222" ry="5.118" transform="translate(241.963 177.477)" fill="#795548"/><path d="M828.614,509.2a5.878,5.878,0,0,1,1.824-4.608,2.311,2.311,0,0,1,3.4.622c-.772-1.532-2.028-2.226-3.232-1.788s-2.144,1.932-2.419,3.845a7.008,7.008,0,0,0,1.128,5.132A7.187,7.187,0,0,1,828.614,509.2Z" transform="translate(-603.064 -337.397)" fill="#fff" opacity="0.05"/><ellipse cx="3.222" cy="5.118" rx="3.222" ry="5.118" transform="translate(221.834 179.673)" fill="#795548"/><path d="M818.719,535.69a5.879,5.879,0,0,1,1.826-4.6,2.312,2.312,0,0,1,3.4.616c-.768-1.557-2.031-2.271-3.245-1.834s-2.161,1.946-2.431,3.876a6.963,6.963,0,0,0,1.167,5.148,7.139,7.139,0,0,1-.719-3.2Z" transform="translate(-596.388 -350.116)" fill="#fff" opacity="0.05"/><ellipse cx="3.222" cy="5.118" rx="3.222" ry="5.118" transform="translate(231.992 155.276)" fill="#795548"/><path d="M849.856,488.741a5.879,5.879,0,0,1,1.826-4.6,2.311,2.311,0,0,1,3.4.616c-.773-1.525-2.027-2.214-3.228-1.775s-2.139,1.929-2.416,3.837a7.02,7.02,0,0,0,1.118,5.128A7.218,7.218,0,0,1,849.856,488.741Z" transform="translate(-617.368 -327.563)" fill="#fff" opacity="0.05"/><ellipse cx="3.222" cy="5.118" rx="3.222" ry="5.118" transform="translate(229.514 162.751)" fill="#795548"/><path d="M842.276,503.146a5.883,5.883,0,0,1,1.825-4.606,2.311,2.311,0,0,1,3.4.614c-.773-1.525-2.027-2.214-3.228-1.775s-2.139,1.929-2.416,3.837a7.02,7.02,0,0,0,1.118,5.128A7.209,7.209,0,0,1,842.276,503.146Z" transform="translate(-612.265 -334.489)" fill="#fff" opacity="0.05"/><ellipse cx="3.222" cy="5.118" rx="3.222" ry="5.118" transform="translate(231.495 169.836)" fill="#795548"/><path d="M848.324,516.78a5.879,5.879,0,0,1,1.826-4.6,2.311,2.311,0,0,1,3.4.616c-.772-1.531-2.028-2.226-3.232-1.788s-2.144,1.932-2.419,3.845a7.008,7.008,0,0,0,1.128,5.132A7.172,7.172,0,0,1,848.324,516.78Z" transform="translate(-616.333 -341.043)" fill="#fff" opacity="0.05"/><ellipse cx="3.222" cy="5.118" rx="3.222" ry="5.118" transform="translate(236.449 184.391)" fill="#795548"/><path d="M863.506,544.841a5.878,5.878,0,0,1,1.824-4.608,2.311,2.311,0,0,1,3.4.622c-.773-1.525-2.027-2.214-3.228-1.775s-2.139,1.929-2.416,3.837a7.02,7.02,0,0,0,1.118,5.128A7.187,7.187,0,0,1,863.506,544.841Z" transform="translate(-626.557 -354.543)" fill="#fff" opacity="0.05"/><ellipse cx="3.222" cy="5.118" rx="3.222" ry="5.118" transform="translate(240.414 172.587)" fill="#795548"/><ellipse cx="3.222" cy="5.118" rx="3.222" ry="5.118" transform="translate(206.013 165.642)" fill="#795548"/><path d="M875.611,522.088a5.879,5.879,0,0,1,1.826-4.6,2.311,2.311,0,0,1,3.4.616c-.771-1.532-2.027-2.228-3.231-1.791s-2.145,1.93-2.421,3.842a7.011,7.011,0,0,0,1.126,5.133A7.169,7.169,0,0,1,875.611,522.088Z" transform="translate(-634.701 -343.593)" fill="#fff" opacity="0.05"/><ellipse cx="3.222" cy="5.118" rx="3.222" ry="5.118" transform="translate(232.24 178.1)" fill="#795548"/><path d="M850.616,532.711a5.879,5.879,0,0,1,1.826-4.6,2.311,2.311,0,0,1,3.4.616c-.773-1.525-2.027-2.214-3.228-1.775s-2.139,1.929-2.416,3.837a7.02,7.02,0,0,0,1.118,5.128A7.171,7.171,0,0,1,850.616,532.711Z" transform="translate(-617.879 -348.71)" fill="#fff" opacity="0.05"/><ellipse cx="3.222" cy="5.118" rx="3.222" ry="5.118" transform="translate(232.733 184.391)" fill="#795548"/><path d="M852.114,544.83a5.878,5.878,0,0,1,1.824-4.608,2.311,2.311,0,0,1,3.4.622c-.772-1.532-2.028-2.226-3.232-1.788s-2.144,1.932-2.419,3.845a7.008,7.008,0,0,0,1.128,5.132,7.189,7.189,0,0,1-.706-3.2Z" transform="translate(-618.883 -354.532)" fill="#fff" opacity="0.05"/><ellipse cx="3.222" cy="5.118" rx="3.222" ry="5.118" transform="translate(223.321 188.72)" fill="#795548"/><path d="M823.311,553.168a5.878,5.878,0,0,1,1.824-4.608,2.311,2.311,0,0,1,3.4.622c-.771-1.532-2.027-2.228-3.231-1.791s-2.145,1.93-2.421,3.842a7.011,7.011,0,0,0,1.125,5.133A7.147,7.147,0,0,1,823.311,553.168Z" transform="translate(-599.493 -358.541)" fill="#fff" opacity="0.05"/><ellipse cx="3.222" cy="5.118" rx="3.222" ry="5.118" transform="translate(212.667 172.193)" fill="#795548"/><path d="M790.748,521.36a5.878,5.878,0,0,1,1.824-4.608,2.311,2.311,0,0,1,3.4.622c-.777-1.515-2.029-2.195-3.227-1.751s-2.132,1.932-2.407,3.837a7.023,7.023,0,0,0,1.114,5.119A7.186,7.186,0,0,1,790.748,521.36Z" transform="translate(-577.584 -343.261)" fill="#fff" opacity="0.05"/><ellipse cx="3.222" cy="5.118" rx="3.222" ry="5.118" transform="translate(215.886 171.803)" fill="#795548"/><path d="M800.576,520.541a5.88,5.88,0,0,1,1.828-4.6,2.312,2.312,0,0,1,3.4.609c-.773-1.525-2.027-2.214-3.228-1.775s-2.139,1.929-2.416,3.837a7.02,7.02,0,0,0,1.118,5.128,7.179,7.179,0,0,1-.7-3.2Z" transform="translate(-584.193 -342.857)" fill="#fff" opacity="0.05"/><ellipse cx="3.222" cy="5.118" rx="3.222" ry="5.118" transform="translate(209.2 178.1)" fill="#795548"/><path d="M780.116,532.711a5.879,5.879,0,0,1,1.826-4.6,2.311,2.311,0,0,1,3.4.616c-.773-1.525-2.027-2.214-3.228-1.775s-2.139,1.929-2.416,3.837a7.02,7.02,0,0,0,1.118,5.128A7.171,7.171,0,0,1,780.116,532.711Z" transform="translate(-570.42 -348.71)" fill="#fff" opacity="0.05"/><ellipse cx="3.222" cy="5.118" rx="3.222" ry="5.118" transform="translate(237.194 191.082)" fill="#795548"/><ellipse cx="3.222" cy="5.118" rx="3.222" ry="5.118" transform="translate(237.194 191.082)" fill="#fff" opacity="0.1"/><path d="M865.706,557.668a5.878,5.878,0,0,1,1.824-4.608,2.311,2.311,0,0,1,3.4.622c-.766-1.563-2.031-2.284-3.248-1.849s-2.166,1.947-2.436,3.88a6.955,6.955,0,0,0,1.174,5.153A7.175,7.175,0,0,1,865.706,557.668Z" transform="translate(-628.015 -360.679)" fill="#fff" opacity="0.05"/><ellipse cx="3.222" cy="5.118" rx="3.222" ry="5.118" transform="translate(233.972 172.587)" fill="#795548"/><ellipse cx="3.222" cy="5.118" rx="3.222" ry="5.118" transform="translate(233.972 172.587)" fill="#fff" opacity="0.1"/><path d="M855.9,522.088a5.879,5.879,0,0,1,1.826-4.6,2.311,2.311,0,0,1,3.4.616c-.771-1.532-2.027-2.228-3.231-1.791s-2.145,1.93-2.421,3.842a7.011,7.011,0,0,0,1.125,5.133,7.17,7.17,0,0,1-.7-3.2Z" transform="translate(-621.432 -343.593)" fill="#fff" opacity="0.05"/><ellipse cx="3.222" cy="5.118" rx="3.222" ry="5.118" transform="translate(224.805 159.605)" fill="#795548"/><ellipse cx="3.222" cy="5.118" rx="3.222" ry="5.118" transform="translate(224.805 159.605)" fill="#fff" opacity="0.1"/><path d="M827.876,497.081a5.879,5.879,0,0,1,1.826-4.6,2.311,2.311,0,0,1,3.4.616c-.773-1.525-2.027-2.214-3.228-1.775s-2.139,1.929-2.416,3.837a7.019,7.019,0,0,0,1.118,5.128A7.17,7.17,0,0,1,827.876,497.081Z" transform="translate(-602.571 -331.574)" fill="#fff" opacity="0.05"/><path d="M643.482,392.989H572.39l7.579-39.839H635.9Z" transform="translate(-385.325 -169.823)" fill="#f55f44"/><path d="M582.1,356.54l51.77.171-.425-3.39-53.48-.171-7.579,39.839h2.778Z" transform="translate(-385.325 -169.823)" fill="#fff" opacity="0.05"/><path d="M640.677,429.149H565.53l2.987-6.1h69.6Z" transform="translate(-380.707 -203.44)" fill="#6c63ff"/><path d="M640.677,429.149H565.53l2.987-6.1h69.6Z" transform="translate(-380.707 -203.44)" fill="#f55f44"/><path d="M640.677,429.149H565.53l2.987-6.1h69.6Z" transform="translate(-380.707 -203.44)" opacity="0.1"/><path d="M759.5,352.52l6.428,36.611,3.049.244-7.19-36.854Z" transform="translate(-511.285 -169.52)" opacity="0.05"/><path d="M461.025,230.867c-.157,17.493-9.448,31.326-20.462,31.326h-1.533a4.447,4.447,0,0,0-3.628,2.325,9.864,9.864,0,0,0-1.474,4.085,11.712,11.712,0,0,0-.154,1.936v30.88a45.142,45.142,0,0,1-3.072,16.751A64.136,64.136,0,0,0,426.128,342h0a20.057,20.057,0,0,1-2.808,10.62c-1.8,2.8-4.223,4.334-6.738,4.262-5.151-.151-9.19-7.184-9.19-15.37V333.79l-2.552.478V342a20.06,20.06,0,0,1-2.81,10.621c-1.8,2.8-4.224,4.334-6.739,4.261-5.151-.151-9.187-7.184-9.187-15.37V337.6c-2.556,1.692-17.034,1.692-21.053.057l-1.092-.135V342a20.058,20.058,0,0,1-2.808,10.62c-1.8,2.8-4.223,4.334-6.738,4.262-5.154-.151-9.19-7.184-9.19-15.37v-6.421l-.853-.125V342a23.762,23.762,0,0,1-.287,3.693c-1.084,6.683-4.914,11.312-9.259,11.189-4.709-.135-8.481-6.021-9.1-13.283q-.079-1.033-.085-2.076V309.2c-.011-11.1,2.329-21.889,6.644-30.626a13.72,13.72,0,0,0,.16-10.838c-4.768-11.093-11.821-29.811-11.589-43.083a20.268,20.268,0,0,1,2.232-9.821c.091-.161.186-.322.281-.472,6.863-11.42,18.955-2.434,17.9,13.257a69.278,69.278,0,0,0,.726,15.692,68.467,68.467,0,0,0,1.915,8.414c1.642,5.568,5.346,8.837,9.19,8.113a20.135,20.135,0,0,1,3.84-.363H396.3c4.736-.014,8.94-4.814,10.458-11.939a26.3,26.3,0,0,0,.595-5.668V193.224a12.723,12.723,0,0,1,1.812-6.8,5.039,5.039,0,0,1,4.338-2.664,5.285,5.285,0,0,1,4.124,3.026,14.055,14.055,0,0,1,1.66,6.821,6.779,6.779,0,0,0,.926,3.547,2.739,2.739,0,0,0,2.234,1.467h18.556c5.359,0,10.5,3.408,14.257,9.471s5.835,14.269,5.754,22.78Z" transform="translate(-261.578 -183.72)" fill="#f3ad55"/><path d="M354.064,491.762c-1.085,6.682-4.915,11.309-9.259,11.186-4.709-.135-8.481-6.021-9.105-13.283C341.373,487.225,349.233,485.554,354.064,491.762Z" transform="translate(-271.579 -329.785)" fill="#fbdca3"/><path d="M414,491.762c-1.083,6.682-4.912,11.31-9.255,11.186-4.709-.135-8.5-6.021-9.105-13.283C401.313,487.225,409.173,485.554,414,491.762Z" transform="translate(-311.93 -329.785)" fill="#fbdca3"/><path d="M539.09,491.762c-1.084,6.683-4.914,11.311-9.259,11.186-4.709-.135-8.5-6.021-9.1-13.283C526.4,487.225,534.26,485.554,539.09,491.762Z" transform="translate(-396.139 -329.785)" fill="#fbdca3"/><path d="M604.234,491.762c-1.085,6.682-4.915,11.309-9.259,11.186-4.709-.135-8.5-6.021-9.1-13.283C591.543,487.225,599.4,485.554,604.234,491.762Z" transform="translate(-439.99 -329.785)" fill="#fbdca3"/><path d="M341.938,266.931c-6.618-4.22-14.707-11.939-21.138-18.656a20.268,20.268,0,0,1,2.232-9.821c.091-.161.186-.322.281-.472,6.863-11.42,18.955-2.434,17.9,13.257A69.276,69.276,0,0,0,341.938,266.931Z" transform="translate(-261.549 -207.326)" fill="#fbdca3"/><path d="M410,329.753s18.22,36.429,48.042-.093" transform="translate(-321.597 -253.891)" fill="#fbdca3"/><path d="M585.61,199.36s11.072,23,0,51.389" transform="translate(-439.815 -191.227)" fill="#fbdca3"/><path d="M657.392,350.51s-9.752,19.242-.131,34.513" transform="translate(-485.194 -263.918)" fill="#fbdca3"/><path d="M602.354,326.637c-.722,1.08-.477,2.123-.7,3.706L570,317.169c1.7-2.076,3.814-4.557,4.513-7.859C578.3,313.987,585.808,321.835,602.354,326.637Z" transform="translate(-429.307 -244.104)" opacity="0.1"/><path d="M604.768,323.648a9.863,9.863,0,0,0-1.474,4.085l-30.864-12.78a19.526,19.526,0,0,0,3.713-8.253C579.94,311.382,588.218,318.846,604.768,323.648Z" transform="translate(-430.943 -242.849)" fill="#383f4d"/><path d="M587.34,311.91a50.835,50.835,0,0,0,25.838,15.1" transform="translate(-440.98 -245.355)" opacity="0.1"/><path d="M587.34,309.31a50.864,50.864,0,0,0,25.838,15.105" transform="translate(-440.98 -244.104)" fill="#f3ad55"/><path d="M661.19,295.126s16.18,8.113,20.439-17.586Z" transform="translate(-490.695 -228.825)" opacity="0.1"/><path d="M661.19,292.521s16.18,8.118,20.439-17.581Z" transform="translate(-490.695 -227.575)" fill="#fbdca3"/><ellipse cx="1.703" cy="4.734" rx="1.703" ry="4.734" transform="translate(197.748 39.247)" fill="#383f4d"/><path d="M350.172,415.946l3.405-43.286s-10.223,25.7-3.405,43.286" transform="translate(-279.744 -274.571)" opacity="0.1"/><path d="M356.157,372.66s-10.219,25.7-3.409,43.286Z" transform="translate(-281.48 -274.571)" fill="#fbdca3"/></g></svg>